<svg width="36" height="33" viewBox="0 0 36 33" fill="none" xmlns="http://www.w3.org/2000/svg">
<path d="M34.0411 4.02731L9.26701 4.02731L8.73679 1.22028C8.60286 0.511468 8.003 0 7.30555 0L1.22917 0C0.826484 0 0.5 0.338105 0.5 0.755121L0.5 2.26536C0.5 2.68238 0.826484 3.02048 1.22917 3.02048H6.10486L10.3337 25.4036C9.66295 26.1272 9.25 27.109 9.25 28.1912C9.25 30.4154 10.9911 32.2185 13.1389 32.2185C15.2866 32.2185 17.0278 30.4154 17.0278 28.1912C17.0285 27.4841 16.8486 26.7893 16.5062 26.1775H25.3271C24.9848 26.7893 24.8049 27.4841 24.8056 28.1912C24.8056 30.4154 26.5467 32.2185 28.6945 32.2185C30.8423 32.2185 32.5834 30.4154 32.5834 28.1912C32.5834 27.0499 32.1243 26.0205 31.3878 25.2876L31.4507 24.9883C31.6484 24.0469 30.9559 23.157 30.0257 23.157H12.8812L12.3107 20.1366H31.2936C31.9796 20.1366 32.5729 19.6414 32.7186 18.9471L35.4661 5.85835C35.6637 4.91703 34.9713 4.02731 34.0411 4.02731ZM13.1389 29.7014C12.3347 29.7014 11.6806 29.0239 11.6806 28.1912C11.6806 27.3584 12.3347 26.6809 13.1389 26.6809C13.943 26.6809 14.5972 27.3584 14.5972 28.1912C14.5972 29.0239 13.943 29.7014 13.1389 29.7014ZM28.6944 29.7014C27.8903 29.7014 27.2361 29.0239 27.2361 28.1912C27.2361 27.3584 27.8903 26.6809 28.6944 26.6809C29.4986 26.6809 30.1528 27.3584 30.1528 28.1912C30.1528 29.0239 29.4986 29.7014 28.6944 29.7014ZM30.1186 17.1161H11.7401L9.83758 7.04779L32.232 7.04779L30.1186 17.1161Z" fill="#A5C693"/>
</svg>
