<svg width="18" height="18" viewBox="0 0 18 18" fill="none" xmlns="http://www.w3.org/2000/svg">
<path d="M17.2497 2.34351L4.50875 2.34351L4.23606 0.862381C4.16719 0.488381 3.85869 0.218506 3.5 0.218506L0.375 0.218506C0.167906 0.218506 0 0.396906 0 0.616943L0 1.41382C0 1.63386 0.167906 1.81226 0.375 1.81226H2.8825L5.05731 13.6226C4.71237 14.0045 4.5 14.5225 4.5 15.0935C4.5 16.2671 5.39544 17.2185 6.5 17.2185C7.60456 17.2185 8.5 16.2671 8.5 15.0935C8.50039 14.7204 8.40785 14.3538 8.23178 14.031H12.7682C12.5922 14.3538 12.4996 14.7204 12.5 15.0935C12.5 16.2671 13.3955 17.2185 14.5 17.2185C15.6046 17.2185 16.5 16.2671 16.5 15.0935C16.5 14.4913 16.2639 13.9481 15.8852 13.5614L15.9175 13.4035C16.0192 12.9068 15.6631 12.4373 15.1846 12.4373H6.3675L6.07406 10.8435H15.8367C16.1895 10.8435 16.4946 10.5822 16.5696 10.2159L17.9826 3.30965C18.0842 2.81296 17.7281 2.34351 17.2497 2.34351ZM6.5 15.8904C6.08644 15.8904 5.75 15.5329 5.75 15.0935C5.75 14.6541 6.08644 14.2966 6.5 14.2966C6.91356 14.2966 7.25 14.6541 7.25 15.0935C7.25 15.5329 6.91356 15.8904 6.5 15.8904ZM14.5 15.8904C14.0864 15.8904 13.75 15.5329 13.75 15.0935C13.75 14.6541 14.0864 14.2966 14.5 14.2966C14.9136 14.2966 15.25 14.6541 15.25 15.0935C15.25 15.5329 14.9136 15.8904 14.5 15.8904ZM15.2324 9.24976H5.78062L4.80219 3.93726L16.3193 3.93726L15.2324 9.24976Z" fill="white"/>
</svg>
