<svg width="21" height="13" viewBox="0 0 21 13" fill="none" xmlns="http://www.w3.org/2000/svg">
<path d="M20.9386 6.48385C18.9206 2.92754 14.9219 0.718506 10.5012 0.718506C6.08052 0.718506 2.07968 2.92754 0.0616739 6.48385C-0.0218601 6.63152 -0.0218601 6.80549 0.0616739 6.95114C2.07968 10.5074 6.07832 12.7165 10.499 12.7165C14.9197 12.7165 18.9184 10.5074 20.9364 6.95114C21.0199 6.80347 21.0199 6.6295 20.9364 6.48385H20.9386ZM10.5716 11.6848C7.64568 11.6848 5.26716 9.48789 5.26716 6.78728C5.26716 4.08668 7.64788 1.8918 10.5716 1.8918C13.4953 1.8918 15.876 4.0887 15.876 6.78728C15.876 9.48587 13.4953 11.6848 10.5716 11.6848ZM1.17399 6.71851C2.29071 4.8736 4.01195 3.45553 6.04974 2.60994C4.88686 3.68007 4.16803 5.15883 4.16803 6.78931C4.16803 8.29841 4.78354 9.674 5.79694 10.7199C3.86906 9.86416 2.24455 8.48654 1.17399 6.71851ZM15.4583 10.6025C16.4036 9.57285 16.9773 8.24177 16.9773 6.78931C16.9773 5.21143 16.3024 3.77717 15.2055 2.71716C17.1334 3.57285 18.7579 4.95047 19.8284 6.71851C18.8041 8.40765 17.2763 9.74076 15.4605 10.6025H15.4583Z" fill="#A6A6A6"/>
<path d="M10.4993 8.83651C9.25072 8.83651 8.23292 7.88574 8.23292 6.71851C8.23292 5.55128 9.24852 4.6005 10.4993 4.6005C11.1918 4.6005 11.8381 4.8918 12.2733 5.39956L13.1372 4.77447C12.4932 4.02195 11.5325 3.58904 10.4993 3.58904C8.64399 3.58904 7.13379 4.99295 7.13379 6.71851C7.13379 8.44406 8.64399 9.84797 10.4993 9.84797C12.3547 9.84797 13.8649 8.44406 13.8649 6.71851H12.7657C12.7657 7.88574 11.7479 8.83651 10.4993 8.83651Z" fill="#A6A6A6"/>
<path d="M10.5007 8.15883C11.3651 8.15883 12.0659 7.51398 12.0659 6.71851C12.0659 5.92304 11.3651 5.27818 10.5007 5.27818C9.63629 5.27818 8.93555 5.92304 8.93555 6.71851C8.93555 7.51398 9.63629 8.15883 10.5007 8.15883Z" fill="#A6A6A6"/>
</svg>
