<svg width="14" height="16" viewBox="0 0 14 16" fill="none" xmlns="http://www.w3.org/2000/svg">
<path d="M12.8124 10.2548C12.6403 10.1314 12.4288 10.1092 12.2435 10.2099C12.2037 10.2235 12.0245 10.2774 11.6867 10.2774C11.5791 10.2774 11.4153 10.2552 11.242 10.2319C10.9922 10.1981 10.709 10.1599 10.4169 10.1599C9.90272 10.1599 9.49921 10.2819 9.18335 10.5332C8.67049 10.9412 8.41711 11.6178 8.30245 12.0425L8.10074 12.1071V12.0059C8.10074 12.005 8.10074 12.0042 8.10074 12.0033V8.73026C8.48261 8.60184 8.80634 8.34559 9.02086 8.01258C9.14302 8.03908 9.26879 8.05313 9.39684 8.05313C9.86651 8.05313 10.3081 7.87033 10.6402 7.53821L10.6574 7.52099C10.9895 7.18886 11.1724 6.74731 11.1724 6.27765C11.1724 6.14959 11.1583 6.02383 11.1319 5.90159C11.6179 5.58838 11.9406 5.04284 11.9406 4.42282V4.39847C11.9406 3.77852 11.6179 3.23291 11.1319 2.9197C11.1583 2.79754 11.1724 2.67177 11.1724 2.54372C11.1724 2.07405 10.9895 1.6325 10.6574 1.30038L10.6402 1.28316C10.3081 0.951034 9.86651 0.76823 9.39684 0.76823C9.26887 0.76823 9.14302 0.782286 9.02086 0.808779C8.70758 0.322776 8.16197 0 7.54202 0H7.51766C6.89772 0 6.35211 0.322776 6.0389 0.808779C5.91674 0.782286 5.79097 0.76823 5.66292 0.76823C5.19325 0.76823 4.7517 0.951107 4.41958 1.28316L4.40236 1.30038C4.07023 1.6325 3.88736 2.07405 3.88736 2.54372C3.88736 2.6717 3.90141 2.79746 3.92791 2.9197C3.4419 3.23291 3.11913 3.77845 3.11913 4.39847V4.42282C3.11913 5.04277 3.4419 5.58838 3.92791 5.90159C3.90141 6.02375 3.88736 6.14959 3.88736 6.27765C3.88736 6.74731 4.07023 7.18886 4.40236 7.52099L4.41958 7.53821C4.7517 7.87026 5.19318 8.05313 5.66292 8.05313C5.79089 8.05313 5.91666 8.03908 6.0389 8.01258C6.26041 8.35633 6.5985 8.61773 6.99663 8.74174V11.0976L6.78314 10.9853C6.65671 10.472 6.34681 9.54912 5.673 9.01314C5.29481 8.7123 4.80675 8.56607 4.1807 8.56607C3.81443 8.56607 3.45456 8.61472 3.13708 8.65755C2.90784 8.68853 2.69126 8.71774 2.5415 8.71774C2.05093 8.71774 1.79991 8.63297 1.75745 8.61722C1.57148 8.5189 1.35747 8.54134 1.18703 8.66549C1.01461 8.79112 0.94256 9.0113 0.982373 9.22097C1.00283 9.32864 1.50679 11.8657 3.55774 12.481C3.9349 12.5942 4.30558 12.6515 4.65941 12.6515H4.65956C5.52398 12.6515 6.11772 12.3119 6.4441 12.0542L6.99671 12.3447V15.4481C6.99671 15.753 7.24383 16.0001 7.54865 16.0001C7.85347 16.0001 8.10059 15.753 8.10059 15.4481V13.2662L8.60793 13.1037C8.88045 13.3145 9.35563 13.5737 10.0459 13.5737C10.3321 13.5737 10.6313 13.5274 10.9351 13.4363C12.5955 12.9381 13.0004 10.9013 13.0168 10.8148C13.0569 10.6037 12.987 10.38 12.8124 10.2548ZM6.34387 4.41068C6.34387 3.74636 6.88433 3.2059 7.54865 3.2059C8.21297 3.2059 8.75343 3.74636 8.75343 4.41068C8.75343 5.075 8.21297 5.61546 7.54865 5.61546C6.88433 5.61546 6.34387 5.075 6.34387 4.41068Z" fill="#A5C693"/>
</svg>
