<svg width="87" height="133" viewBox="0 0 87 133" fill="none" xmlns="http://www.w3.org/2000/svg">
<g opacity="0.5">
<path d="M72.8722 85.2573C72.8722 85.2573 50.207 68.9937 46.5105 48.5411C42.8139 28.0886 52.9188 13.5519 52.9188 0C52.9188 0 89.6349 6.40829 88.6433 34.7397C87.6517 63.0711 101.453 55.9275 72.8722 85.2505V85.2573Z" fill="#466E28"/>
<path d="M61.3506 11.2786C66.3895 22.3008 69.8635 34.0179 72.1165 45.9373L72.8855 50.4231C73.1149 51.9206 73.2768 53.4317 73.4791 54.9427L73.7692 57.2024L73.9513 59.4757L74.3088 64.0222L74.4235 68.5822L74.4842 70.8622L74.4168 73.1422L74.2684 77.709C74.1672 79.2267 73.9918 80.7445 73.8501 82.2622C73.6073 85.3112 73.1351 88.2928 72.7371 91.3013L71.5027 100.307L69.027 118.311L64.0758 154.318L61.4788 153.941L67.0776 118.027L69.877 100.071L71.2801 91.0922C71.732 88.0972 72.2649 85.1021 72.555 82.1206C72.7169 80.623 72.9192 79.1323 73.0474 77.6348L73.2768 73.122L73.3847 70.8622L73.3712 68.6025L73.3375 64.0762L73.0676 59.5566L72.926 57.2969L72.6831 55.0438C72.5145 53.5463 72.3796 52.0353 72.1772 50.5445L71.4892 46.0655C69.4588 34.1596 66.2074 22.402 61.3708 11.2921L61.3506 11.2786Z" fill="#64822D"/>
<path d="M52.4473 30.5574C53.1758 30.2471 54.0797 30.2403 54.8622 30.672C55.6514 31.0903 56.1911 31.866 56.5014 32.6282C56.6902 33.0127 56.7712 33.404 56.8926 33.802C56.9601 34.1932 57.041 34.5912 57.0815 34.9892C57.1085 35.3737 57.1557 35.7852 57.1692 36.1629L57.2096 37.2422C57.2569 37.9505 57.3041 38.6588 57.3985 39.3131C57.4997 39.9674 57.6346 40.588 57.8775 40.9995C58.1068 41.4177 58.4373 41.701 58.9702 42.0248C59.5031 42.3284 60.1507 42.6252 60.8118 42.922C62.1541 43.5156 63.5302 44.1699 64.8524 44.9322C66.161 45.6944 67.4831 46.5983 68.3803 47.9137C68.839 48.5545 69.1223 49.3168 69.3517 50.0453C69.5406 50.6996 69.8846 51.3 70.323 51.8261C71.1797 52.8784 72.3939 53.7149 73.5609 54.2545L73.0617 54.1466C73.0617 54.1466 73.2169 54.0859 73.2978 54.0454C73.3923 53.9982 73.4935 53.951 73.5879 53.8903C73.77 53.7689 73.9454 53.6407 74.0871 53.4653C74.3839 53.1415 74.6132 52.7368 74.7684 52.2646C75.0989 51.3405 75.0989 50.1735 75.0112 49.0267C74.964 48.4533 74.8763 47.9137 74.7414 47.3336C74.6739 47.0368 74.5997 46.7265 74.5323 46.3487C74.4581 45.9777 74.4243 45.492 74.4918 44.9794C74.5727 44.4735 74.7549 43.9743 74.9842 43.61C75.2068 43.2188 75.4429 42.922 75.679 42.6319C76.1512 42.0653 76.6639 41.6133 77.1158 41.1816C78.9506 39.4345 80.9945 37.9438 81.6556 35.9808C81.7433 35.7312 81.804 35.4749 81.8647 35.2051L81.9254 34.7936L81.9794 34.3011C82.0536 33.6266 82.202 32.9723 82.3774 32.3314C82.7484 31.0565 83.261 29.8491 83.9693 28.7563L84.2054 28.8642C83.9086 30.0919 83.7063 31.3331 83.6321 32.5473C83.5916 33.1544 83.6051 33.7615 83.6321 34.3484L83.659 34.8071L83.6793 35.3467C83.6658 35.711 83.6523 36.0752 83.5781 36.4462C83.3083 37.9303 82.5123 39.2456 81.6623 40.2777C80.8124 41.3368 79.9085 42.2474 79.0316 43.1513C78.5796 43.6033 78.1681 44.0283 77.8309 44.433C77.4868 44.8445 77.2912 45.202 77.2575 45.3976C77.2103 45.6 77.2845 46.1329 77.4126 46.8007C77.5273 47.4618 77.6015 48.1768 77.6217 48.8716C77.642 49.5799 77.6015 50.2409 77.5138 50.9627C77.4868 51.3135 77.3789 51.6845 77.3114 52.0353C77.1968 52.3995 77.1091 52.757 76.9337 53.1078C76.3333 54.5244 75.0382 55.86 73.1832 55.9814L72.8729 56.0016L72.6772 55.8735C71.9622 55.3878 71.3956 54.8886 70.8357 54.3152C70.2826 53.7486 69.8036 53.1145 69.3921 52.44C68.9874 51.7587 68.6636 51.0234 68.495 50.2409C68.3533 49.5394 68.097 48.912 67.726 48.3319C66.9705 47.1717 65.6888 46.4499 64.3599 45.9575C63.0176 45.4448 61.5943 45.1615 60.1575 44.7838C59.4357 44.5949 58.6869 44.3993 57.9112 44.0215C57.1422 43.6775 56.272 42.9962 55.8066 42.099C55.3411 41.2086 55.213 40.3519 55.1388 39.5492C55.0578 38.7397 55.0848 37.9707 55.1185 37.2085L55.2602 35.0364C55.2737 34.6924 55.2602 34.3619 55.2534 34.0246C55.1995 33.7075 55.213 33.3568 55.1253 33.0532C54.9971 32.4259 54.7677 31.839 54.3293 31.4275C53.9111 31.0026 53.2298 30.7597 52.5282 30.7732L52.454 30.5236L52.4473 30.5574Z" fill="#64822D"/>
<path d="M58.7067 26.0716C58.9158 26.8946 59.1789 27.6838 59.5499 28.3584C59.9209 29.0329 60.3796 29.5996 60.926 29.9773C61.189 30.1797 61.4791 30.3281 61.7894 30.4495C61.931 30.5237 62.0997 30.5642 62.2616 30.6046C62.4235 30.6519 62.5651 30.6991 62.808 30.7531C63.6647 30.9689 64.5483 31.205 65.4522 31.7581C65.8907 32.0415 66.3629 32.426 66.6867 32.9454C67.0105 33.4715 67.1656 34.0247 67.2196 34.4968C67.3477 35.4345 67.2735 36.3047 67.4759 36.959C67.9346 38.4025 69.4591 39.4953 70.9296 40.0215L70.4102 40.0957C71.0646 39.4009 71.6379 38.5644 72.0696 37.7347C72.5014 36.8983 72.7982 36.0348 72.8386 35.3131C72.8589 35.1309 72.8184 34.969 72.8184 34.8071C72.7644 34.6453 72.7712 34.5508 72.6767 34.2945C72.5351 33.8493 72.3597 33.4378 72.1641 32.9926C72.0629 32.7565 71.9617 32.5271 71.847 32.1899C71.7391 31.8796 71.6312 31.4074 71.6717 30.9419C71.6784 30.6991 71.7324 30.5035 71.7796 30.2944C71.8403 30.119 71.8943 29.9166 71.9617 29.7749C72.0966 29.4579 72.2315 29.1948 72.3799 28.9452C72.67 28.4528 72.9803 28.0076 73.2366 27.6299C73.4997 27.2319 73.7695 26.8339 74.0124 26.4291C74.525 25.6264 74.9635 24.7832 75.375 23.9265C76.171 22.1997 76.7443 20.3784 76.7443 18.3277L77.0007 18.267C77.9788 20.1827 77.9383 22.5437 77.4256 24.6281C77.1828 25.6871 76.7848 26.699 76.3396 27.6838C75.9011 28.6417 75.267 29.6333 74.8151 30.3686C74.5925 30.7396 74.4238 31.1173 74.4238 31.178C74.3631 31.178 74.4508 31.549 74.6262 32.055C74.7949 32.5541 74.95 33.1005 75.0647 33.6402C75.1321 33.8695 75.1726 34.2877 75.2063 34.6183C75.1996 34.9556 75.2063 35.3131 75.1254 35.6234C74.8758 36.9185 74.1945 37.9034 73.4592 38.7128C72.7172 39.5358 71.9145 40.2036 71.0511 40.8579L70.7745 41.067L70.5317 40.9389C69.7222 40.5004 69.0206 39.9945 68.3191 39.4481C67.6445 38.8747 66.97 38.2609 66.4708 37.4244C66.201 37.0264 66.0458 36.4935 65.9042 36.1225C65.7558 35.7178 65.6141 35.3131 65.4657 34.969C65.1419 34.2473 64.8586 34.0786 64.2785 33.7683C63.6984 33.485 62.9496 33.2017 62.1806 32.9521C62.012 32.8981 61.7557 32.797 61.5128 32.7093C61.27 32.6216 61.0406 32.5137 60.818 32.372C60.3593 32.1292 59.9478 31.7919 59.5903 31.4141C58.882 30.6451 58.4503 29.7007 58.2884 28.7699C58.1265 27.8322 58.167 26.9081 58.4436 26.0446L58.7067 26.0649V26.0716Z" fill="#64822D"/>
<path d="M67.759 10.1116C68.2919 10.6715 68.6764 11.3325 68.9732 12.0341C69.2768 12.7356 69.4792 13.4979 69.5601 14.2871C69.6006 14.6851 69.6006 15.0831 69.5871 15.4878L69.5196 16.0949C69.4927 16.2838 69.4657 16.4592 69.4319 16.6413C69.3173 17.3563 69.1082 18.0916 68.926 18.6582C68.7506 19.2046 68.6427 19.778 68.6022 20.4795C68.555 21.1743 68.6022 21.8691 68.6292 22.6381C68.6495 23.3869 68.6292 24.1356 68.5011 24.8979C68.4336 25.2756 68.3324 25.6534 68.1908 26.0311C68.1166 26.22 68.0356 26.4089 67.9344 26.591C67.8198 26.7799 67.7456 26.9418 67.5364 27.1644L67.1047 27.6231L66.5516 27.0025C66.0727 26.4696 65.5398 25.9502 65.0338 25.4443C64.5212 24.9383 64.0422 24.4189 63.5431 23.9467C63.0371 23.4678 62.5582 23.0833 62.0455 22.7933C61.4789 22.483 60.8179 22.1187 60.1905 21.7342C58.9291 20.945 57.6744 20.0343 56.5681 18.9011C56.015 18.3344 55.4956 17.7138 55.1044 16.9786C54.7131 16.2703 54.4231 15.4136 54.558 14.6041L54.821 14.5704C55.1448 15.2382 55.644 15.6969 56.1634 16.1219C56.4197 16.3377 56.7165 16.5199 56.9864 16.7222C57.2899 16.9044 57.5665 17.0933 57.87 17.2686C59.0707 17.9702 60.3389 18.6043 61.6138 19.3058C62.2479 19.6768 62.882 20.0276 63.5498 20.52C63.8871 20.7561 64.2581 21.0866 64.5482 21.3699C64.8382 21.6735 65.1013 21.977 65.3509 22.2873C66.356 23.515 67.0508 24.8709 67.6714 26.274L66.6865 26.1188C66.7405 26.1053 66.8889 25.9907 66.9833 25.8962C67.0845 25.7883 67.1789 25.6736 67.2734 25.5454C67.4555 25.2959 67.5837 24.9923 67.6848 24.682C67.867 24.0614 67.894 23.3734 67.759 22.7123C67.6174 22.0715 67.3341 21.3834 67.098 20.6684C66.9766 20.3109 66.8686 19.9399 66.7944 19.5284C66.7337 19.1237 66.7 18.6717 66.7405 18.2602C66.8956 16.6615 67.4353 15.5013 67.5364 14.2736C67.6848 13.0122 67.6309 11.6563 67.523 10.1993L67.759 10.0846V10.1116Z" fill="#64822D"/>
<path d="M52.4667 49.9578C53.2829 49.7757 54.1261 49.7622 54.9761 49.8971C55.8193 50.0455 56.6894 50.349 57.418 50.9292C58.16 51.4958 58.7266 52.2918 59.0706 53.1552L59.3 53.8095C59.3742 54.0321 59.3944 54.2547 59.4484 54.4773C59.5563 54.936 59.5765 55.361 59.6035 55.786C59.6575 56.6427 59.6305 57.4994 59.5563 58.3358C59.4754 59.1723 59.3404 59.9817 59.2662 60.7035C59.2258 61.061 59.2258 61.3848 59.246 61.6344C59.2528 61.7625 59.2932 61.8368 59.3067 61.9312C59.3674 61.9784 59.3404 62.0728 59.4214 62.1201C59.59 62.3629 60.1971 62.6665 60.8649 62.8756C61.2225 62.9633 61.5597 63.0712 61.9442 63.1589L63.1045 63.422L65.4519 63.9751C66.2412 64.1775 67.0439 64.3663 67.8399 64.6564C68.6291 64.9397 69.479 65.3445 70.0524 66.073C70.6325 66.788 70.8686 67.6717 71.044 68.4474C71.2261 69.2299 71.3745 70.0191 71.5769 70.7881C71.7658 71.5639 71.9682 72.3261 72.2177 73.0749C72.4606 73.8169 72.7506 74.5522 73.1082 75.1593C73.2768 75.4696 73.5061 75.7124 73.668 75.8271C73.7085 75.8338 73.7355 75.8473 73.7625 75.8675C73.7827 75.8541 73.7895 75.8406 73.7962 75.8541C73.8164 75.8473 73.8434 75.8271 73.8637 75.8271C73.8906 75.8271 73.9379 75.7799 73.9783 75.7664C74.1537 75.6652 74.3898 75.483 74.6057 75.2267C74.8283 74.9974 75.0374 74.7073 75.233 74.4172C76.002 73.2368 76.6024 71.8202 76.825 70.4846C76.8857 70.1405 76.8992 69.8505 76.8992 69.4997C76.8992 69.1557 76.8722 68.7779 76.8385 68.4069C76.7777 67.6514 76.6833 66.8689 76.5821 66.0865C76.4809 65.2972 76.3865 64.4945 76.3123 63.6716C76.2448 62.8419 76.1841 62.0189 76.2583 61.0543C76.2786 60.8114 76.3123 60.5551 76.3865 60.2583C76.4742 59.9547 76.5417 59.6175 76.9127 59.1385C77.0341 59.0104 77.1218 58.9092 77.2904 58.7945C77.4456 58.6866 77.6682 58.5786 77.7086 58.5719C77.8638 58.5179 78.0729 58.4505 78.1943 58.4302L78.5856 58.3628L78.9228 58.3291C79.793 58.2481 80.5283 58.2211 81.2433 58.1267C81.9449 58.0323 82.5992 57.8704 83.1118 57.5938C83.6313 57.324 84.009 56.9597 84.2586 56.4268C84.3868 56.184 84.4744 55.8264 84.5756 55.4757C84.6566 55.1249 84.724 54.7741 84.7645 54.4099C84.8387 53.6814 84.8455 52.9191 84.8117 52.1366C84.7713 51.3541 84.7105 50.5447 84.7173 49.7082C84.7308 48.8785 84.8522 47.9948 85.2502 47.2528L85.493 47.3473C85.1895 48.892 85.7966 50.349 86.1406 51.9477C86.3227 52.7437 86.4711 53.5869 86.5049 54.4571C86.5184 54.8956 86.5049 55.334 86.4711 55.7725C86.4239 56.2109 86.3632 56.6427 86.1946 57.1418C85.8978 58.1132 85.1895 59.0239 84.3328 59.577C83.4761 60.1369 82.5655 60.4202 81.702 60.6158C80.8453 60.8182 79.9751 60.8991 79.2601 61.007L79.0038 61.0475L78.8014 61.0947C78.734 61.1082 78.7475 61.1217 78.7137 61.1217C78.6598 61.1352 78.8014 61.0947 78.8689 61.034C78.9498 60.9666 78.9836 60.9531 79.024 60.8924C79.1454 60.7305 79.0915 60.7844 79.0847 60.8654C79.0645 60.9598 79.051 61.1015 79.0443 61.2566C79.0038 61.8907 79.0577 62.6665 79.1117 63.4287L79.3006 65.7897C79.3613 66.5924 79.422 67.4019 79.4557 68.2451C79.4692 68.6633 79.4692 69.095 79.449 69.5469C79.422 69.9922 79.3613 70.5048 79.2534 70.9433C78.8217 72.7376 78.0324 74.2891 76.9059 75.6719C76.6159 76.0159 76.3056 76.3465 75.9346 76.65C75.577 76.9536 75.1453 77.2436 74.5787 77.4258C74.4235 77.4662 74.2886 77.5135 74.1132 77.5269C73.9311 77.5269 73.7557 77.5404 73.5803 77.5135C73.3915 77.4662 73.2026 77.4055 73.034 77.3313C72.8923 77.2369 72.7574 77.1425 72.636 77.0345C72.211 76.6096 71.9884 76.1711 71.8197 75.7596C71.1789 74.1069 71.0103 72.515 70.7 70.9365C70.5718 70.1406 70.4099 69.3581 70.2615 68.5823C70.1131 67.8066 69.877 67.105 69.4116 66.5924C68.9461 66.0865 68.2581 65.8234 67.5296 65.6547C66.7943 65.4996 66.0118 65.4254 65.2226 65.3714L62.8279 65.2298C62.4232 65.2095 62.0252 65.1691 61.6204 65.1353C61.2157 65.0949 60.7705 65.0409 60.3455 64.9667C59.9003 64.852 59.4619 64.7778 58.9897 64.5552L58.6389 64.4068C58.5175 64.3326 58.3961 64.2584 58.2746 64.1775C58.1532 64.0898 58.0385 64.0291 57.9239 63.9211C57.8092 63.8065 57.7013 63.6918 57.5933 63.5704C57.364 63.3478 57.2426 63.024 57.0942 62.7339C57.0065 62.4506 56.9188 62.1336 56.8985 61.8637C56.8446 61.3173 56.8918 60.8384 56.9458 60.4067C57.0537 59.5365 57.2358 58.781 57.337 58.0255C57.4652 57.27 57.5529 56.5347 57.5664 55.7927C57.5731 55.4217 57.5799 55.044 57.5461 54.7134C57.5326 54.5448 57.5461 54.3627 57.5056 54.194L57.4045 53.6948C57.2223 53.054 56.9458 52.4469 56.4871 51.941C55.5697 50.9292 54.0384 50.3693 52.4869 50.1871L52.46 49.9241L52.4667 49.9578Z" fill="#64822D"/>
<path d="M79.5241 105.467C79.5241 105.467 67.4496 97.3385 72.3806 92.1647C77.3116 86.9908 94.0608 85.0211 107.12 92.1647C107.12 92.1647 91.5987 97.0957 79.5241 105.467Z" fill="#64822D"/>
<path d="M107.119 92.1581C100.549 94.8023 94.0868 97.7097 87.8876 101.062C84.8049 102.742 81.7626 104.583 79.0172 106.668C76.3527 108.82 74.3425 111.713 73.0406 114.897C71.7185 118.081 71.0237 121.528 70.6999 124.989C70.3761 128.456 70.3963 131.97 70.6594 135.465C71.2193 142.446 72.5684 149.421 74.5584 156.133L73.3104 156.545C72.1907 153.131 71.3475 149.678 70.6324 146.183C69.9174 142.689 69.425 139.148 69.1417 135.586C68.8718 132.024 68.8246 128.429 69.1754 124.847C69.5464 121.272 70.2952 117.697 71.7252 114.351C73.1283 111.005 75.3071 107.916 78.1942 105.642C81.1218 103.484 84.2248 101.757 87.3884 100.125C90.5521 98.4922 93.817 97.0756 97.1021 95.74C98.748 95.0789 100.401 94.4381 102.074 93.8512C103.746 93.2576 105.419 92.6775 107.112 92.1648L107.119 92.1581Z" fill="#466E28"/>
<path d="M66.3427 88.4615C66.3427 88.4615 77.2435 73.5538 63.9413 60.0626C50.639 46.5715 0 48.2646 0 48.2646C0 48.2646 34.6992 62.7204 44.1633 68.3259C58.2075 76.6432 66.336 88.4547 66.336 88.4547L66.3427 88.4615Z" fill="#466E28"/>
<path d="M0 48.2714C11.427 52.3457 22.7056 56.8652 33.6806 62.0931C35.0567 62.7339 36.4059 63.4422 37.7685 64.1167C39.1176 64.8183 40.4667 65.5333 41.7956 66.2686C44.4533 67.7593 47.0504 69.3783 49.5462 71.1389C54.5245 74.6736 59.1991 78.6804 63.2735 83.2742C64.2988 84.4142 65.2769 85.6014 66.2078 86.8358C66.4371 87.1461 66.6665 87.4564 66.8958 87.787C67.0105 87.9421 67.1387 88.158 67.2331 88.3334L67.5164 88.8528C67.8672 89.5543 68.218 90.2491 68.5148 90.9641C69.7357 93.804 70.7071 96.7316 71.4761 99.7064C71.8808 101.19 72.1709 102.695 72.5284 104.185L73.3244 108.712L73.9112 113.272L74.2822 117.852C74.3564 118.614 74.3834 119.376 74.4037 120.145L74.4779 122.439L74.5521 124.732L74.5183 127.026C74.4914 128.557 74.4779 130.082 74.4306 131.613L74.1338 136.186L73.9854 138.473L73.7291 140.753L73.2232 145.306C72.8252 148.335 72.2923 151.344 71.8336 154.359L69.25 153.88C71.4828 142.048 72.6363 129.981 72.1169 117.973L71.8201 113.474L71.3209 109.002L70.6126 104.556C70.2889 103.093 70.0258 101.615 69.6548 100.165C68.9465 97.2577 68.0426 94.3976 66.9161 91.6454C66.6395 90.9506 66.3225 90.2896 66.0054 89.6285L65.7558 89.1428C65.6749 88.9877 65.6074 88.873 65.5062 88.7178C65.3039 88.4143 65.088 88.1107 64.8722 87.8139C63.9952 86.6132 63.0644 85.4395 62.0795 84.313C58.1738 79.7665 53.6408 75.7461 48.7907 72.1912C46.3556 70.4171 43.8192 68.7914 41.2289 67.2467C39.927 66.4844 38.6049 65.7492 37.2828 65.0207C35.9404 64.3191 34.6183 63.5838 33.2624 62.916C27.866 60.1706 22.3548 57.641 16.8032 55.2193C11.2381 52.8112 5.64604 50.4637 0 48.2512V48.2714Z" fill="#64822D"/>
<path d="M61.6407 81.8171C58.6928 81.0076 56.6692 78.2014 57.0199 75.1659C57.1886 73.7156 57.7552 73.1085 57.7619 73.0748C58.5175 71.9483 60.6828 69.8167 59.1043 67.6176C58.8412 67.105 57.1211 65.3984 59.1718 60.4404C57.2021 67.7188 61.5395 66.2011 60.8717 70.579C60.2443 74.3362 58.8277 76.0766 61.9982 81.925L61.6407 81.8238V81.8171Z" fill="#64822D"/>
<path d="M55.8058 76.0968C55.1919 75.4965 47.9674 71.8201 47.5155 71.1793C43.9673 66.0257 47.8797 65.7491 48.6757 61.5264C48.9253 60.0761 48.6015 58.9226 47.421 58.0389C51.1985 59.9345 48.4531 65.7019 48.3856 66.7003C48.0146 68.1168 49.4379 69.9111 50.7601 70.9904C51.239 71.3817 51.7045 71.7864 52.1294 72.2316L55.8125 76.1036L55.8058 76.0968Z" fill="#64822D"/>
<path d="M36.7097 56.3728C36.6355 57.216 37.074 57.9783 37.5259 58.6326C37.7688 58.9564 38.0251 59.2734 38.3152 59.5635C38.5985 59.867 38.8886 60.1031 39.2123 60.4472C39.8397 61.088 40.3658 61.9784 40.4468 63.0105C40.4873 63.5164 40.4333 64.0358 40.2916 64.5215C40.2174 64.7643 40.1297 65.0072 40.0218 65.2365C39.9071 65.4794 39.806 65.6682 39.5968 65.9381L38.2612 64.7239C38.3287 64.6766 38.4636 64.5215 38.5513 64.3933C38.6525 64.2584 38.7334 64.1167 38.8144 63.9683C38.9628 63.6715 39.0572 63.3545 39.0977 63.024C39.1719 62.3629 38.9493 61.6546 38.5175 61.0138C38.3219 60.7035 38.0184 60.346 37.7958 59.9885C37.5529 59.6309 37.3371 59.2532 37.1482 58.862C36.7974 58.0862 36.4871 57.2025 36.7165 56.3728H36.7097Z" fill="#64822D"/>
<path d="M29.3837 55.0842C29.3634 55.6913 29.613 56.2445 29.957 56.6829C30.3078 57.1416 30.7395 57.4452 31.2522 57.7757C31.5355 57.9713 31.8121 58.2142 32.0212 58.5582C32.2303 58.8955 32.3652 59.3204 32.3585 59.7387C32.3585 60.1569 32.2505 60.5549 32.1021 60.9057C31.9402 61.2699 31.7851 61.56 31.4883 61.904L30.2403 60.5616C30.3685 60.4874 30.5709 60.2918 30.699 60.1366C30.834 59.968 30.9351 59.7926 30.9958 59.6172C31.1105 59.28 31.0026 58.8617 30.6586 58.4638C30.2606 58.032 29.8086 57.4991 29.5658 56.9123C29.3095 56.3321 29.2083 55.6643 29.3837 55.0842Z" fill="#64822D"/>
<path d="M141.92 110.702C140.348 109.582 138.547 108.84 136.732 108.226C134.911 107.626 133.036 107.174 131.14 106.884C127.356 106.243 123.504 106.115 119.679 106.29C117.764 106.445 115.841 106.452 114.006 106.85C112.158 107.221 110.35 107.814 108.617 108.563C106.876 109.312 105.203 110.216 103.598 111.228C102.795 111.734 102.013 112.267 101.251 112.826C100.866 113.103 100.495 113.393 100.131 113.683C99.9554 113.825 99.7463 113.987 99.6249 114.115L99.119 114.607C93.7495 120.031 89.1153 126.223 85.358 132.841C81.6479 139.478 78.8957 146.716 78.0998 154.231L76.1436 154.028C76.9868 146.163 79.8671 138.682 83.7593 131.93C85.6953 128.537 87.9078 125.319 90.3025 122.25C92.7107 119.188 95.2807 116.267 98.0869 113.548L98.6265 113.042C98.8559 112.826 99.0313 112.705 99.2336 112.543C99.6249 112.24 100.023 111.95 100.421 111.666C101.224 111.1 102.047 110.567 102.89 110.061C104.576 109.056 106.33 108.172 108.151 107.437C109.973 106.701 111.868 106.135 113.811 105.798C115.767 105.433 117.723 105.467 119.652 105.373C123.531 105.325 127.43 105.595 131.235 106.378C133.137 106.742 135.005 107.302 136.82 107.983C138.621 108.685 140.395 109.514 141.92 110.708V110.702Z" fill="#64822D"/>
<path d="M64.7378 107.437C64.7378 107.437 68.7716 96.5967 59.483 89.6959C50.1943 82.7952 29.3438 86.249 29.3438 86.249C29.3438 86.249 33.7823 98.1684 45.6883 101.204C57.5875 104.239 64.7378 107.444 64.7378 107.444V107.437Z" fill="#64822D"/>
<path d="M29.7481 85.7228C32.6082 87.7869 35.8124 89.5273 39.0435 91.0653C42.3151 92.5628 45.6879 93.8377 49.1282 94.8765C50.855 95.4094 52.5819 95.8142 54.3627 96.3403C56.1301 96.8395 57.8637 97.5275 59.5231 98.3842C61.169 99.2544 62.7272 100.415 63.9212 101.953C65.0679 103.518 65.8235 105.487 65.3648 107.619L65.3917 107.504L63.0038 131.431L61.8571 143.397L60.7778 155.371L58.1875 155.087L59.7322 143.161L61.2162 131.228L64.0831 107.356V107.302L64.1101 107.241C64.191 106.951 64.218 106.492 64.1978 106.115C64.1775 105.717 64.1101 105.312 64.0021 104.921C63.8133 104.125 63.3748 103.396 62.9094 102.708C61.884 101.373 60.4877 100.286 58.943 99.4568C55.8468 97.7366 52.3188 97.0216 48.7976 95.9828C45.2967 94.9372 41.8767 93.6421 38.5511 92.1311C35.2255 90.5931 32.0011 88.9134 28.9521 86.7751L29.7414 85.7295L29.7481 85.7228Z" fill="#466E28"/>
<path d="M78.5657 177.847H64.5281C58.4841 177.847 53.4654 173.179 53.0337 167.149L50.5176 132.018H92.5695L90.0534 167.149C89.6217 173.179 84.603 177.847 78.5589 177.847H78.5657Z" fill="#BCAD9B"/>
<path d="M94.2626 132.018H48.8379V147.296H94.2626V132.018Z" fill="#D6CABA"/>
</g>
</svg>
