<svg width="17" height="17" viewBox="0 0 17 17" fill="none" xmlns="http://www.w3.org/2000/svg">
<path d="M10.4088 16.2301C10.5851 16.4064 10.5851 16.6917 10.4088 16.8674C10.3206 16.955 10.2048 16.9994 10.0901 16.9994C9.97542 16.9994 9.86075 16.9556 9.772 16.8674L8.5019 15.5968L7.23064 16.8674C7.0543 17.0432 6.76905 17.042 6.59386 16.8674C6.41752 16.6911 6.41752 16.4058 6.59386 16.2301L8.5019 14.3226L10.4088 16.2301ZM8.50075 2.67733L10.4099 0.7693C10.5857 0.593537 10.5857 0.307707 10.4099 0.131944C10.2336 -0.0438186 9.94776 -0.0438186 9.772 0.131944L8.50075 1.40435L7.23064 0.13252C7.05546 -0.0432423 6.7702 -0.0443949 6.59386 0.13252C6.41695 0.308283 6.41695 0.593537 6.59386 0.7693L8.50075 2.67733ZM0.770643 6.44039C0.59488 6.26462 0.30905 6.26462 0.133287 6.44039C-0.0424758 6.6173 -0.0424758 6.90198 0.133287 7.07774L1.40569 8.349L0.133287 9.6214C-0.0424758 9.79716 -0.0424758 10.0818 0.133287 10.2576C0.22088 10.3452 0.336134 10.3896 0.451389 10.3896C0.566643 10.3896 0.681897 10.3464 0.76949 10.2576L2.67752 8.34842L0.770643 6.44039ZM15.5952 8.34957L16.8676 7.07717C17.0434 6.9014 17.0434 6.61615 16.8676 6.44039C16.6913 6.26462 16.406 6.26462 16.2308 6.44039L14.3211 8.349L16.2308 10.2582C16.3184 10.3458 16.4343 10.3896 16.5489 10.3896C16.6642 10.3896 16.7789 10.3469 16.8676 10.2582C17.0434 10.0813 17.0434 9.79659 16.8676 9.6214L15.5952 8.34957ZM15.7675 12.7033C15.7675 12.9517 15.5653 13.1534 15.3175 13.1534L13.7898 13.1528L15.1855 14.5485C15.3624 14.7243 15.3624 15.0095 15.1855 15.1847C15.0979 15.2723 14.9821 15.3167 14.8674 15.3167C14.7521 15.3167 14.6375 15.2735 14.5493 15.1847L13.1536 13.7896V15.3167C13.1536 15.5656 12.9513 15.7668 12.7035 15.7668C12.4545 15.7668 12.2534 15.5651 12.2534 15.3167V12.8889L11.0306 11.666C10.3973 12.1737 9.61064 12.4901 8.75085 12.5425L11.0346 14.8286C11.2109 15.0044 11.2109 15.289 11.0346 15.4648C10.947 15.5524 10.8312 15.5973 10.7171 15.5973C10.6013 15.5973 10.486 15.5535 10.3984 15.4648L8.49844 13.5643L6.5979 15.4648C6.42214 15.6406 6.1363 15.6406 5.96054 15.4648C5.78478 15.2885 5.78478 15.0038 5.96054 14.8286L8.24488 12.5425C7.38854 12.4884 6.60424 12.1714 5.97264 11.666L4.7498 12.8889V15.3155C4.7498 15.5645 4.5481 15.7656 4.29973 15.7656C4.05135 15.7656 3.84966 15.5651 3.84966 15.3161V13.7901L2.45393 15.1853C2.36634 15.2729 2.25108 15.3173 2.13583 15.3173C2.02115 15.3173 1.9059 15.274 1.8183 15.1853C1.64254 15.0095 1.64254 14.7243 1.8183 14.5491L3.21461 13.1528H1.68519C1.43681 13.1528 1.23512 12.9505 1.23512 12.7027C1.23512 12.4538 1.43681 12.2527 1.68519 12.2527H4.11474L5.33644 11.0304C4.83163 10.3988 4.51352 9.61449 4.45993 8.75873L2.17502 11.0431C2.08742 11.1307 1.97217 11.175 1.85691 11.175C1.74224 11.175 1.62641 11.1312 1.53939 11.0431C1.36363 10.8667 1.36363 10.5815 1.53939 10.4057L3.43993 8.50517L1.53824 6.60405C1.36247 6.42828 1.36247 6.14361 1.53824 5.96727C1.714 5.7915 1.99983 5.7915 2.17559 5.96727L4.46051 8.25218C4.51295 7.39181 4.83105 6.6052 5.33875 5.97188L4.11532 4.74788L1.68749 4.74672C1.43854 4.74672 1.23742 4.54503 1.23742 4.29666C1.23742 4.04828 1.43912 3.84659 1.68749 3.84659L3.21519 3.84716L1.81946 2.45086C1.64369 2.2751 1.64369 1.98984 1.81946 1.81408C1.99522 1.63832 2.28047 1.63832 2.45624 1.81408L3.85139 3.20923V1.68154C3.85139 1.43316 4.05308 1.23147 4.30146 1.23147C4.55041 1.23147 4.75152 1.43316 4.75152 1.68154V4.10994L5.97437 5.33279C6.60597 4.82683 7.39027 4.50988 8.24776 4.45628L5.9663 2.17425C5.79054 1.99849 5.79054 1.71323 5.9663 1.53747C6.14207 1.36171 6.4279 1.36171 6.60366 1.53747L8.50478 3.43801L10.4053 1.53747C10.5811 1.36171 10.8663 1.36171 11.0421 1.53747C11.2179 1.71323 11.2179 1.99906 11.0421 2.17483L8.76122 4.45571C9.61871 4.5093 10.4013 4.8274 11.0335 5.33222L12.2557 4.10937V1.68269C12.2557 1.43374 12.458 1.23262 12.7058 1.23262C12.9547 1.23262 13.1559 1.43432 13.1559 1.68269V3.20923L14.5516 1.81408C14.7279 1.63832 15.0138 1.63832 15.1895 1.81408C15.3653 1.99042 15.3653 2.2751 15.1895 2.45086L13.7926 3.84716H15.3203C15.5693 3.84716 15.7704 4.04886 15.7704 4.29723C15.7704 4.54618 15.5687 4.7473 15.3203 4.7473H12.8919L11.6691 5.96957C12.1751 6.60117 12.4937 7.38489 12.5473 8.24239L14.8282 5.96093C15.004 5.78516 15.2904 5.78516 15.4656 5.96093C15.6419 6.13669 15.6419 6.42252 15.4656 6.59828L13.5616 8.4994L15.4633 10.4005C15.6396 10.5763 15.6396 10.8621 15.4633 11.0373C15.3757 11.1255 15.2604 11.1698 15.1452 11.1698C15.0293 11.1698 14.9146 11.126 14.8265 11.0373L12.5456 8.75584C12.4908 9.61333 12.1733 10.3976 11.6679 11.0292L12.8896 12.2515L15.318 12.2527C15.5664 12.2532 15.7675 12.4544 15.7675 12.7033Z" fill="#A5C693"/>
</svg>
