<svg width="44" height="45" viewBox="0 0 44 45" fill="none" xmlns="http://www.w3.org/2000/svg">
<path d="M22 0.71875C16.1652 0.71875 10.5695 3.0366 6.44365 7.1624C2.31785 11.2882 0 16.884 0 22.7188C0 28.5535 2.31785 34.1493 6.44365 38.2751C10.5695 42.4009 16.1652 44.7188 22 44.7188C27.8348 44.7188 33.4305 42.4009 37.5564 38.2751C41.6822 34.1493 44 28.5535 44 22.7188C44 16.884 41.6822 11.2882 37.5564 7.1624C33.4305 3.0366 27.8348 0.71875 22 0.71875ZM31.625 21.3438C31.9897 21.3438 32.3394 21.4886 32.5973 21.7465C32.8551 22.0043 33 22.3541 33 22.7188C33 23.0834 32.8551 23.4332 32.5973 23.691C32.3394 23.9489 31.9897 24.0938 31.625 24.0938H15.6943L21.5985 29.9953C21.7263 30.1231 21.8278 30.2749 21.8969 30.4419C21.9661 30.6089 22.0017 30.788 22.0017 30.9688C22.0017 31.1495 21.9661 31.3286 21.8969 31.4956C21.8278 31.6626 21.7263 31.8144 21.5985 31.9423C21.4707 32.0701 21.3189 32.1715 21.1519 32.2407C20.9848 32.3099 20.8058 32.3455 20.625 32.3455C20.4442 32.3455 20.2652 32.3099 20.0981 32.2407C19.9311 32.1715 19.7793 32.0701 19.6515 31.9423L11.4015 23.6923C11.2735 23.5645 11.1719 23.4128 11.1025 23.2457C11.0332 23.0787 10.9975 22.8996 10.9975 22.7188C10.9975 22.5379 11.0332 22.3588 11.1025 22.1918C11.1719 22.0247 11.2735 21.873 11.4015 21.7453L19.6515 13.4952C19.7793 13.3674 19.9311 13.266 20.0981 13.1968C20.2652 13.1276 20.4442 13.092 20.625 13.092C20.8058 13.092 20.9848 13.1276 21.1519 13.1968C21.3189 13.266 21.4707 13.3674 21.5985 13.4952C21.7263 13.6231 21.8278 13.7749 21.8969 13.9419C21.9661 14.1089 22.0017 14.288 22.0017 14.4688C22.0017 14.6495 21.9661 14.8286 21.8969 14.9956C21.8278 15.1626 21.7263 15.3144 21.5985 15.4423L15.6943 21.3438H31.625Z" fill="#3A6431"/>
</svg>
