<svg width="12" height="10" viewBox="0 0 12 10" fill="none" xmlns="http://www.w3.org/2000/svg">
<path fill-rule="evenodd" clip-rule="evenodd" d="M0 9.5C0 9.22386 0.223858 9 0.5 9H7.5C7.77614 9 8 9.22386 8 9.5C8 9.77614 7.77614 10 7.5 10H0.5C0.223858 10 0 9.77614 0 9.5Z" fill="black"/>
<path fill-rule="evenodd" clip-rule="evenodd" d="M0 6.5C0 6.22386 0.223858 6 0.5 6H11.5C11.7761 6 12 6.22386 12 6.5C12 6.77614 11.7761 7 11.5 7H0.5C0.223858 7 0 6.77614 0 6.5Z" fill="black"/>
<path fill-rule="evenodd" clip-rule="evenodd" d="M0 3.5C0 3.22386 0.223858 3 0.5 3H11.5C11.7761 3 12 3.22386 12 3.5C12 3.77614 11.7761 4 11.5 4H0.5C0.223858 4 0 3.77614 0 3.5Z" fill="black"/>
<path fill-rule="evenodd" clip-rule="evenodd" d="M0 0.5C0 0.223858 0.223858 0 0.5 0H11.5C11.7761 0 12 0.223858 12 0.5C12 0.776142 11.7761 1 11.5 1H0.5C0.223858 1 0 0.776142 0 0.5Z" fill="black"/>
</svg>
