<svg width="6" height="18" viewBox="0 0 6 18" fill="none" xmlns="http://www.w3.org/2000/svg">
<path d="M5.28818 15.0394H4.01683V2.96061H5.28818C5.63787 2.96061 5.86033 2.88793 5.95556 2.74238C6.05101 2.59691 5.99268 2.42203 5.78085 2.2174L3.77856 0.306679C3.56673 0.102212 3.30693 0 2.99993 0C2.69293 0 2.4333 0.102212 2.22152 0.306679L0.219178 2.21744C0.00773998 2.42203 -0.050532 2.59696 0.0443062 2.74242C0.139144 2.88798 0.361994 2.96065 0.711682 2.96065H1.9832V15.0394H0.711682C0.361994 15.0394 0.139534 15.1121 0.0443062 15.2579C-0.0509216 15.4032 0.00735039 15.5782 0.219178 15.7826L2.22152 17.6935C2.43335 17.8979 2.69299 18 2.99993 18C3.30699 18 3.56679 17.8979 3.77856 17.6935L5.78091 15.7826C5.99257 15.5782 6.05084 15.4032 5.95561 15.2579C5.86038 15.1121 5.63793 15.0394 5.28818 15.0394Z" fill="#A5C693"/>
</svg>
