<svg width="13" height="19" viewBox="0 0 13 19" fill="none" xmlns="http://www.w3.org/2000/svg">
<path d="M6.50051 0C3.23423 0 0.586426 2.64781 0.586426 5.91373C0.586426 6.12859 0.61959 6.42283 0.658045 6.69378C0.7152 7.09386 0.907479 7.71657 1.06271 8.08948C1.76586 9.77836 3.54929 14.1722 3.77685 15.8311C3.77685 15.8311 3.51683 16.2516 3.56093 16.8691C3.61209 17.5881 3.77685 18.0728 3.77685 18.0728C3.77685 18.2076 3.88587 18.3166 4.02028 18.3166H5.26498C5.40963 18.7142 5.78714 19 6.2352 19C6.68326 19 7.06076 18.7142 7.20541 18.3166H8.56513C8.6999 18.3166 8.81738 18.2072 8.81738 18.0728C8.81738 18.0728 8.99943 17.4716 9.01425 16.9424C9.02907 16.4132 8.81738 15.8311 8.81738 15.8311C9.046 14.1673 11.1036 9.75155 11.9034 8.07396C12.0773 7.70916 12.2848 7.09351 12.3419 6.69343C12.3804 6.42248 12.4135 6.12824 12.4135 5.91373C12.4146 2.64781 9.76678 0 6.50051 0ZM10.8506 6.58441C10.8079 6.88253 10.6534 7.34083 10.5239 7.61249C10.0561 8.594 9.01002 10.8343 8.50056 12.3507C8.50056 12.3507 8.25995 13.6994 6.50051 13.6994C4.59924 13.6994 4.20551 12.2935 4.20551 12.2935C3.74721 10.7853 2.85814 8.59929 2.45171 7.62413C2.33634 7.34647 2.1931 6.88289 2.15041 6.58512C2.12184 6.38331 2.09714 6.16422 2.09714 6.0044C2.09714 3.57286 4.06862 1.60139 6.50051 1.60139C8.93275 1.60139 10.9039 3.57286 10.9039 6.0044C10.9039 6.16387 10.8792 6.38261 10.8506 6.58441Z" fill="#A5C693"/>
</svg>
