<svg width="105" height="50" viewBox="0 0 105 50" fill="none" xmlns="http://www.w3.org/2000/svg">
<path d="M54.7384 7.71973C54.562 8.96795 54.8119 12.4006 54.959 13.9608C55.253 13.4408 55.8411 12.2965 55.8411 10.8403C55.8411 9.38403 55.253 7.28632 54.959 6.41949C54.959 6.33281 54.9149 6.4715 54.7384 7.71973Z" fill="#EB9229"/>
<path d="M44.9927 14.0119C40.8057 10.538 35.3558 8.65237 33.1543 8.1438C35.4804 8.37852 41.2044 9.59908 45.4912 12.6035C49.7779 15.608 50.6835 19.8017 50.6004 21.523C50.4758 20.4668 49.1798 17.4858 44.9927 14.0119Z" fill="#417160"/>
<path d="M48.1651 23.2682C47.0703 22.0688 44.2482 19.4541 41.718 18.5906C38.5553 17.5111 35.1493 16.1918 32.4731 13.0734C29.7969 9.95495 27.4857 6.71659 26.7559 2.7586C27.2424 3.23836 29.0184 4.26983 32.2298 4.55769C36.244 4.91751 38.312 4.43775 42.3262 5.99696C45.5376 7.24433 48.1246 9.4752 49.0166 10.4347C49.5032 8.75556 51.3278 5.01346 54.7338 3.47824C58.1399 1.94301 63.8571 0.519737 66.29 0C65.6818 0.879554 64.514 3.09443 64.7086 4.91751C64.9519 7.19635 63.0056 12.9534 63.0056 12.9534C63.5327 12.7535 65.0005 12.3537 66.6549 12.3537C68.7183 12.3537 71.3872 12.1149 72.124 11.399C72.1257 11.3972 72.1273 11.3956 72.1289 11.3942C72.1272 11.3958 72.1256 11.3974 72.124 11.399C72.031 11.4985 71.7336 12.2658 70.0609 14.0329C68.3579 15.832 68.2363 17.8709 67.3848 18.9504C66.5333 20.0298 66.0467 20.7495 63.8571 20.8694C61.6675 20.9894 60.3294 20.5096 58.0182 21.5891C56.1692 22.4526 55.0582 23.0683 54.7338 23.2682C55.1799 22.8284 56.5342 21.733 58.3832 20.8694C60.6944 19.79 61.3026 19.9099 62.2757 20.0298C63.2489 20.1498 64.9519 20.8694 66.29 18.8305C67.6281 16.7915 67.6281 16.0719 68.6012 14.7525C69.3797 13.6971 69.8987 13.1134 70.0609 12.9534C68.8445 12.8735 65.998 12.8815 64.3437 13.5531C62.2757 14.3927 61.3026 14.9924 59.3563 16.9114C57.7993 18.4466 55.6259 20.1098 54.7338 20.7495C54.896 20.2697 55.3664 19.1423 55.9503 18.4706C56.6801 17.6311 59.3563 15.5921 60.4511 14.3927C61.5459 13.1933 62.7623 10.9145 63.0056 9.59514C63.2489 8.2758 63.2489 6.71659 63.3705 4.91751C63.4678 3.47824 63.8977 2.07895 64.1004 1.55921C62.3568 1.95901 58.4561 2.97449 56.8018 3.83805C54.7338 4.91751 52.4226 6.47672 51.5711 8.03593C50.7196 9.59514 49.9898 11.2743 50.1114 12.1139C50.233 12.9534 51.4495 15.712 51.3278 17.8709C51.0034 16.7515 50.0141 14.1048 48.6517 12.4737C46.9487 10.4347 44.8807 8.2758 41.9613 7.43623C39.0418 6.59666 37.0956 6.23684 34.2978 6.23684C32.0595 6.23684 29.6348 5.59716 28.7022 5.27732C29.3915 6.67662 31.1837 9.859 32.838 11.3942C34.906 13.3133 36.7306 14.9924 40.2583 16.3117C43.7859 17.6311 47.6785 20.6295 48.1651 23.2682Z" fill="#417160"/>
<path d="M57.5377 7.79461C56.8446 9.00456 56.5063 10.3153 56.4238 10.8195C56.9189 9.60953 57.7853 9.77241 58.1566 10.0051C57.1664 10.0982 56.5889 11.5175 56.4238 12.2156C56.7951 11.7502 57.8843 10.7729 59.2705 10.5868C60.6567 10.4006 61.8283 9.03558 62.2409 8.37632C61.2507 9.02782 58.9404 9.26826 57.909 9.30704C58.4041 8.74861 59.353 6.35974 59.7655 5.23511C59.3117 5.58413 58.2308 6.58466 57.5377 7.79461Z" fill="#EB9229"/>
<path d="M57.8715 12.6035C56.6179 12.8251 55.608 13.9886 55.2598 14.5426C55.7386 14.2656 57.1663 13.6839 59.0468 13.5731C60.9272 13.4622 61.5715 12.2342 61.6585 11.634C61.0056 12.465 59.4385 12.3265 57.8715 12.6035Z" fill="#EB9229"/>
<path d="M61.0762 17.8103C60.3316 18.9985 58.4391 20.7807 57.5859 21.5233C58.284 21.152 59.7964 20.3104 60.2618 19.9144C60.8435 19.4193 62.1232 19.1718 63.2866 19.2955C64.2174 19.3946 65.3032 18.7592 65.7298 18.4292C65.4971 18.5529 64.8223 18.7262 63.9847 18.4292C63.147 18.1321 61.464 18.883 60.7271 19.2955C60.7271 19.0068 60.9831 18.3302 62.0069 17.9341C63.0307 17.5381 63.752 16.2839 63.9847 15.7063C63.3254 15.9126 61.8208 16.6222 61.0762 17.8103Z" fill="#EB9229"/>
<path d="M44.7442 17.5866C43.7302 15.9546 41.2487 14.1016 40.1348 13.3792C41.9786 14.2716 43.5919 14.9091 45.8966 17.969C47.7404 20.417 47.8172 22.1339 47.6252 22.6864C47.0874 21.6665 45.7583 19.2185 44.7442 17.5866Z" fill="#EB9229"/>
<path d="M47.6095 31.5053C48.2003 31.58 48.6994 31.7192 49.1069 31.923C49.5211 32.1267 49.8369 32.3881 50.0542 32.7073C50.2715 33.0197 50.4242 33.3558 50.5125 33.7157C50.6076 34.0756 50.6551 34.4864 50.6551 34.9482C50.6551 35.3692 50.6076 35.7665 50.5125 36.14C50.4175 36.5135 50.2545 36.8734 50.0236 37.2197C49.7995 37.5592 49.5143 37.8546 49.168 38.1059C48.8284 38.3504 48.3938 38.5473 47.8642 38.6967C47.3413 38.8393 46.7471 38.9106 46.0816 38.9106H40.8867V24.7214H46.0816C46.7946 24.7214 47.4262 24.8267 47.9762 25.0372C48.5262 25.2409 48.9609 25.5159 49.28 25.8623C49.5992 26.2086 49.8369 26.5855 49.993 26.9929C50.156 27.4004 50.2375 27.8282 50.2375 28.2764C50.2375 29.9605 49.3615 30.9247 47.6095 31.1692V31.5053ZM42.9749 26.8096V30.3543H46.0816C46.8489 30.3543 47.3854 30.2185 47.691 29.9469C47.9966 29.6752 48.1494 29.2203 48.1494 28.5819C48.1494 27.9436 47.9966 27.4886 47.691 27.217C47.3854 26.9454 46.8489 26.8096 46.0816 26.8096H42.9749ZM46.0816 36.8224C47.0187 36.8224 47.6672 36.6663 48.0271 36.3539C48.387 36.0415 48.567 35.4677 48.567 34.6324C48.567 33.7972 48.387 33.2234 48.0271 32.911C47.6672 32.5986 47.0187 32.4425 46.0816 32.4425H42.9749V36.8224H46.0816Z" fill="#EB9229"/>
<path d="M35.601 37.9633C34.5417 38.5948 33.3058 38.9106 31.8933 38.9106C30.4808 38.9106 29.2449 38.5948 28.1856 37.9633C27.1262 37.325 26.3249 36.4761 25.7817 35.4168C25.2384 34.3506 24.9668 33.1521 24.9668 31.8211C24.9668 30.8297 25.1264 29.9027 25.4455 29.0403C25.7647 28.1779 26.2129 27.4275 26.7901 26.7892C27.3741 26.1441 28.1041 25.6382 28.9801 25.2715C29.8629 24.9048 30.834 24.7214 31.8933 24.7214C32.9526 24.7214 33.9203 24.9048 34.7963 25.2715C35.6791 25.6382 36.4091 26.1441 36.9863 26.7892C37.5703 27.4275 38.0219 28.1779 38.3411 29.0403C38.6602 29.9027 38.8198 30.8297 38.8198 31.8211C38.8198 33.1521 38.5482 34.3506 38.0049 35.4168C37.4617 36.4761 36.6604 37.325 35.601 37.9633ZM27.0549 31.8211C27.0549 35.1553 28.6677 36.8224 31.8933 36.8224C35.1189 36.8224 36.7317 35.1553 36.7317 31.8211C36.7317 28.4801 35.1189 26.8096 31.8933 26.8096C28.6677 26.8096 27.0549 28.4801 27.0549 31.8211Z" fill="#EB9229"/>
<path d="M23.0913 24.7214V38.9106H21.0032V26.8096H15.7676C15.7744 27.7874 15.771 28.6227 15.7574 29.3153C15.7438 30.0012 15.7031 30.7991 15.6352 31.7091C15.574 32.619 15.4824 33.3864 15.3601 34.0111C15.2447 34.6358 15.0749 35.281 14.8508 35.9464C14.6267 36.6051 14.3551 37.1348 14.036 37.5355C13.7236 37.9361 13.3263 38.2655 12.8442 38.5235C12.3688 38.7816 11.829 38.9106 11.2246 38.9106V36.8224C11.4487 36.8224 11.6558 36.7783 11.846 36.69C12.0361 36.6017 12.2025 36.4693 12.3451 36.2928C12.4945 36.1094 12.6303 35.9057 12.7525 35.6816C12.8747 35.4507 12.9766 35.1689 13.0581 34.8362C13.1464 34.5034 13.2245 34.1707 13.2924 33.8379C13.3603 33.4984 13.4146 33.1011 13.4554 32.6462C13.4961 32.1844 13.53 31.7498 13.5572 31.3424C13.5912 30.9281 13.6149 30.4494 13.6285 29.9061C13.6421 29.3561 13.6489 28.8536 13.6489 28.3986C13.6557 27.9436 13.6591 27.4139 13.6591 26.8096V24.7214H23.0913Z" fill="#EB9229"/>
<path d="M9.13688 26.8096H2.08814V30.5682H7.47655V32.6564H2.08814V36.8224H9.13688V38.9106H0V24.7214H9.13688V26.8096Z" fill="#EB9229"/>
<path d="M101.598 38.9106L97.4724 32.8601H95.5676V38.9106H93.4795V24.7214H95.5676V30.7719H96.0464C96.4334 30.7719 96.7798 30.704 97.0853 30.5682C97.3977 30.4256 97.6592 30.2389 97.8697 30.008C98.087 29.7771 98.2873 29.5089 98.4707 29.2033C98.654 28.8977 98.8272 28.5785 98.9901 28.2458C99.1599 27.9131 99.3297 27.5803 99.4994 27.2476C99.676 26.9148 99.8763 26.5957 100.1 26.2901C100.331 25.9845 100.586 25.7163 100.864 25.4854C101.15 25.2545 101.496 25.0712 101.903 24.9353C102.318 24.7927 102.779 24.7214 103.289 24.7214V26.8096C102.908 26.8096 102.576 26.8945 102.29 27.0642C102.005 27.2272 101.778 27.4411 101.608 27.7059C101.438 27.9708 101.262 28.2798 101.078 28.6329C100.902 28.986 100.739 29.3323 100.589 29.6718C100.447 30.0114 100.246 30.3611 99.9884 30.721C99.7371 31.0741 99.4519 31.3695 99.1327 31.6072L104.124 38.9106H101.598Z" fill="#417160"/>
<path d="M85.8805 24.7214C86.9738 24.7214 87.8906 24.8369 88.6307 25.0678C89.3709 25.2986 89.9379 25.645 90.3318 26.1067C90.7325 26.5617 91.0109 27.0744 91.1671 27.6448C91.3232 28.2085 91.4013 28.8909 91.4013 29.6922C91.4013 30.3238 91.3538 30.8806 91.2587 31.3627C91.1705 31.8449 91.0007 32.2998 90.7494 32.7277C90.505 33.1555 90.179 33.5086 89.7716 33.787C89.3641 34.0586 88.8345 34.2759 88.1826 34.4389C87.5306 34.5951 86.7633 34.6732 85.8805 34.6732H83.0793V38.9106H80.9912V24.7214H85.8805ZM85.8805 32.5851C86.6139 32.5851 87.1945 32.5443 87.6223 32.4628C88.0501 32.3813 88.3965 32.2251 88.6613 31.9943C88.9261 31.7634 89.1027 31.4714 89.191 31.1183C89.2792 30.7652 89.3234 30.2898 89.3234 29.6922C89.3234 29.0811 89.2792 28.5989 89.191 28.2458C89.1027 27.8927 88.9261 27.6041 88.6613 27.38C88.3965 27.1491 88.0501 26.9963 87.6223 26.9216C87.2013 26.8469 86.6207 26.8096 85.8805 26.8096H83.0793V32.5851H85.8805Z" fill="#417160"/>
<path d="M76.9268 38.9106L75.9082 35.6816H70.1022L69.0836 38.9106H66.8936L71.355 24.7214H74.6553L79.1168 38.9106H76.9268ZM70.7541 33.5935H75.2563L73.1682 26.9827H72.8422L70.7541 33.5935Z" fill="#417160"/>
<path d="M65.0094 24.7214V38.9106H62.9213V26.8096H55.2512V38.9106H53.1631V24.7214H65.0094Z" fill="#417160"/>
<path d="M83.7334 48.4683H84.2427V49.8754H83.6126V49.0984H81.2272V49.8754H80.5947V48.4683H80.9737C81.0259 48.4051 81.0724 48.334 81.1135 48.2551C81.1546 48.1761 81.1893 48.0861 81.2177 47.985C81.2462 47.8824 81.2706 47.786 81.2912 47.696C81.3133 47.6044 81.3306 47.4907 81.3433 47.3549C81.3559 47.2175 81.3654 47.1014 81.3717 47.0067C81.3796 46.9104 81.3851 46.7801 81.3883 46.6158C81.3914 46.45 81.393 46.3205 81.393 46.2273C81.3946 46.1342 81.3954 45.9968 81.3954 45.8152V45.7986H83.7334V48.4683ZM81.6536 48.4683H83.1033V46.4311H82.0279C82.0247 46.668 82.0176 46.8772 82.0066 47.0588C81.9971 47.2404 81.9789 47.4236 81.9521 47.6084C81.9268 47.7932 81.8889 47.9574 81.8384 48.1011C81.7894 48.2448 81.7278 48.3672 81.6536 48.4683Z" fill="#417160"/>
<path d="M78.0818 49.0984L77.8923 48.4683H76.625L76.4378 49.0984H75.7627L76.7718 45.7986H77.7478L78.7498 49.0984H78.0818ZM76.8145 47.8382H77.7028L77.2953 46.4927H77.2172L76.8145 47.8382Z" fill="#417160"/>
<path d="M71.2802 47.94C71.2471 47.7837 71.2305 47.6202 71.2305 47.4497C71.2305 47.2791 71.2471 47.1165 71.2802 46.9617C71.3134 46.8053 71.3679 46.6561 71.4437 46.514C71.5195 46.3703 71.6134 46.2463 71.7256 46.1421C71.8393 46.0378 71.9806 45.9549 72.1496 45.8933C72.3201 45.8302 72.5104 45.7986 72.7205 45.7986C72.9447 45.7986 73.1469 45.8325 73.3269 45.9004C73.5069 45.9668 73.6538 46.0584 73.7675 46.1752C73.8812 46.2905 73.9689 46.4232 74.0304 46.5732C74.0936 46.7216 74.1291 46.8827 74.137 47.0564H73.5069C73.4643 46.8243 73.3877 46.6624 73.2772 46.5708C73.1682 46.4777 72.9826 46.4311 72.7205 46.4311C72.5689 46.4311 72.4417 46.4469 72.3391 46.4784C72.238 46.5084 72.1504 46.5621 72.0761 46.6395C72.0019 46.7153 71.9474 46.8196 71.9127 46.9522C71.8795 47.0849 71.863 47.2507 71.863 47.4497C71.863 47.6487 71.8795 47.8145 71.9127 47.9471C71.9474 48.0798 72.0019 48.1848 72.0761 48.2622C72.1504 48.338 72.238 48.3917 72.3391 48.4233C72.4417 48.4533 72.5689 48.4683 72.7205 48.4683C72.9826 48.4683 73.1682 48.4225 73.2772 48.3309C73.3877 48.2377 73.4643 48.075 73.5069 47.8429H74.137C74.1291 48.0166 74.0936 48.1785 74.0304 48.3285C73.9689 48.477 73.8812 48.6096 73.7675 48.7265C73.6538 48.8418 73.5069 48.9326 73.3269 48.9989C73.1469 49.0652 72.9447 49.0984 72.7205 49.0984C72.5104 49.0984 72.3201 49.0676 72.1496 49.006C71.9806 48.9444 71.8393 48.8615 71.7256 48.7573C71.6134 48.6515 71.5195 48.5275 71.4437 48.3854C71.3679 48.2432 71.3134 48.0948 71.2802 47.94Z" fill="#417160"/>
<path d="M64.7047 45.3155C64.6226 45.3155 64.5476 45.3092 64.4797 45.2966C64.4117 45.284 64.3454 45.2611 64.2807 45.2279C64.2175 45.1932 64.1638 45.1489 64.1196 45.0952C64.077 45.0415 64.0422 44.9721 64.0154 44.8868C63.9901 44.7999 63.9775 44.6996 63.9775 44.5859H64.4133C64.4133 44.6981 64.4378 44.7747 64.4868 44.8157C64.5373 44.8568 64.6099 44.8773 64.7047 44.8773C64.7994 44.8773 64.8713 44.8568 64.9203 44.8157C64.9708 44.7747 64.9961 44.6981 64.9961 44.5859H65.4319C65.4319 45.0723 65.1895 45.3155 64.7047 45.3155ZM65.4556 45.7988H66.0881V49.0986H65.4556V47.0211H65.3798L63.9538 49.0986H63.3213V45.7988H63.9538V47.8763H64.0296L65.4556 45.7988Z" fill="#417160"/>
<path d="M60.7328 48.8781C60.4865 49.025 60.1991 49.0984 59.8706 49.0984C59.5421 49.0984 59.2547 49.025 59.0083 48.8781C58.762 48.7296 58.5756 48.5322 58.4493 48.2859C58.3229 48.0379 58.2598 47.7592 58.2598 47.4497C58.2598 47.2191 58.2969 47.0035 58.3711 46.803C58.4453 46.6024 58.5496 46.4279 58.6838 46.2795C58.8196 46.1294 58.9894 46.0118 59.1931 45.9265C59.3984 45.8412 59.6242 45.7986 59.8706 45.7986C60.1169 45.7986 60.342 45.8412 60.5457 45.9265C60.751 46.0118 60.9208 46.1294 61.055 46.2795C61.1908 46.4279 61.2958 46.6024 61.3701 46.803C61.4443 47.0035 61.4814 47.2191 61.4814 47.4497C61.4814 47.7592 61.4182 48.0379 61.2919 48.2859C61.1655 48.5322 60.9792 48.7296 60.7328 48.8781ZM59.8706 48.4683C60.5244 48.4683 60.8513 48.1287 60.8513 47.4497C60.8513 46.7706 60.5244 46.4311 59.8706 46.4311C59.2184 46.4311 58.8922 46.7706 58.8922 47.4497C58.8922 48.1287 59.2184 48.4683 59.8706 48.4683Z" fill="#417160"/>
<path d="M55.7345 47.3762C56.2383 47.4062 56.4902 47.6652 56.4902 48.1532C56.4902 48.2574 56.4799 48.3538 56.4594 48.4422C56.4389 48.5307 56.4018 48.6167 56.3481 48.7004C56.2959 48.7825 56.2288 48.852 56.1467 48.9089C56.0646 48.9657 55.958 49.0115 55.8269 49.0463C55.6974 49.081 55.5482 49.0984 55.3792 49.0984H54.0977V45.7986H55.3792C55.5577 45.7986 55.7132 45.8207 55.8459 45.8649C55.9801 45.9076 56.0859 45.9676 56.1633 46.0449C56.2407 46.1207 56.2983 46.206 56.3362 46.3008C56.3741 46.394 56.3931 46.495 56.3931 46.604C56.3931 46.6924 56.3812 46.7753 56.3575 46.8527C56.3338 46.9285 56.2967 46.9996 56.2462 47.0659C56.1972 47.1307 56.1285 47.1836 56.0401 47.2246C55.9533 47.2657 55.8514 47.2902 55.7345 47.2981V47.3762ZM54.7301 46.4311V47.0375H55.3555C55.504 47.0375 55.609 47.0154 55.6706 46.9712C55.7322 46.9254 55.763 46.8456 55.763 46.7319C55.763 46.6198 55.7322 46.5416 55.6706 46.4974C55.609 46.4532 55.504 46.4311 55.3555 46.4311H54.7301ZM55.3792 48.4185C55.5561 48.4185 55.68 48.3925 55.7511 48.3404C55.8238 48.2882 55.8601 48.1887 55.8601 48.0419C55.8601 47.8966 55.8238 47.7979 55.7511 47.7458C55.6785 47.6937 55.5545 47.6676 55.3792 47.6676H54.7301V48.4185H55.3792Z" fill="#417160"/>
<path d="M49.3505 47.94C49.3174 47.7837 49.3008 47.6202 49.3008 47.4497C49.3008 47.2791 49.3174 47.1165 49.3505 46.9617C49.3837 46.8053 49.4382 46.6561 49.514 46.514C49.5898 46.3703 49.6837 46.2463 49.7959 46.1421C49.9096 46.0378 50.0509 45.9549 50.2199 45.8933C50.3905 45.8302 50.5807 45.7986 50.7908 45.7986C51.015 45.7986 51.2172 45.8325 51.3972 45.9004C51.5772 45.9668 51.7241 46.0584 51.8378 46.1752C51.9515 46.2905 52.0392 46.4232 52.1008 46.5732C52.1639 46.7216 52.1995 46.8827 52.2074 47.0564H51.5772C51.5346 46.8243 51.458 46.6624 51.3475 46.5708C51.2385 46.4777 51.0529 46.4311 50.7908 46.4311C50.6392 46.4311 50.5121 46.4469 50.4094 46.4784C50.3083 46.5084 50.2207 46.5621 50.1465 46.6395C50.0722 46.7153 50.0178 46.8196 49.983 46.9522C49.9498 47.0849 49.9333 47.2507 49.9333 47.4497C49.9333 47.6487 49.9498 47.8145 49.983 47.9471C50.0178 48.0798 50.0722 48.1848 50.1465 48.2622C50.2207 48.338 50.3083 48.3917 50.4094 48.4233C50.5121 48.4533 50.6392 48.4683 50.7908 48.4683C51.0529 48.4683 51.2385 48.4225 51.3475 48.3309C51.458 48.2377 51.5346 48.075 51.5772 47.8429H52.2074C52.1995 48.0166 52.1639 48.1785 52.1008 48.3285C52.0392 48.477 51.9515 48.6096 51.8378 48.7265C51.7241 48.8418 51.5772 48.9326 51.3972 48.9989C51.2172 49.0652 51.015 49.0984 50.7908 49.0984C50.5807 49.0984 50.3905 49.0676 50.2199 49.006C50.0509 48.9444 49.9096 48.8615 49.7959 48.7573C49.6837 48.6515 49.5898 48.5275 49.514 48.3854C49.4382 48.2432 49.3837 48.0948 49.3505 47.94Z" fill="#417160"/>
<path d="M43.5259 45.7986H44.1584V49.0984H43.5259V47.0209H43.4501L42.0241 49.0984H41.3916V45.7986H42.0241V47.8761H42.0999L43.5259 45.7986Z" fill="#417160"/>
<path d="M39.0157 48.4683H39.525V49.8754H38.8949V49.0984H36.5094V49.8754H35.877V48.4683H36.256C36.3081 48.4051 36.3547 48.334 36.3957 48.2551C36.4368 48.1761 36.4715 48.0861 36.5 47.985C36.5284 47.8824 36.5529 47.786 36.5734 47.696C36.5955 47.6044 36.6129 47.4907 36.6255 47.3549C36.6381 47.2175 36.6476 47.1014 36.6539 47.0067C36.6618 46.9104 36.6674 46.7801 36.6705 46.6158C36.6737 46.45 36.6753 46.3205 36.6753 46.2273C36.6768 46.1342 36.6776 45.9968 36.6776 45.8152V45.7986H39.0157V48.4683ZM36.9358 48.4683H38.3856V46.4311H37.3101C37.3069 46.668 37.2998 46.8772 37.2888 47.0588C37.2793 47.2404 37.2611 47.4236 37.2343 47.6084C37.209 47.7932 37.1711 47.9574 37.1206 48.1011C37.0716 48.2448 37.0101 48.3672 36.9358 48.4683Z" fill="#417160"/>
<path d="M33.364 49.0984L33.1745 48.4683H31.9072L31.72 49.0984H31.0449L32.0541 45.7986H33.03L34.032 49.0984H33.364ZM32.0967 47.8382H32.985L32.5776 46.4927H32.4994L32.0967 47.8382Z" fill="#417160"/>
<path d="M26.5624 47.94C26.5293 47.7837 26.5127 47.6202 26.5127 47.4497C26.5127 47.2791 26.5293 47.1165 26.5624 46.9617C26.5956 46.8053 26.6501 46.6561 26.7259 46.514C26.8017 46.3703 26.8957 46.2463 27.0078 46.1421C27.1215 46.0378 27.2628 45.9549 27.4318 45.8933C27.6024 45.8302 27.7927 45.7986 28.0027 45.7986C28.2269 45.7986 28.4291 45.8325 28.6091 45.9004C28.7892 45.9668 28.936 46.0584 29.0497 46.1752C29.1634 46.2905 29.2511 46.4232 29.3127 46.5732C29.3758 46.7216 29.4114 46.8827 29.4193 47.0564H28.7892C28.7465 46.8243 28.6699 46.6624 28.5594 46.5708C28.4504 46.4777 28.2649 46.4311 28.0027 46.4311C27.8511 46.4311 27.724 46.4469 27.6213 46.4784C27.5202 46.5084 27.4326 46.5621 27.3584 46.6395C27.2841 46.7153 27.2297 46.8196 27.1949 46.9522C27.1618 47.0849 27.1452 47.2507 27.1452 47.4497C27.1452 47.6487 27.1618 47.8145 27.1949 47.9471C27.2297 48.0798 27.2841 48.1848 27.3584 48.2622C27.4326 48.338 27.5202 48.3917 27.6213 48.4233C27.724 48.4533 27.8511 48.4683 28.0027 48.4683C28.2649 48.4683 28.4504 48.4225 28.5594 48.3309C28.6699 48.2377 28.7465 48.075 28.7892 47.8429H29.4193C29.4114 48.0166 29.3758 48.1785 29.3127 48.3285C29.2511 48.477 29.1634 48.6096 29.0497 48.7265C28.936 48.8418 28.7892 48.9326 28.6091 48.9989C28.4291 49.0652 28.2269 49.0984 28.0027 49.0984C27.7927 49.0984 27.6024 49.0676 27.4318 49.006C27.2628 48.9444 27.1215 48.8615 27.0078 48.7573C26.8957 48.6515 26.8017 48.5275 26.7259 48.3854C26.6501 48.2432 26.5956 48.0948 26.5624 47.94Z" fill="#417160"/>
<path d="M24.0209 48.8781C23.7746 49.025 23.4871 49.0984 23.1587 49.0984C22.8302 49.0984 22.5428 49.025 22.2964 48.8781C22.05 48.7296 21.8637 48.5322 21.7374 48.2859C21.611 48.0379 21.5479 47.7592 21.5479 47.4497C21.5479 47.2191 21.585 47.0035 21.6592 46.803C21.7334 46.6024 21.8376 46.4279 21.9719 46.2795C22.1077 46.1294 22.2775 46.0118 22.4812 45.9265C22.6865 45.8412 22.9123 45.7986 23.1587 45.7986C23.405 45.7986 23.6301 45.8412 23.8338 45.9265C24.0391 46.0118 24.2089 46.1294 24.3431 46.2795C24.4789 46.4279 24.5839 46.6024 24.6581 46.803C24.7324 47.0035 24.7695 47.2191 24.7695 47.4497C24.7695 47.7592 24.7063 48.0379 24.58 48.2859C24.4536 48.5322 24.2673 48.7296 24.0209 48.8781ZM23.1587 48.4683C23.8125 48.4683 24.1394 48.1287 24.1394 47.4497C24.1394 46.7706 23.8125 46.4311 23.1587 46.4311C22.5064 46.4311 22.1803 46.7706 22.1803 47.4497C22.1803 48.1287 22.5064 48.4683 23.1587 48.4683Z" fill="#417160"/>
<path d="M19.7334 45.7986V49.0984H19.1033V46.4311H17.4143V49.0984H16.7842V45.7986H19.7334Z" fill="#417160"/>
</svg>
