<svg width="20" height="15" viewBox="0 0 20 15" fill="none" xmlns="http://www.w3.org/2000/svg">
<path d="M19.7598 12.1038C18.7202 10.3436 17.6815 8.5842 16.643 6.82508C16.1401 5.97305 15.6367 5.12071 15.1338 4.26867C15.1327 4.26699 15.1316 4.26531 15.1305 4.26347C14.5953 3.3567 14.0603 2.45039 13.5244 1.54316C13.1521 0.914645 12.328 0.698463 11.6874 1.06126C11.4603 1.18969 11.278 1.37835 11.1593 1.60707L8.47967 6.14367L7.18664 3.95449C6.86727 3.41541 6.16048 3.22981 5.61131 3.54078C5.4131 3.65315 5.25441 3.81888 5.15263 4.02008C5.05498 4.21287 5.13188 4.44831 5.3243 4.54616C5.51656 4.64385 5.75185 4.56695 5.84935 4.37401C5.88124 4.31087 5.9319 4.25843 5.99568 4.22234C6.17772 4.11915 6.41073 4.17831 6.51464 4.35367L8.02359 6.90856C7.60275 7.57056 7.19518 7.94544 6.89016 7.94544C6.60711 7.94544 6.34664 7.60496 6.17788 7.31937C5.93679 6.91116 5.58949 6.65125 5.17338 6.56762C4.94923 6.52268 4.72584 6.53124 4.51649 6.56976C4.53572 6.41948 4.46629 6.26521 4.32789 6.18311C4.14234 6.07304 3.90263 6.13465 3.79276 6.32056L3.28495 7.18039C3.28251 7.18452 3.28007 7.18865 3.27763 7.19278L0.156274 12.4779C0.00154973 12.741 -0.0399544 13.0477 0.0392391 13.3416C0.119348 13.6388 0.31283 13.8865 0.583827 14.0386C0.740689 14.1268 0.916471 14.1776 1.09576 14.1867C1.11529 14.1898 1.13543 14.1913 1.15588 14.1913H14.743C14.9587 14.1913 15.1336 14.0161 15.1336 13.7999C15.1336 13.5839 14.9587 13.4085 14.743 13.4085H1.20502C1.18884 13.4065 1.17251 13.4055 1.15603 13.4055C1.15573 13.4055 1.15542 13.4055 1.15527 13.4055C1.0892 13.4055 1.02374 13.3883 0.965909 13.3559C0.879544 13.3073 0.818356 13.2298 0.793484 13.1375C0.769528 13.0485 0.782193 12.9554 0.828885 12.8759L3.91026 7.65862C4.13273 7.5117 4.62758 7.25515 5.02171 7.33542C5.21916 7.37563 5.3774 7.50084 5.50572 7.71794C5.90169 8.38835 6.36739 8.72822 6.89016 8.72822C7.42361 8.72822 7.94165 8.37535 8.46365 7.65342L10.0403 10.323C10.1107 10.4421 10.2384 10.515 10.3765 10.515C10.5144 10.515 10.6423 10.4421 10.7125 10.323L12.1062 7.96333C12.2161 7.77726 12.1548 7.53723 11.9691 7.42715C11.7835 7.31707 11.5438 7.37869 11.4339 7.5646L10.3765 9.3552L8.93362 6.91223L10.089 4.95589C10.089 4.95574 10.089 4.95574 10.0892 4.95574C10.2241 4.72718 10.4922 4.58514 10.7886 4.58514C11.188 4.58514 11.5636 4.83343 11.8192 5.26625C12.1943 5.90134 12.7831 6.27332 13.3915 6.27332C13.4573 6.27332 13.5235 6.26904 13.5896 6.26017C14.1079 6.19061 14.5466 5.86312 14.8547 5.33368C15.2267 5.96357 15.5987 6.59361 15.9705 7.22351C17.012 8.98766 18.0534 10.752 19.096 12.5172C19.1024 12.5279 19.1093 12.5383 19.1166 12.5484C19.1835 12.6404 19.2189 12.7485 19.2189 12.8614C19.2189 13.163 18.9633 13.4085 18.6491 13.4085H17.4369C17.2212 13.4085 17.0463 13.5837 17.0463 13.7999C17.0463 14.0161 17.2212 14.1913 17.4369 14.1913H18.6491C19.394 14.1913 20 13.5946 20 12.8614C20.0001 12.5884 19.9171 12.327 19.7598 12.1038ZM13.4858 5.48442C13.1255 5.53274 12.7448 5.29637 12.4917 4.86768C12.0917 4.1907 11.4712 3.80252 10.7888 3.80252C10.7824 3.80252 10.7763 3.80298 10.77 3.80313L11.8374 1.99571C11.8418 1.98837 11.8459 1.98088 11.8497 1.97323C11.8983 1.87707 11.975 1.79741 12.0718 1.74268C12.3452 1.5878 12.6955 1.6777 12.8524 1.94235C13.3584 2.79897 13.8638 3.65514 14.3693 4.51145C14.1798 5.08172 13.863 5.43382 13.4858 5.48442Z" fill="#011004"/>
</svg>
