<svg width="44" height="45" viewBox="0 0 44 45" fill="none" xmlns="http://www.w3.org/2000/svg">
<path d="M22 0.718506C27.8348 0.718506 33.4305 3.03636 37.5564 7.16216C41.6822 11.288 44 16.8837 44 22.7185C44 28.5533 41.6822 34.1491 37.5564 38.2749C33.4305 42.4007 27.8348 44.7185 22 44.7185C16.1652 44.7185 10.5695 42.4007 6.44365 38.2749C2.31785 34.1491 0 28.5533 0 22.7185C0 16.8837 2.31785 11.288 6.44365 7.16216C10.5695 3.03636 16.1652 0.718506 22 0.718506ZM12.375 21.3435C12.0103 21.3435 11.6606 21.4884 11.4027 21.7462C11.1449 22.0041 11 22.3538 11 22.7185C11 23.0832 11.1449 23.4329 11.4027 23.6908C11.6606 23.9486 12.0103 24.0935 12.375 24.0935H28.3057L22.4015 29.995C22.2737 30.1228 22.1722 30.2746 22.1031 30.4417C22.0339 30.6087 21.9983 30.7877 21.9983 30.9685C21.9983 31.1493 22.0339 31.3283 22.1031 31.4954C22.1722 31.6624 22.2737 31.8142 22.4015 31.942C22.5293 32.0698 22.6811 32.1713 22.8481 32.2404C23.0152 32.3096 23.1942 32.3452 23.375 32.3452C23.5558 32.3452 23.7348 32.3096 23.9019 32.2404C24.0689 32.1713 24.2207 32.0698 24.3485 31.942L32.5985 23.692C32.7265 23.5643 32.8281 23.4125 32.8975 23.2455C32.9668 23.0784 33.0025 22.8994 33.0025 22.7185C33.0025 22.5376 32.9668 22.3586 32.8975 22.1915C32.8281 22.0245 32.7265 21.8727 32.5985 21.745L24.3485 13.495C24.2207 13.3672 24.0689 13.2658 23.9019 13.1966C23.7348 13.1274 23.5558 13.0918 23.375 13.0918C23.1942 13.0918 23.0152 13.1274 22.8481 13.1966C22.6811 13.2658 22.5293 13.3672 22.4015 13.495C22.2737 13.6228 22.1722 13.7746 22.1031 13.9417C22.0339 14.1087 21.9983 14.2877 21.9983 14.4685C21.9983 14.6493 22.0339 14.8283 22.1031 14.9954C22.1722 15.1624 22.2737 15.3142 22.4015 15.442L28.3057 21.3435H12.375Z" fill="#EB6829"/>
</svg>
