<svg width="11" height="11" viewBox="0 0 11 11" fill="none" xmlns="http://www.w3.org/2000/svg">
<path d="M9.87705 8.44974L8.76037 7.70556L7.76766 7.04419C7.57608 6.91679 7.31862 6.95855 7.17719 7.14002L6.56292 7.92932C6.43097 8.1006 6.19361 8.14982 6.00439 8.04511C5.58759 7.81336 5.09471 7.59517 4.0072 6.50677C2.91969 5.41836 2.7 4.92711 2.46814 4.5105C2.36338 4.32137 2.41263 4.08412 2.58398 3.95225L3.37366 3.33827C3.55518 3.19692 3.59699 2.93957 3.46952 2.74806L2.82817 1.78637L2.06332 0.639626C1.93314 0.444438 1.67255 0.385838 1.47129 0.506479L0.589211 1.03541C0.350827 1.1758 0.175596 1.40249 0.0998136 1.66849C-0.141403 2.54754 -0.190036 4.4867 2.91916 7.59446C6.02835 10.7022 7.96824 10.6534 8.8477 10.4123C9.11382 10.3366 9.34062 10.1614 9.48107 9.92315L10.0102 9.0415C10.131 8.84032 10.0723 8.57986 9.87705 8.44974Z" fill="white"/>
</svg>
