<svg width="15" height="16" viewBox="0 0 15 16" fill="none" xmlns="http://www.w3.org/2000/svg">
<path d="M14.2081 1.67576C14.1247 1.61271 12.1365 0.13967 10.0801 0.13967C8.99984 0.136154 7.96296 0.564356 7.20007 1.32912C6.43718 0.564356 5.40031 0.136154 4.32007 0.13967C2.26367 0.13967 0.275699 1.61271 0.192027 1.67576C0.0267925 1.79974 -0.0407074 2.01537 0.0246832 2.21154C0.0900738 2.40748 0.273589 2.53966 0.480074 2.53966C1.16914 2.55748 1.83617 2.78482 2.39281 3.19099C3.09875 3.68786 3.9371 3.96232 4.80007 3.97966C5.48468 4.00146 6.15804 3.80154 6.72007 3.4099V6.85965H3.36007C3.095 6.85965 2.88007 7.07457 2.88007 7.33965V13.0996C2.88171 14.4246 3.95539 15.498 5.28007 15.4996H9.12007C10.445 15.498 11.5184 14.4246 11.5201 13.0996V7.33965C11.5201 7.07457 11.3052 6.85965 11.0401 6.85965H7.68007V3.4099C8.24211 3.80154 8.91546 4.00146 9.60007 3.97966C10.463 3.96232 11.3014 3.68786 12.0073 3.19099C12.564 2.78482 13.2312 2.55748 13.9201 2.53966C14.1268 2.53966 14.3101 2.40748 14.3755 2.21154C14.4409 2.01537 14.3734 1.79974 14.2081 1.67576ZM10.5601 13.0996C10.5601 13.8949 9.91531 14.5396 9.12007 14.5396H5.28007C4.48484 14.5396 3.84007 13.8949 3.84007 13.0996V7.81965H10.5601V13.0996ZM11.5128 2.36834C10.9562 2.77451 10.2891 3.00185 9.60007 3.01966C8.8714 3.0738 8.17015 2.73091 7.76562 2.12248C8.35789 1.46998 9.19882 1.0985 10.0801 1.09967C10.9613 1.14279 11.821 1.38724 12.5928 1.81428C12.2162 1.96427 11.8545 2.14966 11.5128 2.36834ZM4.80007 3.01966C4.11125 3.00185 3.44398 2.77451 2.88734 2.36834C2.54586 2.14966 2.18421 1.96427 1.80734 1.81428C2.57914 1.38724 3.43882 1.14279 4.32007 1.09967C5.20226 1.09709 6.04414 1.46904 6.63617 2.12295C6.2314 2.73209 5.52921 3.07498 4.80007 3.01966Z" fill="black"/>
</svg>
