<svg width="18" height="17" viewBox="0 0 18 17" fill="none" xmlns="http://www.w3.org/2000/svg">
<path d="M17.9191 2.29971C17.6381 2.14813 17.3449 2.01992 17.0426 1.91639C16.2475 1.62148 15.3986 1.49684 14.5516 1.55065C13.7045 1.60446 12.8785 1.8355 12.1278 2.22862C11.377 2.62173 10.7185 3.16803 10.1955 3.83165C9.67241 4.49527 9.29663 5.2612 9.0928 6.07919V6.02169C9.09727 5.05312 8.865 4.09793 8.41589 3.23807C7.96679 2.37821 7.31427 1.63936 6.51431 1.0849C5.71436 0.53044 4.79085 0.176931 3.82303 0.0547024C2.85521 -0.0675264 1.87197 0.0451738 0.957662 0.383133C0.655354 0.486663 0.362203 0.614873 0.0812144 0.766448C0.0268093 1.0843 -0.000315107 1.40616 0.000133318 1.72857C-0.00575421 2.60795 0.183428 3.47785 0.554249 4.27648C0.92507 5.07512 1.46844 5.78293 2.14577 6.34964C2.82311 6.91636 3.61781 7.32809 4.47345 7.55561C5.32908 7.78313 6.22468 7.82086 7.09666 7.66611C7.45229 7.60583 7.80135 7.51214 8.13913 7.38629C8.33604 7.31346 8.52523 7.22913 8.7067 7.14097V16.9998H9.4789V8.75089C9.60631 8.80839 9.72986 8.86205 9.865 8.90805C10.2028 9.03389 10.5518 9.12759 10.9075 9.18787C11.7782 9.3418 12.6724 9.30385 13.5267 9.07669C14.381 8.84954 15.1746 8.43873 15.8513 7.87336C16.5279 7.30798 17.0712 6.60185 17.4425 5.80495C17.8138 5.00805 18.0042 4.13986 18.0001 3.26183C18.0006 2.93942 17.9735 2.61756 17.9191 2.29971ZM8.30129 6.47783C7.4609 6.87474 6.52957 7.04346 5.60213 6.96683C4.67469 6.8902 3.78427 6.57095 3.02153 6.04158C2.25879 5.51221 1.65096 4.79164 1.25994 3.95322C0.868916 3.1148 0.708665 2.18849 0.7955 1.26859C1.22084 1.07199 1.6698 0.930287 2.13141 0.846944C2.93042 0.704794 3.75171 0.747801 4.53122 0.972609C5.31074 1.19742 6.02741 1.59795 6.62536 2.14298C7.2233 2.688 7.68635 3.36279 7.9784 4.11471C8.27044 4.86663 8.38359 5.67536 8.30901 6.47783H8.30129ZM14.977 7.57411C14.2138 8.10181 13.3239 8.42011 12.3971 8.49684C11.4704 8.57357 10.5396 8.40601 9.69898 8.01109C9.6244 7.20862 9.73755 6.39989 10.0296 5.64797C10.3216 4.89605 10.7847 4.22126 11.3826 3.67624C11.9806 3.13121 12.6972 2.73068 13.4768 2.50587C14.2563 2.28106 15.0776 2.23805 15.8766 2.3802C16.3382 2.46355 16.7871 2.60525 17.2125 2.80185C17.2954 3.7222 17.1323 4.64798 16.7399 5.48584C16.3474 6.32369 15.7393 7.04399 14.977 7.57411Z" fill="#FEFFFE"/>
</svg>
