<svg width="19" height="21" viewBox="0 0 19 21" fill="none" xmlns="http://www.w3.org/2000/svg">
<path d="M18.3769 8.87632L18.2216 8.25644L17.6437 8.72315C17.4362 8.14765 17.2194 7.80078 17.1198 7.6593L17.009 7.50197L16.8175 7.48739C16.6892 7.47794 16.408 7.46976 16.0049 7.52039L16.2596 6.74221L15.547 6.91541C15.3486 6.96363 15.1297 7.02596 14.8951 7.10334C14.8951 7.10222 14.8956 7.10142 14.8956 7.10014C14.9863 2.41663 13.0103 0.337799 12.7849 0.116056C12.7809 0.112051 12.7751 0.111089 12.7707 0.107404C12.7657 0.102918 12.7638 0.0968299 12.7588 0.0928244C12.7318 0.0703938 12.7003 0.0598194 12.6702 0.04556C12.6551 0.0386706 12.6429 0.0276155 12.6268 0.0223283C12.5721 0.00406339 12.5149 -0.00410776 12.4586 0.00149989C12.4578 0.00149989 12.4573 0.00101923 12.4565 0.00101923C12.1417 0.0332231 9.29629 0.423355 6.41412 4.15997C6.2507 4.41151 6.09883 4.67283 5.95211 4.93895C4.6441 4.00248 3.64255 3.76167 3.34782 3.71024C3.22806 3.68909 3.10477 3.72289 3.01247 3.80204C2.86253 3.93006 1.98491 4.73051 1.28692 6.45366C1.27761 6.47272 1.27055 6.49147 1.26413 6.5123C0.851562 7.54875 0.505619 8.91061 0.417969 10.6552C0.449754 11.6681 0.608198 12.6987 0.888806 13.7168C1.16813 14.7355 1.55902 15.7019 2.06742 16.619C3.24331 18.3853 4.31534 18.8251 5.18943 18.8251C5.71003 18.8251 6.16016 18.669 6.52007 18.5447C6.70949 18.4792 7.53045 18.2493 7.66353 18.2187C8.07031 19.0441 8.7728 19.3852 9.28376 19.6323C9.4642 19.7194 10.3357 20.2147 10.5028 20.3247C10.939 20.6125 11.5259 20.9997 12.3371 20.9997C13.1078 20.9997 14.0806 20.6505 15.3181 19.5328C16.0135 18.7937 16.6316 17.9537 17.1543 17.0353C17.6786 16.1174 18.0871 15.1582 18.3766 14.1514C18.8641 11.7391 18.6456 9.95171 18.3769 8.87632ZM15.7185 8.39294C16.0901 8.31684 16.3749 8.29761 16.5566 8.29521C16.6635 8.48058 16.8216 8.8007 16.9661 9.27014L14.8787 10.9561L15.7185 8.39294ZM11.4829 1.09099C11.1581 1.57597 10.8343 2.12664 10.4857 2.78706C10.3807 2.98637 10.4571 3.23247 10.6563 3.33773C10.7171 3.36961 10.7822 3.38467 10.8462 3.38467C10.9928 3.38467 11.135 3.30553 11.208 3.16694C11.6696 2.29262 12.0833 1.62131 12.5125 1.04949C13.0667 1.77992 14.1458 3.64471 14.0804 7.05079C14.0673 7.17833 14.051 7.30634 14.0331 7.43355C14.0225 7.43836 14.0119 7.44365 14.0008 7.44862C13.8926 7.49668 13.7815 7.54843 13.6687 7.60355C13.5948 7.63944 13.5213 7.67693 13.4478 7.71474C13.4049 7.73685 13.3621 7.75928 13.3187 7.78203C12.9029 8.00217 12.4892 8.25451 12.0788 8.53858C12.0518 8.55685 12.0253 8.57559 11.9983 8.59434C11.9039 8.66051 11.81 8.72812 11.7161 8.79782C11.677 8.82681 11.6376 8.85694 11.5981 8.88658C11.5115 8.95227 11.4249 9.01828 11.3382 9.08685C11.2827 9.13091 11.2268 9.17737 11.1708 9.22303C11.0982 9.28248 11.025 9.3408 10.9523 9.40232C10.8221 9.51271 10.6905 9.62695 10.5582 9.74631C10.3844 9.93104 10.2156 10.1219 10.0517 10.3191C9.71367 10.7259 9.3979 11.1588 9.10558 11.6137C9.10509 11.6141 9.10477 11.6145 9.10429 11.6149C8.97105 11.8211 8.84375 12.031 8.72207 12.2438C8.70569 12.2728 8.69108 12.3037 8.67471 12.3327C8.53537 12.5804 8.40598 12.832 8.28382 13.0859C8.28141 13.0909 8.2782 13.0978 8.27403 13.1067L8.26504 13.1263C8.26102 13.1349 8.25733 13.1439 8.25284 13.1527H8.25235C8.25187 13.1532 8.25235 13.154 8.25187 13.1545C8.23759 13.1841 8.22458 13.2144 8.21062 13.2442C8.53296 10.6227 9.12227 8.16191 9.9718 5.92205C10.0517 5.71137 9.94563 5.47617 9.73454 5.39638C9.52328 5.31675 9.28762 5.42281 9.20799 5.63318C8.30838 8.00505 7.69371 10.615 7.37104 13.395C7.29752 13.3725 7.22737 13.3496 7.14838 13.3277C6.24957 13.0787 5.13131 12.768 5.18268 10.0488C5.27868 9.10479 5.49476 8.15149 5.82513 7.21502C5.99754 6.72347 6.21072 6.22455 6.45778 5.73219C6.45906 5.73011 6.45858 5.72771 6.45987 5.72579C6.65218 5.34302 6.85814 4.97452 7.08064 4.63053C8.79142 2.41327 10.446 1.48224 11.4829 1.09099ZM7.41182 17.4389C7.25578 17.4776 6.51734 17.6821 6.2523 17.7739C5.37051 18.0799 4.2744 18.4606 2.76573 16.1959C2.30549 15.364 1.93916 14.4575 1.67685 13.5009C1.4131 12.544 1.26445 11.5781 1.23427 10.6629C1.31148 9.14421 1.59241 7.95074 1.93306 7.02708C2.54725 6.99888 3.15903 6.91413 3.75492 6.76737C3.97389 6.71353 4.10777 6.49275 4.05335 6.27421C3.99941 6.05536 3.77643 5.92125 3.55924 5.97621C3.14346 6.07859 2.7187 6.14668 2.29104 6.18609C2.72078 5.31146 3.16722 4.79011 3.39999 4.55603C3.7713 4.65184 4.57138 4.92742 5.57968 5.67051C5.56748 5.69615 5.5572 5.72226 5.54532 5.74838C5.46329 5.92606 5.3819 6.10422 5.30726 6.28687C5.21607 6.50685 5.13115 6.72667 5.05442 6.94521C4.70318 7.94177 4.47282 8.95835 4.36783 10.0003C4.30217 13.3842 5.94713 13.8407 6.92974 14.1134C7.12302 14.1672 7.69836 14.4114 7.71233 14.4114C7.71554 14.4114 7.72742 14.4109 7.72983 14.4106C7.72212 14.433 7.71554 14.4563 7.70783 14.4787C7.6311 14.6942 7.56448 14.8981 7.50765 15.0954C7.50476 15.1059 7.50203 15.117 7.49946 15.128C7.45548 15.3464 7.42193 15.5528 7.39624 15.7495C7.38725 15.8173 7.38356 15.8801 7.37698 15.9456C7.36366 16.0749 7.35081 16.2033 7.34519 16.3231C7.34198 16.387 7.34231 16.4482 7.3415 16.5106C7.33942 16.6344 7.34022 16.7543 7.346 16.868C7.34841 16.9126 7.35129 16.9569 7.35499 17.0005C7.36671 17.151 7.38517 17.2928 7.41005 17.4257C7.41053 17.4297 7.41101 17.4347 7.41182 17.4389ZM17.5837 13.9581C17.3203 14.8704 16.9372 15.7696 16.4446 16.632C15.9533 17.4946 15.3738 18.2829 14.7465 18.951C12.7007 20.7975 11.732 20.1579 10.9531 19.6444C10.7191 19.4898 9.8925 19.0204 9.63966 18.898C9.14186 18.6572 8.57406 18.3779 8.30453 17.6372C8.3026 17.6299 8.30453 17.6226 8.30164 17.6153C8.10563 17.0467 8.10402 16.2706 8.29634 15.3086C8.34707 15.1345 8.40502 14.9609 8.46426 14.7879C8.51948 14.631 8.57952 14.4684 8.64935 14.2903C8.75803 14.0131 8.87602 13.7433 9.00011 13.4804C9.0091 13.4608 9.02098 13.4352 9.02178 13.4339C9.0221 13.4334 9.02178 13.4326 9.0221 13.4318L9.02258 13.4315C9.15117 13.1615 9.28762 12.8996 9.43097 12.6485C9.43097 12.648 9.43145 12.648 9.43177 12.6477C9.54623 12.4471 9.66663 12.2502 9.7912 12.0562C9.91818 11.8585 10.0501 11.667 10.1853 11.4799C10.1866 11.4783 10.1882 11.477 10.189 11.4754C10.1898 11.4743 10.1898 11.4735 10.1906 11.4722C10.4871 11.0633 10.8013 10.6789 11.1297 10.3289C11.2991 10.176 11.4662 10.0337 11.632 9.89723C11.6805 9.85718 11.7291 9.81889 11.7778 9.77979C11.8995 9.68238 12.0195 9.58865 12.1388 9.49941C12.1882 9.46224 12.2377 9.42523 12.2871 9.38934C12.4138 9.29722 12.5384 9.21038 12.6617 9.12754C12.6984 9.10271 12.7352 9.0766 12.7719 9.05224C13.0975 8.83787 13.4115 8.65346 13.7104 8.49532C13.7714 8.46328 13.8321 8.4346 13.8934 8.40416C13.9788 8.36138 14.065 8.31684 14.1478 8.27823C14.2507 8.23 14.3536 8.18562 14.457 8.14204C14.6506 8.05969 14.8385 7.98423 15.0136 7.92318L13.2441 13.3261L17.7174 9.71266C17.8855 10.7196 17.9476 12.1517 17.5837 13.9581Z" fill="black"/>
</svg>
