<svg width="23" height="23" viewBox="0 0 23 23" fill="none" xmlns="http://www.w3.org/2000/svg">
<path d="M22.0079 20.5031L16.7537 15.2514C16.6541 15.1519 16.5243 15.0999 16.3858 15.0999H15.8145C17.1778 13.521 18.0045 11.4661 18.0045 9.21659C18.0045 4.24601 13.9751 0.218506 9.00223 0.218506C4.02936 0.218506 0 4.24601 0 9.21659C0 14.1872 4.02936 18.2147 9.00223 18.2147C11.2528 18.2147 13.3086 17.3884 14.8883 16.0257V16.5967C14.8883 16.7352 14.9446 16.865 15.0398 16.9645L20.294 22.2162C20.4974 22.4195 20.8263 22.4195 21.0297 22.2162L22.0079 21.2385C22.2113 21.0352 22.2113 20.7064 22.0079 20.5031ZM9.00223 16.1382C5.17628 16.1382 2.07744 13.0408 2.07744 9.21659C2.07744 5.3924 5.17628 2.29499 9.00223 2.29499C12.8282 2.29499 15.927 5.3924 15.927 9.21659C15.927 13.0408 12.8282 16.1382 9.00223 16.1382Z" fill="white"/>
</svg>
