<svg width="15" height="16" viewBox="0 0 15 16" fill="none" xmlns="http://www.w3.org/2000/svg">
<path d="M14.9741 0.710682C14.9216 0.583193 14.7968 0.5 14.6591 0.5C1.42843 0.5 0 5.9832 0 8.3409C0 9.1891 0.188182 9.98136 0.559784 10.6952C0.617057 10.8057 0.730228 10.8759 0.85433 10.8786C0.971592 10.8752 1.09502 10.8166 1.15706 10.7082C2.05025 9.16455 4.57978 5.35454 8.7573 3.33024C8.92845 3.24842 9.13299 3.31864 9.21411 3.48707C9.29593 3.65684 9.22501 3.86139 9.05594 3.94321C8.74094 4.09594 8.43821 4.2623 8.14162 4.43479C8.02845 4.50091 7.91866 4.57116 7.80754 4.64C7.64048 4.74365 7.4755 4.84931 7.31458 4.95842C7.15437 5.06616 6.99616 5.17662 6.84071 5.28979C6.79229 5.32523 6.74595 5.36138 6.6982 5.39752C2.54046 8.49569 0 13.4382 0 15.1591C0 15.3473 0.152738 15.5 0.34092 15.5C0.529102 15.5 0.68184 15.3473 0.68184 15.1591C0.68184 14.6096 1.05616 13.4955 1.76456 12.1666C2.79275 13.0073 4.17615 13.4546 5.79548 13.4546C10.1734 13.4546 11.0905 9.28865 11.5827 7.05025C12.2455 4.03797 13.7039 2.2782 14.8998 1.08161C14.998 0.984102 15.0266 0.838171 14.9741 0.710682Z" fill="#A5C693"/>
</svg>
