<svg width="10" height="25" viewBox="0 0 10 25" fill="none" xmlns="http://www.w3.org/2000/svg">
<path d="M7.60039 12.0197H6.64039V8.17974C6.90547 8.17974 7.12039 7.96482 7.12039 7.69974V2.41975C7.12039 1.35944 6.2607 0.499756 5.20039 0.499756C4.14008 0.499756 3.28039 1.35944 3.28039 2.41975V7.69974C3.28039 7.96482 3.49531 8.17974 3.76039 8.17974V12.0197H2.80039C1.4757 12.0214 0.402031 13.0948 0.400391 14.4197V17.3721C0.402266 20.4361 2.20648 23.2123 5.00563 24.4584C5.12961 24.5135 5.27117 24.5135 5.39539 24.4584C8.19453 23.2123 9.99852 20.4361 10.0004 17.3721V14.4197C9.99875 13.0948 8.92531 12.0214 7.60039 12.0197ZM9.04039 17.3721C9.03922 19.9796 7.54766 22.3566 5.20039 23.4917C2.85359 22.3566 1.36203 19.98 1.36039 17.3731V14.4197C1.36039 13.6245 2.00516 12.9797 2.80039 12.9797H3.76039V13.4597C3.76039 14.255 4.40516 14.8997 5.20039 14.8997C5.99563 14.8997 6.64039 14.255 6.64039 13.4597V12.9797H7.60039C8.39563 12.9797 9.04039 13.6245 9.04039 14.4197V17.3721ZM4.24039 2.41975C4.24039 1.8896 4.67023 1.45975 5.20039 1.45975C5.73055 1.45975 6.16039 1.8896 6.16039 2.41975V7.21974H4.24039V2.41975ZM5.68039 8.17974V13.4597C5.68039 13.7248 5.46547 13.9397 5.20039 13.9397C4.93531 13.9397 4.72039 13.7248 4.72039 13.4597V8.17974H5.68039Z" fill="black"/>
</svg>
