<svg width="8" height="18" viewBox="0 0 8 18" fill="none" xmlns="http://www.w3.org/2000/svg">
<path d="M6.25909 10.224V2.57931C6.25909 1.27755 5.19977 0.218506 3.89774 0.218506C2.59591 0.218506 1.53679 1.27755 1.53679 2.57931V10.2239C0.569613 10.9607 0 12.0986 0 13.3207C0 15.47 1.74845 17.2185 3.89774 17.2185C6.04716 17.2185 7.79575 15.47 7.79575 13.3207C7.79575 12.0988 7.22613 10.9608 6.25909 10.224ZM3.89774 16.1993C2.31053 16.1993 1.01923 14.908 1.01923 13.3207C1.01923 12.3494 1.50764 11.4496 2.32575 10.9136C2.46946 10.8194 2.55609 10.6592 2.55609 10.4874V2.57931C2.55609 1.83956 3.15798 1.23774 3.89781 1.23774C4.6379 1.23774 5.23993 1.83956 5.23993 2.57931V10.4874C5.23993 10.6592 5.32649 10.8194 5.47027 10.9136C6.28824 11.4497 6.77665 12.3495 6.77665 13.3207C6.77652 14.908 5.48509 16.1993 3.89774 16.1993Z" fill="white"/>
</svg>
