<svg width="266" height="343" viewBox="0 0 266 343" fill="none" xmlns="http://www.w3.org/2000/svg">
<path d="M0.0346069 214.72C-1.07538 327.09 92.7346 325.51 205.105 325.51C317.475 325.51 406.975 327.09 406.975 214.72C406.975 102.35 298.025 0 212.415 0C59.4246 0 0.924622 124.49 0.0346069 214.72Z" fill="#D6F1F2"/>
<mask id="mask0_145_1741" style="mask-type:luminance" maskUnits="userSpaceOnUse" x="0" y="0" width="407" height="326">
<path d="M0.0346069 214.72C-1.07538 327.09 92.7346 325.51 205.105 325.51C317.475 325.51 406.975 327.09 406.975 214.72C406.975 102.35 298.025 0 212.415 0C59.4246 0 0.924622 124.49 0.0346069 214.72Z" fill="white"/>
</mask>
<g mask="url(#mask0_145_1741)">
<path opacity="0.3" d="M127.344 -21.6699C60.5339 26.9401 29.9039 115.16 29.9039 195.12C29.9039 314.48 127.344 312.8 245.464 312.8C302.444 312.8 353.824 313.19 391.754 300.19C354.924 334.23 287.334 333.51 209.204 333.51C91.0839 333.51 -6.35608 335.19 -6.35608 215.83C-6.35608 122.61 35.2739 18.1401 127.344 -21.6699Z" fill="white"/>
<path opacity="0.4" d="M43.6243 137.28V200.85H76.0443V141.54H81.4943V131.28H85.1843V118.95H89.9243V113.28L97.2543 104.86L104.014 113.28V118.95H108.754V131.28H112.444V141.54H117.894V166.59H154.194V141.54L196.024 169.77V230.75H222.404V116.25H232.034V106.18H246.374V88.1801H251.034V40.6101C251.034 40.0601 251.484 39.6101 252.034 39.6101C252.584 39.6101 253.034 40.0601 253.034 40.6101V88.1801H257.694V106.18H272.034V116.25H280.904V200.84H295.184V141.53H337.014V166.58H349.194V143.53H358.444V133.46H368.444V115.46H388.444V133.46H398.444V143.53H407.694V332.24H43.6243V343.28H-6.37567V137.28H43.6243Z" fill="#9EAFAE"/>
</g>
<path d="M32.6143 322.91C32.6143 333.91 108.054 342.82 201.114 342.82C294.174 342.82 369.614 333.9 369.614 322.91C369.614 311.92 301.774 310.98 208.714 310.98C115.654 310.98 32.6143 311.91 32.6143 322.91Z" fill="#F2F2F2"/>
<path d="M331.894 144.38H187.164C178.264 144.38 171.034 151.61 171.034 160.51V294.37H348.024V160.51C348.024 151.61 340.794 144.38 331.894 144.38Z" fill="#FDC94F"/>
<mask id="mask1_145_1741" style="mask-type:luminance" maskUnits="userSpaceOnUse" x="171" y="144" width="178" height="151">
<path d="M331.894 144.38H187.164C178.264 144.38 171.034 151.61 171.034 160.51V294.37H348.024V160.51C348.024 151.61 340.794 144.38 331.894 144.38Z" fill="white"/>
</mask>
<g mask="url(#mask1_145_1741)">
<path opacity="0.02" d="M348.505 142.9C348.505 142.9 307.685 296.01 196.505 302.9L377.505 303.9L348.505 142.9Z" fill="#383838"/>
<path d="M301.505 341.23C281.07 341.23 264.505 324.665 264.505 304.23C264.505 283.795 281.07 267.23 301.505 267.23C321.939 267.23 338.505 283.795 338.505 304.23C338.505 324.665 321.939 341.23 301.505 341.23Z" fill="#383838"/>
</g>
<path d="M171.505 183.9H107.385C102.385 183.9 97.6451 186.1 94.4151 189.91L48.5151 244.15C45.9251 247.22 44.4651 251.09 44.4051 255.1L43.7651 297.53C43.6151 307.12 51.2751 315.01 60.8551 315.16L172.495 316.89L171.495 183.89L171.505 183.9Z" fill="#FDC94F"/>
<mask id="mask2_145_1741" style="mask-type:luminance" maskUnits="userSpaceOnUse" x="43" y="183" width="130" height="134">
<path d="M171.505 183.9H107.385C102.385 183.9 97.6451 186.1 94.4151 189.91L48.5151 244.15C45.9251 247.22 44.4651 251.09 44.4051 255.1L43.7651 297.53C43.6151 307.12 51.2751 315.01 60.8551 315.16L172.495 316.89L171.495 183.89L171.505 183.9Z" fill="white"/>
</mask>
<g mask="url(#mask2_145_1741)">
<path d="M31.1747 298.23H57.1747C60.8447 298.23 63.8447 295.23 63.8447 291.56C63.8447 287.89 60.8447 284.89 57.1747 284.89H31.1747C27.5047 284.89 24.5047 287.89 24.5047 291.56C24.5047 295.23 27.5047 298.23 31.1747 298.23Z" fill="#F9D698"/>
<path d="M114.505 341.23C94.0703 341.23 77.5049 324.665 77.5049 304.23C77.5049 283.795 94.0703 267.23 114.505 267.23C134.939 267.23 151.505 283.795 151.505 304.23C151.505 324.665 134.939 341.23 114.505 341.23Z" fill="#383838"/>
</g>
<path d="M172.505 316.9H351.005C357.355 316.9 362.505 311.75 362.505 305.4C362.505 299.05 357.355 293.9 351.005 293.9H172.505V316.9Z" fill="#FCBB38"/>
<mask id="mask3_145_1741" style="mask-type:luminance" maskUnits="userSpaceOnUse" x="172" y="293" width="191" height="24">
<path d="M172.505 316.9H351.005C357.355 316.9 362.505 311.75 362.505 305.4C362.505 299.05 357.355 293.9 351.005 293.9H172.505V316.9Z" fill="white"/>
</mask>
<g mask="url(#mask3_145_1741)">
<path opacity="0.3" d="M173.505 311.9H363.505V319.9H173.505V311.9Z" fill="#E5A535"/>
<path d="M301.505 341.23C281.07 341.23 264.505 324.665 264.505 304.23C264.505 283.795 281.07 267.23 301.505 267.23C321.939 267.23 338.505 283.795 338.505 304.23C338.505 324.665 321.939 341.23 301.505 341.23Z" fill="#383838"/>
</g>
<path d="M272.015 293.28C279.055 276.88 298.055 269.29 314.455 276.32C330.855 283.36 338.445 302.36 331.415 318.76C324.375 335.16 305.375 342.75 288.975 335.72C272.575 328.68 264.985 309.68 272.015 293.28ZM292.865 326.83C304.175 331.68 317.275 326.45 322.135 315.13C326.985 303.82 321.755 290.72 310.435 285.86C299.125 281.01 286.025 286.24 281.165 297.56C276.315 308.87 281.545 321.97 292.865 326.83Z" fill="#5B5B5B"/>
<mask id="mask4_145_1741" style="mask-type:luminance" maskUnits="userSpaceOnUse" x="269" y="273" width="66" height="66">
<path d="M272.015 293.28C279.055 276.88 298.055 269.29 314.455 276.32C330.855 283.36 338.445 302.36 331.415 318.76C324.375 335.16 305.375 342.75 288.975 335.72C272.575 328.68 264.985 309.68 272.015 293.28ZM292.865 326.83C304.175 331.68 317.275 326.45 322.135 315.13C326.985 303.82 321.755 290.72 310.435 285.86C299.125 281.01 286.025 286.24 281.165 297.56C276.315 308.87 281.545 321.97 292.865 326.83Z" fill="white"/>
</mask>
<g mask="url(#mask4_145_1741)">
</g>
<path d="M95.6249 301.79L97.9649 296.26L105.695 299.53C107.795 300.42 110.095 298.73 109.865 296.46L109.045 288.11L115.015 287.53L115.655 294.07C115.895 296.53 118.835 297.67 120.675 296.01L125.555 291.61L129.575 296.06L122.855 302.13C121.215 303.61 121.675 306.29 123.705 307.14L132.045 310.67L129.705 316.2L121.975 312.93C119.875 312.04 117.575 313.73 117.805 316L118.625 324.35L112.655 324.93L112.015 318.39C111.775 315.93 108.835 314.79 106.995 316.45L102.115 320.85L98.0949 316.4L104.815 310.33C106.455 308.85 105.995 306.17 103.965 305.32L95.6249 301.79Z" fill="#B5B5B5"/>
<path d="M91.115 295.9C96.705 282.86 111.805 276.83 124.845 282.42C137.885 288.01 143.915 303.11 138.325 316.15C132.735 329.19 117.635 335.22 104.595 329.63C91.555 324.04 85.525 308.94 91.115 295.9ZM107.785 322.19C116.715 326.02 127.055 321.89 130.885 312.96C134.715 304.03 130.585 293.69 121.655 289.86C112.725 286.03 102.385 290.16 98.555 299.09C94.725 308.02 98.855 318.36 107.785 322.19Z" fill="#A4A6A5"/>
<mask id="mask5_145_1741" style="mask-type:luminance" maskUnits="userSpaceOnUse" x="89" y="280" width="52" height="52">
<path d="M91.115 295.9C96.705 282.86 111.805 276.83 124.845 282.42C137.885 288.01 143.915 303.11 138.325 316.15C132.735 329.19 117.635 335.22 104.595 329.63C91.555 324.04 85.525 308.94 91.115 295.9ZM107.785 322.19C116.715 326.02 127.055 321.89 130.885 312.96C134.715 304.03 130.585 293.69 121.655 289.86C112.725 286.03 102.385 290.16 98.555 299.09C94.725 308.02 98.855 318.36 107.785 322.19Z" fill="white"/>
</mask>
<g mask="url(#mask5_145_1741)">
<path d="M92.6151 297.58C94.3451 293.56 97.0852 290.29 100.425 287.94C98.2352 290.02 96.4152 292.56 95.1452 295.51C90.1752 307.09 95.5352 320.51 107.125 325.48C114.685 328.72 123.025 327.56 129.285 323.15C122.875 329.22 113.225 331.26 104.595 327.55C93.0152 322.58 87.6451 309.16 92.6151 297.58Z" fill="#9A9B9A"/>
</g>
<path d="M85.0147 293.28C92.0547 276.88 111.055 269.29 127.455 276.32C143.855 283.36 151.445 302.36 144.415 318.76C137.375 335.16 118.375 342.75 101.975 335.72C85.5747 328.68 77.9847 309.68 85.0147 293.28ZM105.865 326.83C117.175 331.68 130.275 326.45 135.135 315.13C139.985 303.82 134.755 290.72 123.435 285.86C112.125 281.01 99.0247 286.24 94.1647 297.56C89.3147 308.87 94.5447 321.97 105.865 326.83Z" fill="#5B5B5B"/>
<mask id="mask6_145_1741" style="mask-type:luminance" maskUnits="userSpaceOnUse" x="82" y="273" width="66" height="66">
<path d="M85.0147 293.28C92.0547 276.88 111.055 269.29 127.455 276.32C143.855 283.36 151.445 302.36 144.415 318.76C137.375 335.16 118.375 342.75 101.975 335.72C85.5747 328.68 77.9847 309.68 85.0147 293.28ZM105.865 326.83C117.175 331.68 130.275 326.45 135.135 315.13C139.985 303.82 134.755 290.72 123.435 285.86C112.125 281.01 99.0247 286.24 94.1647 297.56C89.3147 308.87 94.5447 321.97 105.865 326.83Z" fill="white"/>
</mask>
<g mask="url(#mask6_145_1741)">
<g opacity="0.2">
<path d="M83.8452 294.08C85.8552 289.39 88.8552 285.42 92.4752 282.31C90.3752 284.75 88.6151 287.54 87.2751 290.65C80.2351 307.05 87.8352 326.05 104.235 333.09C115.945 338.11 128.975 335.68 138.035 327.9C129.085 338.31 114.085 342.22 100.795 336.52C84.3952 329.48 76.8051 310.48 83.8351 294.08H83.8452Z" fill="#161616"/>
</g>
</g>
<path d="M112.275 302.15C112.275 303.1 113.045 303.87 113.995 303.87C114.945 303.87 115.715 303.1 115.715 302.15C115.715 301.2 114.945 300.43 113.995 300.43C113.045 300.43 112.275 301.2 112.275 302.15Z" fill="#727172"/>
<mask id="mask7_145_1741" style="mask-type:luminance" maskUnits="userSpaceOnUse" x="112" y="300" width="4" height="4">
<path d="M112.275 302.15C112.275 303.1 113.045 303.87 113.995 303.87C114.945 303.87 115.715 303.1 115.715 302.15C115.715 301.2 114.945 300.43 113.995 300.43C113.045 300.43 112.275 301.2 112.275 302.15Z" fill="white"/>
</mask>
<g mask="url(#mask7_145_1741)">
<path opacity="0.3" d="M112.755 300.72C112.635 300.97 112.565 301.25 112.565 301.55C112.565 302.63 113.435 303.5 114.515 303.5C115.095 303.5 115.605 303.24 115.965 302.84C115.655 303.5 114.985 303.96 114.215 303.96C113.145 303.96 112.265 303.09 112.265 302.01C112.265 301.51 112.455 301.06 112.765 300.72H112.755Z" fill="#5B5B5B"/>
</g>
<path d="M112.275 310.31C112.275 311.26 113.045 312.03 113.995 312.03C114.945 312.03 115.715 311.26 115.715 310.31C115.715 309.36 114.945 308.59 113.995 308.59C113.045 308.59 112.275 309.36 112.275 310.31Z" fill="#727172"/>
<mask id="mask8_145_1741" style="mask-type:luminance" maskUnits="userSpaceOnUse" x="112" y="308" width="4" height="5">
<path d="M112.275 310.31C112.275 311.26 113.045 312.03 113.995 312.03C114.945 312.03 115.715 311.26 115.715 310.31C115.715 309.36 114.945 308.59 113.995 308.59C113.045 308.59 112.275 309.36 112.275 310.31Z" fill="white"/>
</mask>
<g mask="url(#mask8_145_1741)">
<path opacity="0.3" d="M112.755 308.88C112.635 309.13 112.565 309.41 112.565 309.71C112.565 310.79 113.435 311.66 114.515 311.66C115.095 311.66 115.605 311.4 115.965 311C115.655 311.66 114.985 312.12 114.215 312.12C113.145 312.12 112.265 311.25 112.265 310.17C112.265 309.67 112.455 309.22 112.765 308.88H112.755Z" fill="#5B5B5B"/>
</g>
<path d="M110.405 308.04C111.355 308.04 112.125 307.27 112.125 306.32C112.125 305.37 111.355 304.6 110.405 304.6C109.455 304.6 108.685 305.37 108.685 306.32C108.685 307.27 109.455 308.04 110.405 308.04Z" fill="#727172"/>
<mask id="mask9_145_1741" style="mask-type:luminance" maskUnits="userSpaceOnUse" x="108" y="304" width="5" height="5">
<path d="M110.405 308.04C111.355 308.04 112.125 307.27 112.125 306.32C112.125 305.37 111.355 304.6 110.405 304.6C109.455 304.6 108.685 305.37 108.685 306.32C108.685 307.27 109.455 308.04 110.405 308.04Z" fill="white"/>
</mask>
<g mask="url(#mask9_145_1741)">
<path opacity="0.3" d="M108.975 307.57C109.225 307.69 109.505 307.76 109.805 307.76C110.875 307.76 111.755 306.89 111.755 305.81C111.755 305.23 111.495 304.72 111.095 304.36C111.755 304.67 112.215 305.34 112.215 306.11C112.215 307.19 111.345 308.06 110.265 308.06C109.765 308.06 109.315 307.87 108.975 307.56V307.57Z" fill="#5B5B5B"/>
</g>
<path d="M117.764 308.04C118.714 308.04 119.484 307.27 119.484 306.32C119.484 305.37 118.714 304.6 117.764 304.6C116.814 304.6 116.044 305.37 116.044 306.32C116.044 307.27 116.814 308.04 117.764 308.04Z" fill="#727172"/>
<mask id="mask10_145_1741" style="mask-type:luminance" maskUnits="userSpaceOnUse" x="116" y="304" width="4" height="5">
<path d="M117.764 308.04C118.714 308.04 119.484 307.27 119.484 306.32C119.484 305.37 118.714 304.6 117.764 304.6C116.814 304.6 116.044 305.37 116.044 306.32C116.044 307.27 116.814 308.04 117.764 308.04Z" fill="white"/>
</mask>
<g mask="url(#mask10_145_1741)">
<path opacity="0.3" d="M116.334 307.57C116.584 307.69 116.864 307.76 117.164 307.76C118.234 307.76 119.114 306.89 119.114 305.81C119.114 305.23 118.854 304.72 118.454 304.36C119.114 304.67 119.574 305.34 119.574 306.11C119.574 307.19 118.704 308.06 117.624 308.06C117.124 308.06 116.674 307.87 116.334 307.56V307.57Z" fill="#5B5B5B"/>
</g>
<path d="M157.955 248.23H60.5048L104.505 196.23L158.035 196.8C161.985 196.84 165.175 200.06 165.175 204.01V241.01C165.175 244.99 161.945 248.22 157.965 248.22L157.955 248.23Z" fill="#D6F1F2"/>
<mask id="mask11_145_1741" style="mask-type:luminance" maskUnits="userSpaceOnUse" x="60" y="196" width="106" height="53">
<path d="M157.955 248.23H60.5048L104.505 196.23L158.035 196.8C161.985 196.84 165.175 200.06 165.175 204.01V241.01C165.175 244.99 161.945 248.22 157.965 248.22L157.955 248.23Z" fill="white"/>
</mask>
<g mask="url(#mask11_145_1741)">
<path d="M92.3242 242.34C92.3242 242.34 85.0542 244.3 85.2542 250.78" stroke="#EAA936" stroke-width="3.14" stroke-linecap="round" stroke-linejoin="round"/>
<path d="M125.705 234.07C125.565 236.57 123.575 238.83 122.395 241.03L118.035 248.42C116.065 252.58 113.625 252.4 109.655 251.55L95.9549 247.38L94.3149 244.04L93.8549 243.77C112.175 250.74 114.885 243.16 115.995 240.19C116.195 239.65 116.675 238.78 116.845 238.23C117.505 236.77 117.745 236.92 118.255 235.4C119.015 233.1 120.175 229.7 123.595 229.57C125.635 229.49 125.865 231.29 125.715 234.06L125.705 234.07Z" fill="#E59F83"/>
<mask id="mask12_145_1741" style="mask-type:luminance" maskUnits="userSpaceOnUse" x="93" y="229" width="33" height="24">
<path d="M125.705 234.07C125.565 236.57 123.575 238.83 122.395 241.03L118.035 248.42C116.065 252.58 113.625 252.4 109.655 251.55L95.9549 247.38L94.3149 244.04L93.8549 243.77C112.175 250.74 114.885 243.16 115.995 240.19C116.195 239.65 116.675 238.78 116.845 238.23C117.505 236.77 117.745 236.92 118.255 235.4C119.015 233.1 120.175 229.7 123.595 229.57C125.635 229.49 125.865 231.29 125.715 234.06L125.705 234.07Z" fill="white"/>
</mask>
<g mask="url(#mask12_145_1741)">
<path opacity="0.4" d="M93.9553 246.88C112.775 252.59 114.165 253.4 120.215 242.28C122.045 238.92 124.295 233.34 123.585 229.58L127.945 232.05L118.145 248.84C116.875 253.17 113.355 253.65 110.775 252.15L93.7453 247.33L93.9453 246.89L93.9553 246.88Z" fill="#EAA286"/>
</g>
<path d="M90.9451 238.8L94.9551 249.39" stroke="#DD9D36" stroke-width="3.14" stroke-linecap="round" stroke-linejoin="round"/>
<path d="M133.165 258.44C134.465 258.15 134.135 255.95 134.105 254.62C133.995 250.14 135.815 240.55 131.755 233.65C131.005 232.37 129.015 228.97 127.115 228.31C126.005 227.92 125.625 225.34 125.155 223.65L118.345 227.11C118.345 227.11 120.105 228.29 118.605 231.43C116.905 234.99 118.215 244.24 118.215 244.24C118.215 244.24 116.335 253.76 118.075 259.7C118.355 260.65 119.365 261.91 120.335 261.72L133.155 258.43L133.165 258.44Z" fill="#DD9D36"/>
<mask id="mask13_145_1741" style="mask-type:luminance" maskUnits="userSpaceOnUse" x="117" y="223" width="18" height="39">
<path d="M133.165 258.44C134.465 258.15 134.135 255.95 134.105 254.62C133.995 250.14 135.815 240.55 131.755 233.65C131.005 232.37 129.015 228.97 127.115 228.31C126.005 227.92 125.625 225.34 125.155 223.65L118.345 227.11C118.345 227.11 120.105 228.29 118.605 231.43C116.905 234.99 118.215 244.24 118.215 244.24C118.215 244.24 116.335 253.76 118.075 259.7C118.355 260.65 119.365 261.91 120.335 261.72L133.155 258.43L133.165 258.44Z" fill="white"/>
</mask>
<g mask="url(#mask13_145_1741)">
<path d="M128.335 228.23C123.085 227.73 123.245 228.98 116.865 231.73C115.945 232.12 113.965 229.17 113.965 229.17L120.405 222.13L127.635 221.19L128.345 228.23H128.335Z" fill="#F7AE8B"/>
<path opacity="0.1" d="M126.205 236.52C126.205 236.52 122.225 249.48 118.675 253.33C114.845 257.48 105.185 252.04 105.185 252.04L115.795 249.57L126.195 236.52H126.205Z" fill="#AD3E47"/>
<path d="M109.955 208.89C111.115 228.67 111.365 231.05 120.105 228.3C128.735 225.59 133.275 221 135.355 209.17C137.335 197.92 132.255 198.16 124.555 197.66C111.455 196.81 109.655 203.69 109.955 208.89Z" fill="#EFA689"/>
<path opacity="0.1" d="M127.115 228.31C127.115 228.31 132.535 228.98 133.055 248.88L134.815 260.39L137.755 257.84C137.755 257.84 137.095 228.73 127.115 228.31Z" fill="#AD3E47"/>
</g>
<path d="M124.975 236.44C124.835 238.94 123.885 239.91 122.705 242.11L118.345 249.5C116.375 253.66 113.935 253.48 109.965 252.63L96.2648 248.46L94.6248 245.12L94.1648 244.85C107.255 247.74 110.865 248.6 112.515 245.9C115.995 240.19 115.845 241.62 116.015 241.07L117.115 235.77C117.775 234.31 116.615 237.29 117.115 235.77C117.875 233.47 118.635 232.73 122.055 232.6C124.095 232.52 125.135 233.67 124.985 236.44H124.975Z" fill="#F7AE8B"/>
<mask id="mask14_145_1741" style="mask-type:luminance" maskUnits="userSpaceOnUse" x="94" y="232" width="31" height="22">
<path d="M124.975 236.44C124.835 238.94 123.885 239.91 122.705 242.11L118.345 249.5C116.375 253.66 113.935 253.48 109.965 252.63L96.2648 248.46L94.6248 245.12L94.1648 244.85C107.255 247.74 110.865 248.6 112.515 245.9C115.995 240.19 115.845 241.62 116.015 241.07L117.115 235.77C117.775 234.31 116.615 237.29 117.115 235.77C117.875 233.47 118.635 232.73 122.055 232.6C124.095 232.52 125.135 233.67 124.985 236.44H124.975Z" fill="white"/>
</mask>
<g mask="url(#mask14_145_1741)">
<path opacity="0.4" d="M94.2551 247.96C113.075 253.67 114.465 254.48 120.515 243.36C122.345 240 124.595 234.42 123.885 230.66L128.245 233.13L118.445 249.92C117.175 254.25 113.655 254.73 111.075 253.23L94.0451 248.41L94.2451 247.97L94.2551 247.96Z" fill="#EAA286"/>
</g>
<path d="M112.804 202.96C111.254 204.74 110.414 207.05 110.364 209.41C110.064 225.59 110.384 231.34 119.994 227.54C126.944 224.79 131.834 222.67 133.404 210.77C133.764 208.06 132.544 200.83 124.914 199.63C118.434 198.61 114.804 200.66 112.804 202.96Z" fill="#F7AE8B"/>
<mask id="mask15_145_1741" style="mask-type:luminance" maskUnits="userSpaceOnUse" x="110" y="199" width="24" height="30">
<path d="M112.804 202.96C111.254 204.74 110.414 207.05 110.364 209.41C110.064 225.59 110.384 231.34 119.994 227.54C126.944 224.79 131.834 222.67 133.404 210.77C133.764 208.06 132.544 200.83 124.914 199.63C118.434 198.61 114.804 200.66 112.804 202.96Z" fill="white"/>
</mask>
<g mask="url(#mask15_145_1741)">
<path opacity="0.05" d="M102.324 185.01C102.324 185.01 93.3138 232.18 118.884 234.17C118.884 234.17 100.294 237.3 97.1538 226.68C94.0138 216.07 87.6438 183.35 102.324 185V185.01Z" fill="#99594B"/>
</g>
<path d="M110.964 216.96C110.964 216.96 108.664 221.23 109.034 221.74C109.524 222.42 112.064 222.54 112.064 222.54" fill="#F7AE8B"/>
<path d="M112.434 217.81C112.484 218.87 113.184 219.7 113.984 219.66C114.784 219.62 115.394 218.73 115.344 217.67C115.294 216.61 114.594 215.78 113.794 215.82C112.994 215.86 112.384 216.75 112.434 217.81Z" fill="#1D1D1B"/>
<path d="M125.864 218.54C125.534 216.82 123.974 215.68 122.394 215.99C120.814 216.3 119.794 217.94 120.124 219.65C120.454 221.37 122.014 222.51 123.594 222.2C125.174 221.89 126.194 220.25 125.864 218.54Z" fill="#F7AE8B"/>
<path d="M116.334 214.55C116.334 214.55 114.854 213.03 112.754 213.78" stroke="#F27F46" stroke-width="1.27" stroke-linecap="round" stroke-linejoin="round"/>
<path d="M117.275 226.5C120.565 226.01 123.915 224.91 127.765 222.53" stroke="white" stroke-width="0.39" stroke-miterlimit="10"/>
<path d="M118.505 220.87C118.505 220.87 109.735 220.12 109.635 219.15C109.545 218.27 107.515 222.75 109.485 226.58C109.855 227.3 111.415 228.52 112.225 228.4L117.445 226.71L118.505 220.87Z" fill="#F9F9F9"/>
<mask id="mask16_145_1741" style="mask-type:luminance" maskUnits="userSpaceOnUse" x="108" y="219" width="11" height="10">
<path d="M118.505 220.87C118.505 220.87 109.735 220.12 109.635 219.15C109.545 218.27 107.515 222.75 109.485 226.58C109.855 227.3 111.415 228.52 112.225 228.4L117.445 226.71L118.505 220.87Z" fill="white"/>
</mask>
<g mask="url(#mask16_145_1741)">
<path d="M118.146 221.23C118.146 221.23 108.725 220.22 108.635 219.35C108.555 218.56 106.595 222.6 108.355 226.03C108.685 226.68 110.456 228.51 111.176 228.4L117.275 226.51L118.146 221.23Z" stroke="#E2E2E2" stroke-width="0.1" stroke-linecap="round" stroke-linejoin="round"/>
<path d="M117.835 221.53C117.835 221.53 108.065 220.41 107.995 219.56C107.935 218.79 105.835 223.23 107.745 226.57C108.105 227.2 109.665 228.49 110.515 228.39L117.005 226.35L117.825 221.52L117.835 221.53Z" fill="#EDEDED"/>
<path opacity="0.3" d="M118.695 223.17C118.695 223.17 110.545 223.1 106.795 221.32" stroke="white" stroke-width="1.96" stroke-miterlimit="10"/>
<path opacity="0.3" d="M118.436 226.26C118.436 226.26 110.286 226.19 106.536 224.41" stroke="white" stroke-width="1.96" stroke-miterlimit="10"/>
</g>
<path d="M97.3848 248.72C97.3848 248.72 94.9748 247.74 92.9848 248.74C92.7048 248.88 92.3448 248.76 92.2848 248.45C92.2548 248.3 92.3047 248.11 92.5247 247.91C93.1847 247.28 96.1147 246.84 96.1147 246.84" fill="#F7AE8B"/>
<path d="M96.7842 247.2C96.7842 247.2 93.7442 247.2 92.7842 247.77C92.5142 247.93 92.1442 247.79 92.0842 247.48C92.0542 247.33 92.1042 247.14 92.3242 246.94C92.9842 246.31 96.1342 245.91 96.1342 245.91" fill="#F7AE8B"/>
<path d="M95.7647 246.57C95.7647 246.57 93.4947 246.42 92.4447 246.82C92.1547 246.93 91.8047 246.73 91.8047 246.42C91.8047 246.26 91.8847 246.09 92.1247 245.93C92.8847 245.42 95.8447 245.49 95.8447 245.49" fill="#F7AE8B"/>
<path d="M95.7347 246.26C95.7347 246.26 93.5547 245.63 92.4447 245.79C92.1347 245.84 91.8447 245.57 91.9047 245.26C91.9347 245.11 92.0547 244.96 92.3247 244.85C93.1747 244.52 96.0547 245.22 96.0547 245.22" fill="#F7AE8B"/>
<path d="M97.3145 245.46C97.3145 245.46 95.8845 244.94 95.2945 244.1C94.7145 243.26 94.0545 244.8 95.0445 245.21" fill="#F7AE8B"/>
<path d="M122.695 243.74C123.625 244.02 124.615 243.67 124.995 242.93C126.475 240.07 129.565 232.56 123.415 230.86C117.365 229.19 116.035 236.95 115.165 239.98C114.925 240.81 115.515 241.69 116.495 241.98L122.695 243.73V243.74Z" fill="#FDC94F"/>
<mask id="mask17_145_1741" style="mask-type:luminance" maskUnits="userSpaceOnUse" x="115" y="230" width="13" height="14">
<path d="M122.695 243.74C123.625 244.02 124.615 243.67 124.995 242.93C126.475 240.07 129.565 232.56 123.415 230.86C117.365 229.19 116.035 236.95 115.165 239.98C114.925 240.81 115.515 241.69 116.495 241.98L122.695 243.73V243.74Z" fill="white"/>
</mask>
<g mask="url(#mask17_145_1741)">
<path d="M129.175 243.4L112.175 238.57" stroke="#EDB74C" stroke-miterlimit="10"/>
<path d="M129.175 241.4L112.175 236.57" stroke="#EDB74C" stroke-miterlimit="10"/>
</g>
<path d="M126.735 222.8C128.305 222.8 129.585 221.53 129.585 219.95C129.585 218.37 128.315 217.1 126.735 217.1" fill="#F7AE8B"/>
<path d="M133.505 208.82C133.505 208.82 134.135 216.8 130.835 221.28C130.515 221.71 129.905 221.79 129.515 221.43C128.605 220.61 127.115 219.03 126.765 217.21C126.575 216.2 126.145 215.25 125.425 214.51C125.115 214.2 124.775 213.94 124.435 213.86C123.245 213.59 121.285 213.94 119.325 213.76C117.305 213.58 112.055 212.39 111.565 209.64C111.075 206.89 133.505 208.81 133.505 208.81V208.82Z" fill="#F27F46"/>
<mask id="mask18_145_1741" style="mask-type:luminance" maskUnits="userSpaceOnUse" x="111" y="208" width="23" height="14">
<path d="M133.505 208.82C133.505 208.82 134.135 216.8 130.835 221.28C130.515 221.71 129.905 221.79 129.515 221.43C128.605 220.61 127.115 219.03 126.765 217.21C126.575 216.2 126.145 215.25 125.425 214.51C125.115 214.2 124.775 213.94 124.435 213.86C123.245 213.59 121.285 213.94 119.325 213.76C117.305 213.58 112.055 212.39 111.565 209.64C111.075 206.89 133.505 208.81 133.505 208.81V208.82Z" fill="white"/>
</mask>
<g mask="url(#mask18_145_1741)">
<g opacity="0.4">
<path d="M131.214 209.16C132.614 209.24 133.504 209.3 133.504 209.3C133.504 209.3 134.464 217.63 131.174 222.11C130.854 222.54 130.244 222.62 129.854 222.26C129.584 222.01 129.254 221.69 128.924 221.32C131.644 217.49 131.364 211.01 131.224 209.15L131.214 209.16Z" fill="#E57645"/>
</g>
</g>
<path d="M106.124 206.18C107.224 205.75 108.614 205.43 110.384 205.31C111.314 202.44 113.864 198.65 120.874 198.01C127.834 197.37 134.094 201.67 134.584 208.64C134.594 208.82 134.604 210.06 134.604 210.06L129.104 209.74C123.734 209.43 118.354 210 113.164 211.43C111.384 211.92 109.444 212.31 107.514 212.42C103.814 212.62 102.664 207.54 106.114 206.18H106.124Z" fill="#FDC94F"/>
<mask id="mask19_145_1741" style="mask-type:luminance" maskUnits="userSpaceOnUse" x="104" y="197" width="31" height="16">
<path d="M106.124 206.18C107.224 205.75 108.614 205.43 110.384 205.31C111.314 202.44 113.864 198.65 120.874 198.01C127.834 197.37 134.094 201.67 134.584 208.64C134.594 208.82 134.604 210.06 134.604 210.06L129.104 209.74C123.734 209.43 118.354 210 113.164 211.43C111.384 211.92 109.444 212.31 107.514 212.42C103.814 212.62 102.664 207.54 106.114 206.18H106.124Z" fill="white"/>
</mask>
<g mask="url(#mask19_145_1741)">
<path opacity="0.5" d="M133.005 209.51C132.555 203.03 127.125 198.12 120.775 197.97C121.025 197.94 121.275 197.91 121.535 197.89C128.495 197.25 134.745 202.41 135.235 209.39C135.245 209.57 135.255 209.76 135.265 209.95L133.025 209.82C133.025 209.72 133.025 209.62 133.005 209.52V209.51Z" fill="#F4BD4E"/>
<g opacity="0.3">
<path d="M109.404 205.38C110.334 202.51 112.884 198.72 119.894 198.08C121.034 197.98 122.154 198.03 123.234 198.22C122.654 198.19 122.064 198.2 121.464 198.26C114.454 198.9 111.904 202.69 110.974 205.56" fill="#FCFCFC"/>
</g>
</g>
<path d="M126.655 222.96C128.225 222.96 129.915 221.65 129.915 220.08C129.915 218.51 128.645 217.23 127.065 217.23" fill="#EDA588"/>
<path d="M126.605 217.11C128.175 217.11 129.455 218.38 129.455 219.96C129.455 221.54 128.185 222.81 126.605 222.81" fill="#F7AE8B"/>
<path d="M117.464 221.32L126.624 217.98C126.624 217.98 127.994 217.42 128.944 217.98" stroke="white" stroke-width="0.39" stroke-linecap="round" stroke-linejoin="round"/>
<path d="M139.335 263.9C142.905 263.9 145.835 260.98 145.835 257.4V230.4C145.835 226.82 142.915 223.9 139.335 223.9C135.765 223.9 132.835 226.82 132.835 230.4V257.4C132.835 260.98 135.755 263.9 139.335 263.9Z" fill="#383838"/>
</g>
<path d="M75.5742 255.84C67.7142 255.84 61.2742 252.38 61.2742 248.15V240.13C61.2742 235.9 67.7042 232.44 75.5742 232.44V255.85V255.84Z" fill="#FCBB38"/>
<path d="M79.5046 315.9L44.7047 315.45C39.1747 315.45 34.6546 310.93 34.6546 305.4C34.6546 299.87 39.1747 295.35 44.7047 295.35L77.6346 295.65C77.6346 295.65 75.0146 311.77 79.5146 315.9H79.5046Z" fill="#FCBB38"/>
<mask id="mask20_145_1741" style="mask-type:luminance" maskUnits="userSpaceOnUse" x="34" y="295" width="46" height="21">
<path d="M79.5046 315.9L44.7047 315.45C39.1747 315.45 34.6546 310.93 34.6546 305.4C34.6546 299.87 39.1747 295.35 44.7047 295.35L77.6346 295.65C77.6346 295.65 75.0146 311.77 79.5146 315.9H79.5046Z" fill="white"/>
</mask>
<g mask="url(#mask20_145_1741)">
<path opacity="0.3" d="M-37.4951 310.9H152.505V318.9H-37.4951V310.9Z" fill="#E5A535"/>
</g>
<path opacity="0.3" d="M190.914 162.99H328.904V248.49H190.914V162.99Z" fill="white"/>
<mask id="mask21_145_1741" style="mask-type:luminance" maskUnits="userSpaceOnUse" x="190" y="162" width="139" height="87">
<path d="M190.914 162.99H328.904V248.49H190.914V162.99Z" fill="white"/>
</mask>
<g mask="url(#mask21_145_1741)">
<path d="M264.984 195.9H308.524V239.44H264.984V195.9Z" fill="#FCBB38"/>
<path d="M211.645 195.9H255.185V239.44H211.645V195.9Z" fill="#FCBB38"/>
<mask id="mask22_145_1741" style="mask-type:luminance" maskUnits="userSpaceOnUse" x="211" y="195" width="45" height="45">
<path d="M211.645 195.9H255.185V239.44H211.645V195.9Z" fill="white"/>
</mask>
<g mask="url(#mask22_145_1741)">
<path opacity="0.3" d="M233.425 214.9V244.65" stroke="#E8A736" stroke-miterlimit="10"/>
<path opacity="0.3" d="M226.085 193.9H240.755V214.57H226.085V193.9Z" fill="white"/>
</g>
</g>
<path d="M187.925 162.9H194.425V251.4H187.925V162.9Z" fill="#FCBA35"/>
<path d="M188.134 160.9H332.404V167.9H188.134V160.9Z" fill="#F9B130"/>
<path d="M187.875 246.4H332.385V253.4H187.875V246.4Z" fill="#F9B130"/>
<path d="M189.975 249.79C189.975 250.48 190.535 251.04 191.225 251.04C191.915 251.04 192.475 250.48 192.475 249.79C192.475 249.1 191.915 248.54 191.225 248.54C190.535 248.54 189.975 249.1 189.975 249.79Z" fill="#FCBA35"/>
<mask id="mask23_145_1741" style="mask-type:luminance" maskUnits="userSpaceOnUse" x="189" y="248" width="4" height="4">
<path d="M189.975 249.79C189.975 250.48 190.535 251.04 191.225 251.04C191.915 251.04 192.475 250.48 192.475 249.79C192.475 249.1 191.915 248.54 191.225 248.54C190.535 248.54 189.975 249.1 189.975 249.79Z" fill="white"/>
</mask>
<g mask="url(#mask23_145_1741)">
<path opacity="0.02" d="M190.605 248.71C190.445 248.92 190.345 249.18 190.345 249.47C190.345 250.16 190.905 250.72 191.595 250.72C191.825 250.72 192.035 250.65 192.215 250.55C191.985 250.85 191.635 251.04 191.225 251.04C190.535 251.04 189.975 250.48 189.975 249.79C189.975 249.33 190.225 248.93 190.605 248.71Z" fill="#010703"/>
</g>
<path d="M191.505 166.02C190.815 166.02 190.255 165.46 190.255 164.77C190.255 164.08 190.815 163.52 191.505 163.52C192.195 163.52 192.755 164.08 192.755 164.77C192.755 165.46 192.195 166.02 191.505 166.02Z" fill="#FCBA35"/>
<mask id="mask24_145_1741" style="mask-type:luminance" maskUnits="userSpaceOnUse" x="190" y="163" width="3" height="4">
<path d="M191.505 166.02C190.815 166.02 190.255 165.46 190.255 164.77C190.255 164.08 190.815 163.52 191.505 163.52C192.195 163.52 192.755 164.08 192.755 164.77C192.755 165.46 192.195 166.02 191.505 166.02Z" fill="white"/>
</mask>
<g mask="url(#mask24_145_1741)">
<path opacity="0.02" d="M190.885 163.7C190.725 163.91 190.625 164.17 190.625 164.46C190.625 165.15 191.185 165.71 191.875 165.71C192.105 165.71 192.315 165.64 192.495 165.54C192.265 165.84 191.915 166.03 191.505 166.03C190.815 166.03 190.255 165.47 190.255 164.78C190.255 164.32 190.505 163.92 190.885 163.7Z" fill="#010703"/>
</g>
<path d="M159.464 87.0699H99.4844C92.7944 87.0699 87.1944 81.7299 87.1644 75.0299C87.1644 74.9899 87.1644 74.9399 87.1644 74.8999C87.1644 63.5199 94.0344 53.7499 103.854 49.4999C104.414 37.4799 114.334 27.8999 126.494 27.8999C138.654 27.8999 148.844 37.7499 149.144 49.9999C149.804 49.9399 150.474 49.8999 151.154 49.8999C162.934 49.8999 172.484 59.4499 172.484 71.2299C172.484 74.4199 171.784 77.4399 170.524 80.1499C168.544 84.4199 164.154 87.0599 159.454 87.0599L159.464 87.0699Z" fill="#FCFCFC"/>
<mask id="mask25_145_1741" style="mask-type:luminance" maskUnits="userSpaceOnUse" x="87" y="27" width="86" height="61">
<path d="M159.464 87.0699H99.4844C92.7944 87.0699 87.1944 81.7299 87.1644 75.0299C87.1644 74.9899 87.1644 74.9399 87.1644 74.8999C87.1644 63.5199 94.0344 53.7499 103.854 49.4999C104.414 37.4799 114.334 27.8999 126.494 27.8999C138.654 27.8999 148.844 37.7499 149.144 49.9999C149.804 49.9399 150.474 49.8999 151.154 49.8999C162.934 49.8999 172.484 59.4499 172.484 71.2299C172.484 74.4199 171.784 77.4399 170.524 80.1499C168.544 84.4199 164.154 87.0599 159.454 87.0599L159.464 87.0699Z" fill="white"/>
</mask>
<g mask="url(#mask25_145_1741)">
<path opacity="0.5" d="M103.864 49.4999C104.424 37.4799 114.344 27.8999 126.504 27.8999C128.934 27.8999 131.284 28.2899 133.474 28.9999C122.254 29.9999 113.384 39.1499 112.864 50.4999C103.044 54.7499 96.1736 64.5199 96.1736 75.8999C96.1736 75.9399 96.1736 75.9899 96.1736 76.0299C96.1936 80.9999 99.2936 85.2199 103.624 87.0699H99.4936C92.8036 87.0699 87.2036 81.7299 87.1736 75.0299C87.1736 74.9899 87.1736 74.9399 87.1736 74.8999C87.1736 63.5199 94.0436 53.7499 103.864 49.4999Z" fill="#F4F4F4"/>
<path opacity="0.4" d="M150.174 99.39C147.674 99.39 145.254 99.0499 142.954 98.4399C156.724 97.5899 167.624 86.79 167.624 73.59C167.624 62.19 159.504 52.5899 148.434 49.6299C149.014 49.5899 149.594 49.5699 150.174 49.5699C164.764 49.5699 176.584 60.7199 176.584 74.4799C176.584 88.24 164.764 99.39 150.174 99.39Z" fill="#EDEDED"/>
</g>
</svg>
