<svg width="407" height="343" viewBox="0 0 407 343" fill="none" xmlns="http://www.w3.org/2000/svg">
<path d="M406.94 214.72C408.05 327.09 314.24 325.51 201.87 325.51C89.5 325.51 0 327.09 0 214.72C0 102.35 108.95 0 194.56 0C347.55 0 406.05 124.49 406.94 214.72Z" fill="#D6F1F2"/>
<mask id="mask0_145_3460" style="mask-type:luminance" maskUnits="userSpaceOnUse" x="0" y="0" width="407" height="326">
<path d="M406.94 214.72C408.05 327.09 314.24 325.51 201.87 325.51C89.5 325.51 0 327.09 0 214.72C0 102.35 108.95 0 194.56 0C347.55 0 406.05 124.49 406.94 214.72Z" fill="white"/>
</mask>
<g mask="url(#mask0_145_3460)">
<path opacity="0.3" d="M279.631 -21.6699C346.441 26.9401 377.071 115.16 377.071 195.12C377.071 314.48 279.631 312.8 161.511 312.8C104.531 312.8 53.1507 313.19 15.2207 300.19C52.0507 334.23 119.641 333.51 197.771 333.51C315.891 333.51 413.331 335.19 413.331 215.83C413.331 122.61 371.701 18.1401 279.631 -21.6699Z" fill="white"/>
<path opacity="0.4" d="M363.35 137.28V200.85H330.93V141.54H325.48V131.28H321.79V118.95H317.05V113.28L309.72 104.86L302.96 113.28V118.95H298.22V131.28H294.53V141.54H289.08V166.59H252.78V141.54L210.95 169.77V230.75H184.57V116.25H174.94V106.18H160.6V88.1801H155.94V40.6101C155.94 40.0601 155.49 39.6101 154.94 39.6101C154.39 39.6101 153.94 40.0601 153.94 40.6101V88.1801H149.28V106.18H134.94V116.25H126.07V200.84H111.79V141.53H69.9603V166.58H57.7803V143.53H48.5303V133.46H38.5303V115.46H18.5303V133.46H8.53027V143.53H-0.719727V332.24H363.35V343.28H413.35V137.28H363.35Z" fill="#9EAFAE"/>
</g>
<path d="M374.36 322.91C374.36 333.91 298.92 342.82 205.86 342.82C112.8 342.82 37.3604 333.9 37.3604 322.91C37.3604 311.92 105.2 310.98 198.26 310.98C291.32 310.98 374.36 311.91 374.36 322.91Z" fill="#F2F2F2"/>
<path d="M13.4199 245.88H107.68" stroke="white" stroke-width="3.28" stroke-linecap="round" stroke-linejoin="round"/>
<path d="M25.5596 264.81H107.68" stroke="white" stroke-width="3.28" stroke-linecap="round" stroke-linejoin="round"/>
<path d="M45.0801 283.74H107.68" stroke="white" stroke-width="3.28" stroke-linecap="round" stroke-linejoin="round"/>
<path d="M75.0802 144.38H219.81C228.71 144.38 235.94 151.61 235.94 160.51V294.37H58.9502V160.51C58.9502 151.61 66.1802 144.38 75.0802 144.38Z" fill="#FDC94F"/>
<mask id="mask1_145_3460" style="mask-type:luminance" maskUnits="userSpaceOnUse" x="58" y="144" width="178" height="151">
<path d="M75.0802 144.38H219.81C228.71 144.38 235.94 151.61 235.94 160.51V294.37H58.9502V160.51C58.9502 151.61 66.1802 144.38 75.0802 144.38Z" fill="white"/>
</mask>
<g mask="url(#mask1_145_3460)">
<path opacity="0.02" d="M58.4697 142.9C58.4697 142.9 99.2897 296.01 210.47 302.9L29.4697 303.9L58.4697 142.9Z" fill="#383838"/>
<path d="M60.4697 300.4C56.6197 300.4 53.4697 297.25 53.4697 293.4V262.4C53.4697 258.55 56.6197 255.4 60.4697 255.4C64.3197 255.4 67.4697 258.55 67.4697 262.4V293.4C67.4697 297.25 64.3197 300.4 60.4697 300.4Z" fill="#F9D698"/>
<path d="M105.47 341.23C125.904 341.23 142.47 324.665 142.47 304.23C142.47 283.795 125.904 267.23 105.47 267.23C85.0352 267.23 68.4697 283.795 68.4697 304.23C68.4697 324.665 85.0352 341.23 105.47 341.23Z" fill="#383838"/>
</g>
<path d="M235.469 183.9H299.589C304.589 183.9 309.329 186.1 312.559 189.91L358.459 244.15C361.049 247.22 362.509 251.09 362.569 255.1L363.209 297.53C363.359 307.12 355.699 315.01 346.119 315.16L234.479 316.89L235.479 183.89L235.469 183.9Z" fill="#FDC94F"/>
<mask id="mask2_145_3460" style="mask-type:luminance" maskUnits="userSpaceOnUse" x="234" y="183" width="130" height="134">
<path d="M235.469 183.9H299.589C304.589 183.9 309.329 186.1 312.559 189.91L358.459 244.15C361.049 247.22 362.509 251.09 362.569 255.1L363.209 297.53C363.359 307.12 355.699 315.01 346.119 315.16L234.479 316.89L235.479 183.89L235.469 183.9Z" fill="white"/>
</mask>
<g mask="url(#mask2_145_3460)">
<path d="M375.8 298.23H349.8C346.13 298.23 343.13 295.23 343.13 291.56C343.13 287.89 346.13 284.89 349.8 284.89H375.8C379.47 284.89 382.47 287.89 382.47 291.56C382.47 295.23 379.47 298.23 375.8 298.23Z" fill="#F9D698"/>
<path d="M292.47 341.23C312.904 341.23 329.47 324.665 329.47 304.23C329.47 283.795 312.904 267.23 292.47 267.23C272.035 267.23 255.47 283.795 255.47 304.23C255.47 324.665 272.035 341.23 292.47 341.23Z" fill="#383838"/>
</g>
<path d="M234.47 316.9H55.9697C49.6197 316.9 44.4697 311.75 44.4697 305.4C44.4697 299.05 49.6197 293.9 55.9697 293.9H234.47V316.9Z" fill="#FCBB38"/>
<mask id="mask3_145_3460" style="mask-type:luminance" maskUnits="userSpaceOnUse" x="44" y="293" width="191" height="24">
<path d="M234.47 316.9H55.9697C49.6197 316.9 44.4697 311.75 44.4697 305.4C44.4697 299.05 49.6197 293.9 55.9697 293.9H234.47V316.9Z" fill="white"/>
</mask>
<g mask="url(#mask3_145_3460)">
<path opacity="0.3" d="M233.47 311.9H43.4697V319.9H233.47V311.9Z" fill="#E5A535"/>
<path d="M105.47 341.23C125.904 341.23 142.47 324.665 142.47 304.23C142.47 283.795 125.904 267.23 105.47 267.23C85.0352 267.23 68.4697 283.795 68.4697 304.23C68.4697 324.665 85.0352 341.23 105.47 341.23Z" fill="#383838"/>
</g>
<path d="M124.35 301.79L122.01 296.26L114.28 299.53C112.18 300.42 109.88 298.73 110.11 296.46L110.93 288.11L104.96 287.53L104.32 294.07C104.08 296.53 101.14 297.67 99.2997 296.01L94.4197 291.61L90.3997 296.06L97.1197 302.13C98.7597 303.61 98.2997 306.29 96.2697 307.14L87.9297 310.67L90.2697 316.2L97.9997 312.93C100.1 312.04 102.4 313.73 102.17 316L101.35 324.35L107.32 324.93L107.96 318.39C108.2 315.93 111.14 314.79 112.98 316.45L117.86 320.85L121.88 316.4L115.16 310.33C113.52 308.85 113.98 306.17 116.01 305.32L124.35 301.79Z" fill="#B5B5B5"/>
<path d="M128.86 295.9C123.27 282.86 108.17 276.83 95.1296 282.42C82.0896 288.01 76.0596 303.11 81.6496 316.15C87.2396 329.19 102.34 335.22 115.38 329.63C128.42 324.04 134.45 308.94 128.86 295.9ZM112.19 322.19C103.26 326.02 92.9196 321.89 89.0896 312.96C85.2596 304.03 89.3896 293.69 98.3196 289.86C107.25 286.03 117.59 290.16 121.42 299.09C125.25 308.02 121.12 318.36 112.19 322.19Z" fill="#A4A6A5"/>
<mask id="mask4_145_3460" style="mask-type:luminance" maskUnits="userSpaceOnUse" x="79" y="280" width="52" height="52">
<path d="M128.86 295.9C123.27 282.86 108.17 276.83 95.1296 282.42C82.0896 288.01 76.0596 303.11 81.6496 316.15C87.2396 329.19 102.34 335.22 115.38 329.63C128.42 324.04 134.45 308.94 128.86 295.9ZM112.19 322.19C103.26 326.02 92.9196 321.89 89.0896 312.96C85.2596 304.03 89.3896 293.69 98.3196 289.86C107.25 286.03 117.59 290.16 121.42 299.09C125.25 308.02 121.12 318.36 112.19 322.19Z" fill="white"/>
</mask>
<g mask="url(#mask4_145_3460)">
<path d="M127.359 297.58C125.629 293.56 122.889 290.29 119.549 287.94C121.739 290.02 123.559 292.56 124.829 295.51C129.799 307.09 124.439 320.51 112.849 325.48C105.289 328.72 96.9495 327.56 90.6895 323.15C97.0995 329.22 106.749 331.26 115.379 327.55C126.959 322.58 132.329 309.16 127.359 297.58Z" fill="#9A9B9A"/>
</g>
<path d="M134.96 293.28C127.92 276.88 108.92 269.29 92.5199 276.32C76.1199 283.36 68.5299 302.36 75.5599 318.76C82.5999 335.16 101.6 342.75 118 335.72C134.4 328.68 141.99 309.68 134.96 293.28ZM114.11 326.83C102.8 331.68 89.6999 326.45 84.8399 315.13C79.9899 303.82 85.2199 290.72 96.5399 285.86C107.85 281.01 120.95 286.24 125.81 297.56C130.66 308.87 125.43 321.97 114.11 326.83Z" fill="#5B5B5B"/>
<mask id="mask5_145_3460" style="mask-type:luminance" maskUnits="userSpaceOnUse" x="72" y="273" width="66" height="66">
<path d="M134.96 293.28C127.92 276.88 108.92 269.29 92.5199 276.32C76.1199 283.36 68.5299 302.36 75.5599 318.76C82.5999 335.16 101.6 342.75 118 335.72C134.4 328.68 141.99 309.68 134.96 293.28ZM114.11 326.83C102.8 331.68 89.6999 326.45 84.8399 315.13C79.9899 303.82 85.2199 290.72 96.5399 285.86C107.85 281.01 120.95 286.24 125.81 297.56C130.66 308.87 125.43 321.97 114.11 326.83Z" fill="white"/>
</mask>
<g mask="url(#mask5_145_3460)">
<g opacity="0.2">
<path d="M136.129 294.08C134.119 289.39 131.119 285.42 127.499 282.31C129.599 284.75 131.359 287.54 132.699 290.65C139.739 307.05 132.139 326.05 115.739 333.09C104.029 338.11 90.9995 335.68 81.9395 327.9C90.8895 338.31 105.889 342.22 119.179 336.52C135.579 329.48 143.169 310.48 136.139 294.08H136.129Z" fill="#161616"/>
</g>
</g>
<path d="M107.7 302.15C107.7 303.1 106.93 303.87 105.98 303.87C105.03 303.87 104.26 303.1 104.26 302.15C104.26 301.2 105.03 300.43 105.98 300.43C106.93 300.43 107.7 301.2 107.7 302.15Z" fill="#727172"/>
<mask id="mask6_145_3460" style="mask-type:luminance" maskUnits="userSpaceOnUse" x="104" y="300" width="4" height="4">
<path d="M107.7 302.15C107.7 303.1 106.93 303.87 105.98 303.87C105.03 303.87 104.26 303.1 104.26 302.15C104.26 301.2 105.03 300.43 105.98 300.43C106.93 300.43 107.7 301.2 107.7 302.15Z" fill="white"/>
</mask>
<g mask="url(#mask6_145_3460)">
<path opacity="0.3" d="M107.22 300.72C107.34 300.97 107.41 301.25 107.41 301.55C107.41 302.63 106.54 303.5 105.46 303.5C104.88 303.5 104.37 303.24 104.01 302.84C104.32 303.5 104.99 303.96 105.76 303.96C106.83 303.96 107.71 303.09 107.71 302.01C107.71 301.51 107.52 301.06 107.21 300.72H107.22Z" fill="#5B5B5B"/>
</g>
<path d="M107.7 310.31C107.7 311.26 106.93 312.03 105.98 312.03C105.03 312.03 104.26 311.26 104.26 310.31C104.26 309.36 105.03 308.59 105.98 308.59C106.93 308.59 107.7 309.36 107.7 310.31Z" fill="#727172"/>
<mask id="mask7_145_3460" style="mask-type:luminance" maskUnits="userSpaceOnUse" x="104" y="308" width="4" height="5">
<path d="M107.7 310.31C107.7 311.26 106.93 312.03 105.98 312.03C105.03 312.03 104.26 311.26 104.26 310.31C104.26 309.36 105.03 308.59 105.98 308.59C106.93 308.59 107.7 309.36 107.7 310.31Z" fill="white"/>
</mask>
<g mask="url(#mask7_145_3460)">
<path opacity="0.3" d="M107.22 308.88C107.34 309.13 107.41 309.41 107.41 309.71C107.41 310.79 106.54 311.66 105.46 311.66C104.88 311.66 104.37 311.4 104.01 311C104.32 311.66 104.99 312.12 105.76 312.12C106.83 312.12 107.71 311.25 107.71 310.17C107.71 309.67 107.52 309.22 107.21 308.88H107.22Z" fill="#5B5B5B"/>
</g>
<path d="M109.57 308.04C108.62 308.04 107.85 307.27 107.85 306.32C107.85 305.37 108.62 304.6 109.57 304.6C110.52 304.6 111.29 305.37 111.29 306.32C111.29 307.27 110.52 308.04 109.57 308.04Z" fill="#727172"/>
<mask id="mask8_145_3460" style="mask-type:luminance" maskUnits="userSpaceOnUse" x="107" y="304" width="5" height="5">
<path d="M109.57 308.04C108.62 308.04 107.85 307.27 107.85 306.32C107.85 305.37 108.62 304.6 109.57 304.6C110.52 304.6 111.29 305.37 111.29 306.32C111.29 307.27 110.52 308.04 109.57 308.04Z" fill="white"/>
</mask>
<g mask="url(#mask8_145_3460)">
<path opacity="0.3" d="M111 307.57C110.75 307.69 110.47 307.76 110.17 307.76C109.1 307.76 108.22 306.89 108.22 305.81C108.22 305.23 108.48 304.72 108.88 304.36C108.22 304.67 107.76 305.34 107.76 306.11C107.76 307.19 108.63 308.06 109.71 308.06C110.21 308.06 110.66 307.87 111 307.56V307.57Z" fill="#5B5B5B"/>
</g>
<path d="M102.21 308.04C101.26 308.04 100.49 307.27 100.49 306.32C100.49 305.37 101.26 304.6 102.21 304.6C103.16 304.6 103.93 305.37 103.93 306.32C103.93 307.27 103.16 308.04 102.21 308.04Z" fill="#727172"/>
<mask id="mask9_145_3460" style="mask-type:luminance" maskUnits="userSpaceOnUse" x="100" y="304" width="4" height="5">
<path d="M102.21 308.04C101.26 308.04 100.49 307.27 100.49 306.32C100.49 305.37 101.26 304.6 102.21 304.6C103.16 304.6 103.93 305.37 103.93 306.32C103.93 307.27 103.16 308.04 102.21 308.04Z" fill="white"/>
</mask>
<g mask="url(#mask9_145_3460)">
<path opacity="0.3" d="M103.64 307.57C103.39 307.69 103.11 307.76 102.81 307.76C101.74 307.76 100.86 306.89 100.86 305.81C100.86 305.23 101.12 304.72 101.52 304.36C100.86 304.67 100.4 305.34 100.4 306.11C100.4 307.19 101.27 308.06 102.35 308.06C102.85 308.06 103.3 307.87 103.64 307.56V307.57Z" fill="#5B5B5B"/>
</g>
<path d="M311.35 301.79L309.01 296.26L301.28 299.53C299.18 300.42 296.88 298.73 297.11 296.46L297.93 288.11L291.96 287.53L291.32 294.07C291.08 296.53 288.14 297.67 286.3 296.01L281.42 291.61L277.4 296.06L284.12 302.13C285.76 303.61 285.3 306.29 283.27 307.14L274.93 310.67L277.27 316.2L285 312.93C287.1 312.04 289.4 313.73 289.17 316L288.35 324.35L294.32 324.93L294.96 318.39C295.2 315.93 298.14 314.79 299.98 316.45L304.86 320.85L308.88 316.4L302.16 310.33C300.52 308.85 300.98 306.17 303.01 305.32L311.35 301.79Z" fill="#B5B5B5"/>
<path d="M315.86 295.9C310.27 282.86 295.17 276.83 282.13 282.42C269.09 288.01 263.06 303.11 268.65 316.15C274.24 329.19 289.34 335.22 302.38 329.63C315.42 324.04 321.45 308.94 315.86 295.9ZM299.19 322.19C290.26 326.02 279.92 321.89 276.09 312.96C272.26 304.03 276.39 293.69 285.32 289.86C294.25 286.03 304.59 290.16 308.42 299.09C312.25 308.02 308.12 318.36 299.19 322.19Z" fill="#A4A6A5"/>
<mask id="mask10_145_3460" style="mask-type:luminance" maskUnits="userSpaceOnUse" x="266" y="280" width="52" height="52">
<path d="M315.86 295.9C310.27 282.86 295.17 276.83 282.13 282.42C269.09 288.01 263.06 303.11 268.65 316.15C274.24 329.19 289.34 335.22 302.38 329.63C315.42 324.04 321.45 308.94 315.86 295.9ZM299.19 322.19C290.26 326.02 279.92 321.89 276.09 312.96C272.26 304.03 276.39 293.69 285.32 289.86C294.25 286.03 304.59 290.16 308.42 299.09C312.25 308.02 308.12 318.36 299.19 322.19Z" fill="white"/>
</mask>
<g mask="url(#mask10_145_3460)">
<path d="M314.359 297.58C312.629 293.56 309.889 290.29 306.549 287.94C308.739 290.02 310.559 292.56 311.829 295.51C316.799 307.09 311.439 320.51 299.849 325.48C292.289 328.72 283.949 327.56 277.689 323.15C284.099 329.22 293.749 331.26 302.379 327.55C313.959 322.58 319.329 309.16 314.359 297.58Z" fill="#9A9B9A"/>
</g>
<path d="M321.96 293.28C314.92 276.88 295.92 269.29 279.52 276.32C263.12 283.36 255.53 302.36 262.56 318.76C269.6 335.16 288.6 342.75 305 335.72C321.4 328.68 328.99 309.68 321.96 293.28ZM301.11 326.83C289.8 331.68 276.7 326.45 271.84 315.13C266.99 303.82 272.22 290.72 283.54 285.86C294.85 281.01 307.95 286.24 312.81 297.56C317.66 308.87 312.43 321.97 301.11 326.83Z" fill="#5B5B5B"/>
<mask id="mask11_145_3460" style="mask-type:luminance" maskUnits="userSpaceOnUse" x="259" y="273" width="66" height="66">
<path d="M321.96 293.28C314.92 276.88 295.92 269.29 279.52 276.32C263.12 283.36 255.53 302.36 262.56 318.76C269.6 335.16 288.6 342.75 305 335.72C321.4 328.68 328.99 309.68 321.96 293.28ZM301.11 326.83C289.8 331.68 276.7 326.45 271.84 315.13C266.99 303.82 272.22 290.72 283.54 285.86C294.85 281.01 307.95 286.24 312.81 297.56C317.66 308.87 312.43 321.97 301.11 326.83Z" fill="white"/>
</mask>
<g mask="url(#mask11_145_3460)">
<g opacity="0.2">
<path d="M323.129 294.08C321.119 289.39 318.119 285.42 314.499 282.31C316.599 284.75 318.359 287.54 319.699 290.65C326.739 307.05 319.139 326.05 302.739 333.09C291.029 338.11 277.999 335.68 268.939 327.9C277.889 338.31 292.889 342.22 306.179 336.52C322.579 329.48 330.169 310.48 323.139 294.08H323.129Z" fill="#161616"/>
</g>
</g>
<path d="M294.7 302.15C294.7 303.1 293.93 303.87 292.98 303.87C292.03 303.87 291.26 303.1 291.26 302.15C291.26 301.2 292.03 300.43 292.98 300.43C293.93 300.43 294.7 301.2 294.7 302.15Z" fill="#727172"/>
<mask id="mask12_145_3460" style="mask-type:luminance" maskUnits="userSpaceOnUse" x="291" y="300" width="4" height="4">
<path d="M294.7 302.15C294.7 303.1 293.93 303.87 292.98 303.87C292.03 303.87 291.26 303.1 291.26 302.15C291.26 301.2 292.03 300.43 292.98 300.43C293.93 300.43 294.7 301.2 294.7 302.15Z" fill="white"/>
</mask>
<g mask="url(#mask12_145_3460)">
<path opacity="0.3" d="M294.22 300.72C294.34 300.97 294.41 301.25 294.41 301.55C294.41 302.63 293.54 303.5 292.46 303.5C291.88 303.5 291.37 303.24 291.01 302.84C291.32 303.5 291.99 303.96 292.76 303.96C293.83 303.96 294.71 303.09 294.71 302.01C294.71 301.51 294.52 301.06 294.21 300.72H294.22Z" fill="#5B5B5B"/>
</g>
<path d="M294.7 310.31C294.7 311.26 293.93 312.03 292.98 312.03C292.03 312.03 291.26 311.26 291.26 310.31C291.26 309.36 292.03 308.59 292.98 308.59C293.93 308.59 294.7 309.36 294.7 310.31Z" fill="#727172"/>
<mask id="mask13_145_3460" style="mask-type:luminance" maskUnits="userSpaceOnUse" x="291" y="308" width="4" height="5">
<path d="M294.7 310.31C294.7 311.26 293.93 312.03 292.98 312.03C292.03 312.03 291.26 311.26 291.26 310.31C291.26 309.36 292.03 308.59 292.98 308.59C293.93 308.59 294.7 309.36 294.7 310.31Z" fill="white"/>
</mask>
<g mask="url(#mask13_145_3460)">
<path opacity="0.3" d="M294.22 308.88C294.34 309.13 294.41 309.41 294.41 309.71C294.41 310.79 293.54 311.66 292.46 311.66C291.88 311.66 291.37 311.4 291.01 311C291.32 311.66 291.99 312.12 292.76 312.12C293.83 312.12 294.71 311.25 294.71 310.17C294.71 309.67 294.52 309.22 294.21 308.88H294.22Z" fill="#5B5B5B"/>
</g>
<path d="M296.57 308.04C295.62 308.04 294.85 307.27 294.85 306.32C294.85 305.37 295.62 304.6 296.57 304.6C297.52 304.6 298.29 305.37 298.29 306.32C298.29 307.27 297.52 308.04 296.57 308.04Z" fill="#727172"/>
<mask id="mask14_145_3460" style="mask-type:luminance" maskUnits="userSpaceOnUse" x="294" y="304" width="5" height="5">
<path d="M296.57 308.04C295.62 308.04 294.85 307.27 294.85 306.32C294.85 305.37 295.62 304.6 296.57 304.6C297.52 304.6 298.29 305.37 298.29 306.32C298.29 307.27 297.52 308.04 296.57 308.04Z" fill="white"/>
</mask>
<g mask="url(#mask14_145_3460)">
<path opacity="0.3" d="M298 307.57C297.75 307.69 297.47 307.76 297.17 307.76C296.1 307.76 295.22 306.89 295.22 305.81C295.22 305.23 295.48 304.72 295.88 304.36C295.22 304.67 294.76 305.34 294.76 306.11C294.76 307.19 295.63 308.06 296.71 308.06C297.21 308.06 297.66 307.87 298 307.56V307.57Z" fill="#5B5B5B"/>
</g>
<path d="M289.21 308.04C288.26 308.04 287.49 307.27 287.49 306.32C287.49 305.37 288.26 304.6 289.21 304.6C290.16 304.6 290.93 305.37 290.93 306.32C290.93 307.27 290.16 308.04 289.21 308.04Z" fill="#727172"/>
<mask id="mask15_145_3460" style="mask-type:luminance" maskUnits="userSpaceOnUse" x="287" y="304" width="4" height="5">
<path d="M289.21 308.04C288.26 308.04 287.49 307.27 287.49 306.32C287.49 305.37 288.26 304.6 289.21 304.6C290.16 304.6 290.93 305.37 290.93 306.32C290.93 307.27 290.16 308.04 289.21 308.04Z" fill="white"/>
</mask>
<g mask="url(#mask15_145_3460)">
<path opacity="0.3" d="M290.64 307.57C290.39 307.69 290.11 307.76 289.81 307.76C288.74 307.76 287.86 306.89 287.86 305.81C287.86 305.23 288.12 304.72 288.52 304.36C287.86 304.67 287.4 305.34 287.4 306.11C287.4 307.19 288.27 308.06 289.35 308.06C289.85 308.06 290.3 307.87 290.64 307.56V307.57Z" fill="#5B5B5B"/>
</g>
<path d="M249.02 248.23H346.47L302.47 196.23L248.94 196.8C244.99 196.84 241.8 200.06 241.8 204.01V241.01C241.8 244.99 245.03 248.22 249.01 248.22L249.02 248.23Z" fill="#D6F1F2"/>
<mask id="mask16_145_3460" style="mask-type:luminance" maskUnits="userSpaceOnUse" x="241" y="196" width="106" height="53">
<path d="M249.02 248.23H346.47L302.47 196.23L248.94 196.8C244.99 196.84 241.8 200.06 241.8 204.01V241.01C241.8 244.99 245.03 248.22 249.01 248.22L249.02 248.23Z" fill="white"/>
</mask>
<g mask="url(#mask16_145_3460)">
<path d="M314.65 242.34C314.65 242.34 321.92 244.3 321.72 250.78" stroke="#EAA936" stroke-width="3.14" stroke-linecap="round" stroke-linejoin="round"/>
<path d="M281.27 234.07C281.41 236.57 283.4 238.83 284.58 241.03L288.94 248.42C290.91 252.58 293.35 252.4 297.32 251.55L311.02 247.38L312.66 244.04L313.12 243.77C294.8 250.74 292.09 243.16 290.98 240.19C290.78 239.65 290.3 238.78 290.13 238.23C289.47 236.77 289.23 236.92 288.72 235.4C287.96 233.1 286.8 229.7 283.38 229.57C281.34 229.49 281.11 231.29 281.26 234.06L281.27 234.07Z" fill="#E59F83"/>
<mask id="mask17_145_3460" style="mask-type:luminance" maskUnits="userSpaceOnUse" x="281" y="229" width="33" height="24">
<path d="M281.27 234.07C281.41 236.57 283.4 238.83 284.58 241.03L288.94 248.42C290.91 252.58 293.35 252.4 297.32 251.55L311.02 247.38L312.66 244.04L313.12 243.77C294.8 250.74 292.09 243.16 290.98 240.19C290.78 239.65 290.3 238.78 290.13 238.23C289.47 236.77 289.23 236.92 288.72 235.4C287.96 233.1 286.8 229.7 283.38 229.57C281.34 229.49 281.11 231.29 281.26 234.06L281.27 234.07Z" fill="white"/>
</mask>
<g mask="url(#mask17_145_3460)">
<path opacity="0.4" d="M313.019 246.88C294.199 252.59 292.809 253.4 286.759 242.28C284.929 238.92 282.679 233.34 283.389 229.58L279.029 232.05L288.829 248.84C290.099 253.17 293.619 253.65 296.199 252.15L313.229 247.33L313.029 246.89L313.019 246.88Z" fill="#EAA286"/>
</g>
<path d="M316.03 238.8L312.02 249.39" stroke="#DD9D36" stroke-width="3.14" stroke-linecap="round" stroke-linejoin="round"/>
<path d="M273.81 258.44C272.51 258.15 272.84 255.95 272.87 254.62C272.98 250.14 271.16 240.55 275.22 233.65C275.97 232.37 277.96 228.97 279.86 228.31C280.97 227.92 281.35 225.34 281.82 223.65L288.63 227.11C288.63 227.11 286.87 228.29 288.37 231.43C290.07 234.99 288.76 244.24 288.76 244.24C288.76 244.24 290.64 253.76 288.9 259.7C288.62 260.65 287.61 261.91 286.64 261.72L273.82 258.43L273.81 258.44Z" fill="#DD9D36"/>
<mask id="mask18_145_3460" style="mask-type:luminance" maskUnits="userSpaceOnUse" x="272" y="223" width="18" height="39">
<path d="M273.81 258.44C272.51 258.15 272.84 255.95 272.87 254.62C272.98 250.14 271.16 240.55 275.22 233.65C275.97 232.37 277.96 228.97 279.86 228.31C280.97 227.92 281.35 225.34 281.82 223.65L288.63 227.11C288.63 227.11 286.87 228.29 288.37 231.43C290.07 234.99 288.76 244.24 288.76 244.24C288.76 244.24 290.64 253.76 288.9 259.7C288.62 260.65 287.61 261.91 286.64 261.72L273.82 258.43L273.81 258.44Z" fill="white"/>
</mask>
<g mask="url(#mask18_145_3460)">
<path d="M278.64 228.23C283.89 227.73 283.73 228.98 290.11 231.73C291.03 232.12 293.01 229.17 293.01 229.17L286.57 222.13L279.34 221.19L278.63 228.23H278.64Z" fill="#F7AE8B"/>
<path opacity="0.1" d="M280.77 236.52C280.77 236.52 284.75 249.48 288.3 253.33C292.13 257.48 301.79 252.04 301.79 252.04L291.18 249.57L280.78 236.52H280.77Z" fill="#AD3E47"/>
<path d="M297.02 208.89C295.86 228.67 295.61 231.05 286.87 228.3C278.24 225.59 273.7 221 271.62 209.17C269.64 197.92 274.72 198.16 282.42 197.66C295.52 196.81 297.32 203.69 297.02 208.89Z" fill="#EFA689"/>
<path opacity="0.1" d="M279.86 228.31C279.86 228.31 274.44 228.98 273.92 248.88L272.16 260.39L269.22 257.84C269.22 257.84 269.88 228.73 279.86 228.31Z" fill="#AD3E47"/>
</g>
<path d="M282 236.44C282.14 238.94 283.09 239.91 284.27 242.11L288.63 249.5C290.6 253.66 293.04 253.48 297.01 252.63L310.71 248.46L312.35 245.12L312.81 244.85C299.72 247.74 296.11 248.6 294.46 245.9C290.98 240.19 291.13 241.62 290.96 241.07L289.86 235.77C289.2 234.31 290.36 237.29 289.86 235.77C289.1 233.47 288.34 232.73 284.92 232.6C282.88 232.52 281.84 233.67 281.99 236.44H282Z" fill="#F7AE8B"/>
<mask id="mask19_145_3460" style="mask-type:luminance" maskUnits="userSpaceOnUse" x="281" y="232" width="32" height="22">
<path d="M282 236.44C282.14 238.94 283.09 239.91 284.27 242.11L288.63 249.5C290.6 253.66 293.04 253.48 297.01 252.63L310.71 248.46L312.35 245.12L312.81 244.85C299.72 247.74 296.11 248.6 294.46 245.9C290.98 240.19 291.13 241.62 290.96 241.07L289.86 235.77C289.2 234.31 290.36 237.29 289.86 235.77C289.1 233.47 288.34 232.73 284.92 232.6C282.88 232.52 281.84 233.67 281.99 236.44H282Z" fill="white"/>
</mask>
<g mask="url(#mask19_145_3460)">
<path opacity="0.4" d="M312.719 247.96C293.899 253.67 292.509 254.48 286.459 243.36C284.629 240 282.379 234.42 283.089 230.66L278.729 233.13L288.529 249.92C289.799 254.25 293.319 254.73 295.899 253.23L312.929 248.41L312.729 247.97L312.719 247.96Z" fill="#EAA286"/>
</g>
<path d="M294.17 202.96C295.72 204.74 296.56 207.05 296.61 209.41C296.91 225.59 296.59 231.34 286.98 227.54C280.03 224.79 275.14 222.67 273.57 210.77C273.21 208.06 274.43 200.83 282.06 199.63C288.54 198.61 292.17 200.66 294.17 202.96Z" fill="#F7AE8B"/>
<mask id="mask20_145_3460" style="mask-type:luminance" maskUnits="userSpaceOnUse" x="273" y="199" width="24" height="30">
<path d="M294.17 202.96C295.72 204.74 296.56 207.05 296.61 209.41C296.91 225.59 296.59 231.34 286.98 227.54C280.03 224.79 275.14 222.67 273.57 210.77C273.21 208.06 274.43 200.83 282.06 199.63C288.54 198.61 292.17 200.66 294.17 202.96Z" fill="white"/>
</mask>
<g mask="url(#mask20_145_3460)">
<path opacity="0.05" d="M304.651 185.01C304.651 185.01 313.661 232.18 288.091 234.17C288.091 234.17 306.681 237.3 309.821 226.68C312.961 216.07 319.331 183.35 304.651 185V185.01Z" fill="#99594B"/>
</g>
<path d="M296.01 216.96C296.01 216.96 298.31 221.23 297.94 221.74C297.45 222.42 294.91 222.54 294.91 222.54" fill="#F7AE8B"/>
<path d="M294.541 217.81C294.491 218.87 293.791 219.7 292.991 219.66C292.191 219.62 291.581 218.73 291.631 217.67C291.681 216.61 292.381 215.78 293.181 215.82C293.981 215.86 294.591 216.75 294.541 217.81Z" fill="#1D1D1B"/>
<path d="M281.111 218.54C281.441 216.82 283.001 215.68 284.581 215.99C286.161 216.3 287.181 217.94 286.851 219.65C286.521 221.37 284.961 222.51 283.381 222.2C281.801 221.89 280.781 220.25 281.111 218.54Z" fill="#F7AE8B"/>
<path d="M290.641 214.55C290.641 214.55 292.121 213.03 294.221 213.78" stroke="#F27F46" stroke-width="1.27" stroke-linecap="round" stroke-linejoin="round"/>
<path d="M289.7 226.5C286.41 226.01 283.06 224.91 279.21 222.53" stroke="white" stroke-width="0.39" stroke-miterlimit="10"/>
<path d="M288.47 220.87C288.47 220.87 297.24 220.12 297.34 219.15C297.43 218.27 299.46 222.75 297.49 226.58C297.12 227.3 295.56 228.52 294.75 228.4L289.53 226.71L288.47 220.87Z" fill="#F9F9F9"/>
<mask id="mask21_145_3460" style="mask-type:luminance" maskUnits="userSpaceOnUse" x="288" y="219" width="11" height="10">
<path d="M288.47 220.87C288.47 220.87 297.24 220.12 297.34 219.15C297.43 218.27 299.46 222.75 297.49 226.58C297.12 227.3 295.56 228.52 294.75 228.4L289.53 226.71L288.47 220.87Z" fill="white"/>
</mask>
<g mask="url(#mask21_145_3460)">
<path d="M288.829 221.23C288.829 221.23 298.249 220.22 298.339 219.35C298.419 218.56 300.379 222.6 298.619 226.03C298.289 226.68 296.519 228.51 295.799 228.4L289.699 226.51L288.829 221.23Z" stroke="#E2E2E2" stroke-width="0.1" stroke-linecap="round" stroke-linejoin="round"/>
<path d="M289.14 221.53C289.14 221.53 298.91 220.41 298.98 219.56C299.04 218.79 301.14 223.23 299.23 226.57C298.87 227.2 297.31 228.49 296.46 228.39L289.97 226.35L289.15 221.52L289.14 221.53Z" fill="#EDEDED"/>
<path opacity="0.3" d="M288.279 223.17C288.279 223.17 296.429 223.1 300.179 221.32" stroke="white" stroke-width="1.96" stroke-miterlimit="10"/>
<path opacity="0.3" d="M288.539 226.26C288.539 226.26 296.689 226.19 300.439 224.41" stroke="white" stroke-width="1.96" stroke-miterlimit="10"/>
</g>
<path d="M309.59 248.72C309.59 248.72 312 247.74 313.99 248.74C314.27 248.88 314.63 248.76 314.69 248.45C314.72 248.3 314.67 248.11 314.45 247.91C313.79 247.28 310.86 246.84 310.86 246.84" fill="#F7AE8B"/>
<path d="M310.19 247.2C310.19 247.2 313.23 247.2 314.19 247.77C314.46 247.93 314.83 247.79 314.89 247.48C314.92 247.33 314.87 247.14 314.65 246.94C313.99 246.31 310.84 245.91 310.84 245.91" fill="#F7AE8B"/>
<path d="M311.21 246.57C311.21 246.57 313.48 246.42 314.53 246.82C314.82 246.93 315.17 246.73 315.17 246.42C315.17 246.26 315.09 246.09 314.85 245.93C314.09 245.42 311.13 245.49 311.13 245.49" fill="#F7AE8B"/>
<path d="M311.24 246.26C311.24 246.26 313.42 245.63 314.53 245.79C314.84 245.84 315.13 245.57 315.07 245.26C315.04 245.11 314.92 244.96 314.65 244.85C313.8 244.52 310.92 245.22 310.92 245.22" fill="#F7AE8B"/>
<path d="M309.66 245.46C309.66 245.46 311.09 244.94 311.68 244.1C312.26 243.26 312.92 244.8 311.93 245.21" fill="#F7AE8B"/>
<path d="M284.28 243.74C283.35 244.02 282.36 243.67 281.98 242.93C280.5 240.07 277.41 232.56 283.56 230.86C289.61 229.19 290.94 236.95 291.81 239.98C292.05 240.81 291.46 241.69 290.48 241.98L284.28 243.73V243.74Z" fill="#FDC94F"/>
<mask id="mask22_145_3460" style="mask-type:luminance" maskUnits="userSpaceOnUse" x="279" y="230" width="13" height="14">
<path d="M284.28 243.74C283.35 244.02 282.36 243.67 281.98 242.93C280.5 240.07 277.41 232.56 283.56 230.86C289.61 229.19 290.94 236.95 291.81 239.98C292.05 240.81 291.46 241.69 290.48 241.98L284.28 243.73V243.74Z" fill="white"/>
</mask>
<g mask="url(#mask22_145_3460)">
<path d="M277.8 243.4L294.8 238.57" stroke="#EDB74C" stroke-miterlimit="10"/>
<path d="M277.8 241.4L294.8 236.57" stroke="#EDB74C" stroke-miterlimit="10"/>
</g>
<path d="M280.24 222.8C278.67 222.8 277.39 221.53 277.39 219.95C277.39 218.37 278.66 217.1 280.24 217.1" fill="#F7AE8B"/>
<path d="M273.47 208.82C273.47 208.82 272.84 216.8 276.14 221.28C276.46 221.71 277.07 221.79 277.46 221.43C278.37 220.61 279.86 219.03 280.21 217.21C280.4 216.2 280.83 215.25 281.55 214.51C281.86 214.2 282.2 213.94 282.54 213.86C283.73 213.59 285.69 213.94 287.65 213.76C289.67 213.58 294.92 212.39 295.41 209.64C295.9 206.89 273.47 208.81 273.47 208.81V208.82Z" fill="#F27F46"/>
<mask id="mask23_145_3460" style="mask-type:luminance" maskUnits="userSpaceOnUse" x="273" y="208" width="23" height="14">
<path d="M273.47 208.82C273.47 208.82 272.84 216.8 276.14 221.28C276.46 221.71 277.07 221.79 277.46 221.43C278.37 220.61 279.86 219.03 280.21 217.21C280.4 216.2 280.83 215.25 281.55 214.51C281.86 214.2 282.2 213.94 282.54 213.86C283.73 213.59 285.69 213.94 287.65 213.76C289.67 213.58 294.92 212.39 295.41 209.64C295.9 206.89 273.47 208.81 273.47 208.81V208.82Z" fill="white"/>
</mask>
<g mask="url(#mask23_145_3460)">
<g opacity="0.4">
<path d="M275.76 209.16C274.36 209.24 273.47 209.3 273.47 209.3C273.47 209.3 272.51 217.63 275.8 222.11C276.12 222.54 276.73 222.62 277.12 222.26C277.39 222.01 277.72 221.69 278.05 221.32C275.33 217.49 275.61 211.01 275.75 209.15L275.76 209.16Z" fill="#E57645"/>
</g>
</g>
<path d="M300.85 206.18C299.75 205.75 298.36 205.43 296.59 205.31C295.66 202.44 293.11 198.65 286.1 198.01C279.14 197.37 272.88 201.67 272.39 208.64C272.38 208.82 272.37 210.06 272.37 210.06L277.87 209.74C283.24 209.43 288.62 210 293.81 211.43C295.59 211.92 297.53 212.31 299.46 212.42C303.16 212.62 304.31 207.54 300.86 206.18H300.85Z" fill="#FDC94F"/>
<mask id="mask24_145_3460" style="mask-type:luminance" maskUnits="userSpaceOnUse" x="272" y="197" width="31" height="16">
<path d="M300.85 206.18C299.75 205.75 298.36 205.43 296.59 205.31C295.66 202.44 293.11 198.65 286.1 198.01C279.14 197.37 272.88 201.67 272.39 208.64C272.38 208.82 272.37 210.06 272.37 210.06L277.87 209.74C283.24 209.43 288.62 210 293.81 211.43C295.59 211.92 297.53 212.31 299.46 212.42C303.16 212.62 304.31 207.54 300.86 206.18H300.85Z" fill="white"/>
</mask>
<g mask="url(#mask24_145_3460)">
<path opacity="0.5" d="M273.97 209.51C274.42 203.03 279.85 198.12 286.2 197.97C285.95 197.94 285.7 197.91 285.44 197.89C278.48 197.25 272.23 202.41 271.74 209.39C271.73 209.57 271.72 209.76 271.71 209.95L273.95 209.82C273.95 209.72 273.95 209.62 273.97 209.52V209.51Z" fill="#F4BD4E"/>
<g opacity="0.3">
<path d="M297.57 205.38C296.64 202.51 294.09 198.72 287.08 198.08C285.94 197.98 284.82 198.03 283.74 198.22C284.32 198.19 284.91 198.2 285.51 198.26C292.52 198.9 295.07 202.69 296 205.56" fill="#FCFCFC"/>
</g>
</g>
<path d="M280.32 222.96C278.75 222.96 277.06 221.65 277.06 220.08C277.06 218.51 278.33 217.23 279.91 217.23" fill="#EDA588"/>
<path d="M280.37 217.11C278.8 217.11 277.52 218.38 277.52 219.96C277.52 221.54 278.79 222.81 280.37 222.81" fill="#F7AE8B"/>
<path d="M289.51 221.32L280.35 217.98C280.35 217.98 278.98 217.42 278.03 217.98" stroke="white" stroke-width="0.39" stroke-linecap="round" stroke-linejoin="round"/>
<path d="M267.64 263.9C264.07 263.9 261.14 260.98 261.14 257.4V230.4C261.14 226.82 264.06 223.9 267.64 223.9C271.21 223.9 274.14 226.82 274.14 230.4V257.4C274.14 260.98 271.22 263.9 267.64 263.9Z" fill="#383838"/>
</g>
<path d="M331.4 255.84C339.26 255.84 345.7 252.38 345.7 248.15V240.13C345.7 235.9 339.27 232.44 331.4 232.44V255.85V255.84Z" fill="#FCBB38"/>
<path d="M327.47 315.9L362.27 315.45C367.8 315.45 372.32 310.93 372.32 305.4C372.32 299.87 367.8 295.35 362.27 295.35L329.34 295.65C329.34 295.65 331.96 311.77 327.46 315.9H327.47Z" fill="#FCBB38"/>
<mask id="mask25_145_3460" style="mask-type:luminance" maskUnits="userSpaceOnUse" x="327" y="295" width="46" height="21">
<path d="M327.47 315.9L362.27 315.45C367.8 315.45 372.32 310.93 372.32 305.4C372.32 299.87 367.8 295.35 362.27 295.35L329.34 295.65C329.34 295.65 331.96 311.77 327.46 315.9H327.47Z" fill="white"/>
</mask>
<g mask="url(#mask25_145_3460)">
<path opacity="0.3" d="M444.47 310.9H254.47V318.9H444.47V310.9Z" fill="#E5A535"/>
</g>
<path opacity="0.3" d="M216.06 162.99H78.0703V248.49H216.06V162.99Z" fill="white"/>
<mask id="mask26_145_3460" style="mask-type:luminance" maskUnits="userSpaceOnUse" x="78" y="162" width="139" height="87">
<path d="M216.06 162.99H78.0703V248.49H216.06V162.99Z" fill="white"/>
</mask>
<g mask="url(#mask26_145_3460)">
<path d="M141.99 195.9H98.4502V239.44H141.99V195.9Z" fill="#FCBB38"/>
<mask id="mask27_145_3460" style="mask-type:luminance" maskUnits="userSpaceOnUse" x="98" y="195" width="44" height="45">
<path d="M141.99 195.9H98.4502V239.44H141.99V195.9Z" fill="white"/>
</mask>
<g mask="url(#mask27_145_3460)">
<path opacity="0.3" d="M120.221 214.9V244.65" stroke="#E8A736" stroke-miterlimit="10"/>
<path opacity="0.3" d="M127.561 193.9H112.891V214.57H127.561V193.9Z" fill="white"/>
</g>
<path d="M195.33 195.9H151.79V239.44H195.33V195.9Z" fill="#FCBB38"/>
<mask id="mask28_145_3460" style="mask-type:luminance" maskUnits="userSpaceOnUse" x="151" y="195" width="45" height="45">
<path d="M195.33 195.9H151.79V239.44H195.33V195.9Z" fill="white"/>
</mask>
<g mask="url(#mask28_145_3460)">
<path opacity="0.3" d="M173.55 214.9V244.65" stroke="#E8A736" stroke-miterlimit="10"/>
<path opacity="0.3" d="M180.89 193.9H166.22V214.57H180.89V193.9Z" fill="white"/>
</g>
</g>
<path d="M81.0898 163.28H74.5898V251.78H81.0898V163.28Z" fill="#FCBA35"/>
<path d="M219.05 162.9H212.55V251.4H219.05V162.9Z" fill="#FCBA35"/>
<path d="M218.84 160.9H74.5703V167.9H218.84V160.9Z" fill="#F9B130"/>
<path d="M219.1 246.4H74.5898V253.4H219.1V246.4Z" fill="#F9B130"/>
<path d="M217 249.79C217 250.48 216.44 251.04 215.75 251.04C215.06 251.04 214.5 250.48 214.5 249.79C214.5 249.1 215.06 248.54 215.75 248.54C216.44 248.54 217 249.1 217 249.79Z" fill="#FCBA35"/>
<mask id="mask29_145_3460" style="mask-type:luminance" maskUnits="userSpaceOnUse" x="214" y="248" width="3" height="4">
<path d="M217 249.79C217 250.48 216.44 251.04 215.75 251.04C215.06 251.04 214.5 250.48 214.5 249.79C214.5 249.1 215.06 248.54 215.75 248.54C216.44 248.54 217 249.1 217 249.79Z" fill="white"/>
</mask>
<g mask="url(#mask29_145_3460)">
<path opacity="0.02" d="M216.37 248.71C216.53 248.92 216.63 249.18 216.63 249.47C216.63 250.16 216.07 250.72 215.38 250.72C215.15 250.72 214.94 250.65 214.76 250.55C214.99 250.85 215.34 251.04 215.75 251.04C216.44 251.04 217 250.48 217 249.79C217 249.33 216.75 248.93 216.37 248.71Z" fill="#010703"/>
</g>
<path d="M215.47 166.02C216.16 166.02 216.72 165.46 216.72 164.77C216.72 164.08 216.16 163.52 215.47 163.52C214.779 163.52 214.22 164.08 214.22 164.77C214.22 165.46 214.779 166.02 215.47 166.02Z" fill="#FCBA35"/>
<mask id="mask30_145_3460" style="mask-type:luminance" maskUnits="userSpaceOnUse" x="214" y="163" width="3" height="4">
<path d="M215.47 166.02C216.16 166.02 216.72 165.46 216.72 164.77C216.72 164.08 216.16 163.52 215.47 163.52C214.779 163.52 214.22 164.08 214.22 164.77C214.22 165.46 214.779 166.02 215.47 166.02Z" fill="white"/>
</mask>
<g mask="url(#mask30_145_3460)">
<path opacity="0.02" d="M216.089 163.7C216.249 163.91 216.349 164.17 216.349 164.46C216.349 165.15 215.789 165.71 215.099 165.71C214.869 165.71 214.659 165.64 214.479 165.54C214.709 165.84 215.059 166.03 215.469 166.03C216.159 166.03 216.719 165.47 216.719 164.78C216.719 164.32 216.469 163.92 216.089 163.7Z" fill="#010703"/>
</g>
<path d="M78.5 251.04C79.1904 251.04 79.75 250.48 79.75 249.79C79.75 249.1 79.1904 248.54 78.5 248.54C77.8096 248.54 77.25 249.1 77.25 249.79C77.25 250.48 77.8096 251.04 78.5 251.04Z" fill="#FCBA35"/>
<mask id="mask31_145_3460" style="mask-type:luminance" maskUnits="userSpaceOnUse" x="77" y="248" width="3" height="4">
<path d="M78.5 251.04C79.1904 251.04 79.75 250.48 79.75 249.79C79.75 249.1 79.1904 248.54 78.5 248.54C77.8096 248.54 77.25 249.1 77.25 249.79C77.25 250.48 77.8096 251.04 78.5 251.04Z" fill="white"/>
</mask>
<g mask="url(#mask31_145_3460)">
<path opacity="0.02" d="M79.1198 248.71C79.2798 248.92 79.3798 249.18 79.3798 249.47C79.3798 250.16 78.8198 250.72 78.1298 250.72C77.8998 250.72 77.6898 250.65 77.5098 250.55C77.7398 250.85 78.0898 251.04 78.4998 251.04C79.1898 251.04 79.7498 250.48 79.7498 249.79C79.7498 249.33 79.4998 248.93 79.1198 248.71Z" fill="#010703"/>
</g>
<path d="M78.2197 166.02C78.9101 166.02 79.4697 165.46 79.4697 164.77C79.4697 164.08 78.9101 163.52 78.2197 163.52C77.5294 163.52 76.9697 164.08 76.9697 164.77C76.9697 165.46 77.5294 166.02 78.2197 166.02Z" fill="#FCBA35"/>
<mask id="mask32_145_3460" style="mask-type:luminance" maskUnits="userSpaceOnUse" x="76" y="163" width="4" height="4">
<path d="M78.2197 166.02C78.9101 166.02 79.4697 165.46 79.4697 164.77C79.4697 164.08 78.9101 163.52 78.2197 163.52C77.5294 163.52 76.9697 164.08 76.9697 164.77C76.9697 165.46 77.5294 166.02 78.2197 166.02Z" fill="white"/>
</mask>
<g mask="url(#mask32_145_3460)">
<path opacity="0.02" d="M78.8395 163.7C78.9995 163.91 79.0995 164.17 79.0995 164.46C79.0995 165.15 78.5395 165.71 77.8495 165.71C77.6195 165.71 77.4095 165.64 77.2295 165.54C77.4595 165.84 77.8095 166.03 78.2195 166.03C78.9095 166.03 79.4695 165.47 79.4695 164.78C79.4695 164.32 79.2195 163.92 78.8395 163.7Z" fill="#010703"/>
</g>
<path d="M247.51 87.07H307.49C314.18 87.07 319.78 81.73 319.81 75.03C319.81 74.99 319.81 74.94 319.81 74.9C319.81 63.52 312.94 53.75 303.12 49.5C302.56 37.48 292.64 27.9 280.48 27.9C268.32 27.9 258.13 37.75 257.83 50C257.17 49.94 256.5 49.9 255.82 49.9C244.04 49.9 234.49 59.45 234.49 71.23C234.49 74.42 235.19 77.44 236.45 80.15C238.43 84.42 242.82 87.06 247.52 87.06L247.51 87.07Z" fill="#FCFCFC"/>
<mask id="mask33_145_3460" style="mask-type:luminance" maskUnits="userSpaceOnUse" x="234" y="27" width="86" height="61">
<path d="M247.51 87.07H307.49C314.18 87.07 319.78 81.73 319.81 75.03C319.81 74.99 319.81 74.94 319.81 74.9C319.81 63.52 312.94 53.75 303.12 49.5C302.56 37.48 292.64 27.9 280.48 27.9C268.32 27.9 258.13 37.75 257.83 50C257.17 49.94 256.5 49.9 255.82 49.9C244.04 49.9 234.49 59.45 234.49 71.23C234.49 74.42 235.19 77.44 236.45 80.15C238.43 84.42 242.82 87.06 247.52 87.06L247.51 87.07Z" fill="white"/>
</mask>
<g mask="url(#mask33_145_3460)">
<path opacity="0.5" d="M303.111 49.5C302.551 37.48 292.631 27.9 280.471 27.9C278.041 27.9 275.691 28.29 273.501 29C284.721 30 293.591 39.15 294.111 50.5C303.931 54.75 310.801 64.52 310.801 75.9C310.801 75.94 310.801 75.99 310.801 76.03C310.781 81 307.681 85.22 303.351 87.07H307.481C314.171 87.07 319.771 81.73 319.801 75.03C319.801 74.99 319.801 74.94 319.801 74.9C319.801 63.52 312.931 53.75 303.111 49.5Z" fill="#F4F4F4"/>
<path opacity="0.4" d="M256.801 99.3901C259.301 99.3901 261.721 99.0501 264.021 98.4401C250.251 97.5901 239.351 86.7901 239.351 73.5901C239.351 62.1901 247.471 52.5901 258.541 49.6301C257.961 49.5901 257.381 49.5701 256.801 49.5701C242.211 49.5701 230.391 60.7201 230.391 74.4801C230.391 88.2401 242.211 99.3901 256.801 99.3901Z" fill="#EDEDED"/>
</g>
<path d="M82.7903 102.39C82.6803 102.23 82.5703 102.07 82.4703 101.9C82.3803 102.07 82.2703 102.22 82.1703 102.39H42.7003C34.5903 102.39 27.8203 95.92 27.7803 87.81C27.7803 87.76 27.7803 87.6999 27.7803 87.6499C27.7803 78.7699 31.7503 70.82 38.0003 65.47C38.0003 65.3 37.9903 65.14 37.9903 64.97C37.9903 48.53 51.3203 35.2 67.7603 35.2C84.2003 35.2 97.5303 48.53 97.5303 64.97C97.5303 65.1 97.5303 65.23 97.5303 65.36C100.81 64.58 104.35 64.4399 108.01 65.1599C118.63 67.2699 126.69 76.3499 127.52 87.1499C127.52 87.2599 127.54 87.36 127.54 87.47C128.06 95.58 121.52 102.4 113.4 102.4H82.8103L82.7903 102.39Z" fill="white"/>
<mask id="mask34_145_3460" style="mask-type:luminance" maskUnits="userSpaceOnUse" x="27" y="35" width="101" height="68">
<path d="M82.7903 102.39C82.6803 102.23 82.5703 102.07 82.4703 101.9C82.3803 102.07 82.2703 102.22 82.1703 102.39H42.7003C34.5903 102.39 27.8203 95.92 27.7803 87.81C27.7803 87.76 27.7803 87.6999 27.7803 87.6499C27.7803 78.7699 31.7503 70.82 38.0003 65.47C38.0003 65.3 37.9903 65.14 37.9903 64.97C37.9903 48.53 51.3203 35.2 67.7603 35.2C84.2003 35.2 97.5303 48.53 97.5303 64.97C97.5303 65.1 97.5303 65.23 97.5303 65.36C100.81 64.58 104.35 64.4399 108.01 65.1599C118.63 67.2699 126.69 76.3499 127.52 87.1499C127.52 87.2599 127.54 87.36 127.54 87.47C128.06 95.58 121.52 102.4 113.4 102.4H82.8103L82.7903 102.39Z" fill="white"/>
</mask>
<g mask="url(#mask34_145_3460)">
<g opacity="0.4">
<path d="M34.4205 68.6699C34.4205 68.4999 34.4105 68.3199 34.4105 68.1499C34.4105 51.0299 48.3405 37.1499 65.5305 37.1499C68.5205 37.1499 71.4005 37.5799 74.1405 38.3599C73.7405 38.3399 73.3405 38.3299 72.9405 38.3299C55.7505 38.3299 41.8205 52.2099 41.8205 69.3299C41.8205 69.4999 41.8305 69.6799 41.8305 69.8499C35.2905 75.4299 31.1505 83.6999 31.1505 92.9499C31.1505 93.0099 31.1505 93.0599 31.1505 93.1199C31.1805 99.4599 35.1805 104.84 40.7505 107.13H39.3305C30.8505 107.13 23.7805 100.39 23.7305 91.9399C23.7305 91.8799 23.7305 91.8299 23.7305 91.7699C23.7305 82.5199 27.8805 74.2499 34.4105 68.6699H34.4205Z" fill="#F4F4F4"/>
</g>
<path opacity="0.5" d="M124.131 92.6399C124.131 92.5299 124.121 92.4199 124.111 92.3099C123.261 81.1599 114.931 71.7699 103.951 69.5899C100.171 68.8399 96.5209 68.9799 93.1309 69.7899C93.1309 69.6599 93.1409 69.5199 93.1409 69.3899C93.1409 52.4099 79.3709 38.6399 62.3909 38.6399C59.1809 38.6399 56.0809 39.1299 53.1709 40.0499C57.8509 36.9799 63.4509 35.1899 69.4709 35.1899C85.9109 35.1899 99.2409 48.5199 99.2409 64.9599C99.2409 65.0899 99.2409 65.2199 99.2409 65.3499C102.521 64.5699 106.061 64.4299 109.721 65.1499C120.341 67.2599 128.401 76.3399 129.231 87.1399C129.231 87.2499 129.251 87.3499 129.251 87.4599C129.601 92.8799 126.781 97.6999 122.461 100.32C123.681 98.0399 124.321 95.4199 124.141 92.6399H124.131Z" fill="#FCFCFC"/>
</g>
</svg>
