<svg width="231" height="186" viewBox="0 0 231 186" fill="none" xmlns="http://www.w3.org/2000/svg">
<g opacity="0.5">
<path d="M12.8659 124.296C12.8659 124.296 15.6966 133.344 6.7603 139.921C-2.17598 146.47 8.25896 156.017 5.15069 164.648C2.07018 173.279 -2.75875 182.16 2.70847 192.872C8.17569 203.557 5.20617 225.62 5.20617 225.62C5.20617 225.62 13.1989 202.086 18.7494 193.039C24.2721 183.992 18.333 172.252 24.7716 168.034C37.4822 159.708 36.7051 150.467 38.4258 140.504C40.1464 130.541 48.4167 128.182 53.8006 119.745C59.1846 111.336 75.6417 94.5179 68.4261 77.0616C64.4853 67.4871 41.756 52.8893 26.9363 56.0253C12.1165 59.1614 -3.61914 64.7396 0.737988 75.8405C5.09511 86.9415 11.5337 92.159 7.84268 101.983C4.15161 111.808 16.1684 116.47 12.8659 124.296Z" fill="#466E28"/>
<path d="M173.802 142.585C169.778 143.362 165.476 145.36 161.868 147.913C160.897 148.468 160.064 149.218 159.176 149.911C158.316 150.633 157.4 151.271 156.623 152.076L154.264 154.463C153.459 155.24 152.71 156.045 152.016 156.961C149.102 160.374 146.688 164.204 144.495 168.145L141.47 174.223L139.028 180.606C138.14 182.687 137.557 184.907 136.947 187.1L135.115 193.677C134.282 198.201 133.228 202.641 132.617 207.22C132.118 211.827 131.396 216.351 131.091 220.958L130.369 234.778L116.632 233.89L118.63 219.431C119.379 214.63 120.545 209.857 121.489 205.083C122.571 200.31 124.097 195.647 125.402 190.93L127.983 184.019C128.843 181.716 129.675 179.412 130.841 177.22L134.088 170.559L137.973 164.204C140.749 160.097 143.774 156.128 147.326 152.603C148.159 151.66 149.074 150.827 150.046 150.022L152.904 147.608C153.876 146.803 154.958 146.165 155.985 145.443C157.012 144.75 158.038 144.028 159.176 143.473C163.561 140.975 168.168 139.144 173.552 138.589L173.857 142.557L173.802 142.585Z" fill="#466E28"/>
<path d="M93.542 112.585L119.602 228.507" stroke="#466E28" stroke-width="2.5" stroke-miterlimit="10"/>
<path d="M83.1348 39.6514C83.1348 39.6514 85.7435 9.70655 73.366 4.4891C60.9884 -0.728349 60.3501 14.8963 45.3638 14.8963C30.3775 14.8963 52.5239 31.8252 38.2036 34.4339C23.8834 37.0427 20.6086 45.5071 27.7965 57.2187C34.9566 68.9302 19.332 78.0607 19.332 85.8591C19.332 93.6576 45.3915 95.1284 44.7255 105.785C44.0872 116.442 31.7096 129.486 43.4211 143.14C55.1326 156.822 80.3319 192.623 83.3846 208.247C86.4096 223.872 96.8445 236.888 96.8445 236.888C96.8445 236.888 91.6271 210.19 100.092 203.668C108.556 197.146 99.4532 181.522 104.005 169.81C108.556 158.099 116.382 154.186 113.107 130.096C109.86 106.007 128.732 107.95 129.398 97.5429C130.064 87.1357 115.078 81.2522 120.934 69.5407C126.789 57.8292 140.471 46.0899 124.847 33.0741C109.222 20.0582 123.542 8.81847 115.078 3.35124C106.613 -2.08823 93.5975 -0.783853 90.9887 6.37627C88.38 13.5364 83.1626 39.5959 83.1626 39.5959L83.1348 39.6514Z" fill="#64822D"/>
<path d="M157.372 108.699C157.372 108.699 140.443 93.7127 135.892 100.873C131.34 108.033 138.501 111.28 141.109 122.353C143.718 133.426 156.096 134.731 157.4 140.586C158.704 146.442 159.676 165.647 189.315 178.357C204.107 184.685 199.084 197.895 212.1 207.664C225.116 217.433 230.972 228.506 230.972 228.506C230.972 228.506 225.116 206.36 227.059 195.286C229.001 184.213 217.29 184.879 217.29 171.836C217.29 158.792 217.928 153.602 203.608 143.195C189.287 132.788 209.991 111.086 184.403 110.642C165.837 110.309 173.663 95.017 157.372 108.699Z" fill="#64822D"/>
<path d="M124.791 33.1569C121.267 30.2152 119.296 27.3567 118.214 24.637C109.222 26.3299 98.5376 32.1856 90.7669 38.3467C76.6132 49.5864 62.9313 47.616 49.7489 31.02C47.3067 27.9395 44.7257 26.1356 42.1448 25.192C43.7266 29.2716 44.5869 33.268 38.2039 34.4336C26.2148 36.5983 22.0243 42.8981 25.1325 51.7511C30.1557 54.4153 37.3991 58.2451 47.8063 63.7401C81.9972 81.8069 89.3238 66.1823 106.586 51.529C116.882 42.787 124.764 48.8093 129.482 55.0813C133.034 48.0322 134.033 40.8166 124.819 33.1292L124.791 33.1569Z" fill="#82962D"/>
<path d="M186.873 125.462C191.286 121.716 195.088 121.632 198.224 123.131C198.391 116.387 197.142 110.892 184.403 110.67C183.765 110.67 183.238 110.587 182.655 110.559C179.935 112.113 177.354 113.862 175.106 115.638C164.533 124.019 166.337 151.688 144.468 110.171C142.053 105.591 137.724 105.009 134.421 105.314C134.366 109.949 139.084 113.834 141.082 122.382C143.607 133.094 155.208 134.676 157.151 140.06C171.221 142.946 176.799 134.01 186.846 125.49L186.873 125.462Z" fill="#82962D"/>
<path d="M216.763 160.069C215.736 154.324 212.683 149.829 203.608 143.224C201.804 141.919 200.555 140.421 199.723 138.839C182.96 140.865 181.545 151.855 175.273 164.399C174.44 166.091 173.469 167.34 172.47 168.339C175.8 171.142 179.963 173.862 185.069 176.415C186.929 173.945 187.928 157.127 189.288 154.63C195.143 143.779 204.663 154.824 216.79 160.097L216.763 160.069Z" fill="#82962D"/>
<path d="M88.2412 160.097C78.2226 168.034 68.4536 169.366 58.9346 163.593C65.5951 173.085 72.3945 183.714 77.1957 192.9C87.1033 190.486 93.6251 182.382 102.867 174.278C103.061 172.78 103.422 171.309 103.977 169.893C107.196 161.623 112.025 157.21 113.44 146.859C104.976 149.023 95.4013 154.435 88.2412 160.097Z" fill="#82962D"/>
<path d="M129.371 97.6264C129.648 93.0472 126.901 89.3284 124.264 85.6096C114.745 86.7197 101.674 94.2129 93.5701 99.8744C81.6921 108.172 73.6994 109.643 56.1322 93.5468C47.3347 85.4986 40.1468 89.7447 35.1514 96.0445C38.6204 97.6264 41.7286 99.4025 43.4215 101.706C48.8332 101.317 54.9111 103.732 60.3783 112.613C74.8373 136.036 84.4674 137.507 100.092 120.911C106.336 114.278 111.526 112.973 115.522 113.778C120.129 106.119 128.954 104.703 129.398 97.6542L129.371 97.6264Z" fill="#82962D"/>
<path d="M83.1348 39.6515C79.9433 42.4545 78.6667 46.6451 77.4734 50.5305C76.3633 54.4991 75.7527 58.6342 75.2809 62.7415C74.9756 66.9044 74.5316 71.0117 74.6426 75.1746L74.5316 81.3911L74.7814 87.6354C75.4752 104.287 77.3068 120.911 79.8046 137.479L81.553 149.912L83.6899 162.317L85.7158 174.75L87.9915 187.156C90.8222 203.724 94.2635 220.209 96.789 236.943C91.4606 220.902 86.5484 204.723 82.6908 188.266C81.664 184.158 80.6371 180.079 79.749 175.944L77.2236 163.51C76.391 159.348 75.614 155.212 74.8646 151.05L72.9219 138.478C71.6176 130.124 70.896 121.632 70.0634 113.195C69.7027 108.977 69.6471 104.703 69.4251 100.457C69.3696 98.3201 69.2031 96.2109 69.2031 94.074L69.3419 87.6632L69.4807 81.2801L70.0634 74.8971C70.341 70.651 71.1458 66.4049 71.8951 62.1865C72.8664 57.9959 73.8933 53.833 75.6139 49.8644C77.3346 46.0068 79.3883 41.8717 83.0793 39.6238L83.1348 39.6515Z" fill="#466E28"/>
<path d="M157.373 108.699C161.786 112.64 165.838 116.969 169.917 121.271C173.886 125.684 177.716 130.207 181.462 134.786C188.955 143.972 195.727 153.741 202.027 163.815C205.218 168.811 208.077 174.028 210.991 179.19L215.043 187.127L217.041 191.096L218.845 195.176C223.896 205.916 227.753 217.183 231 228.534C228.558 223.122 226.671 217.544 224.034 212.271L220.399 204.223L216.43 196.341C211.074 185.879 205.385 175.582 199.085 165.675C192.924 155.684 186.291 145.943 179.353 136.451C175.884 131.706 172.304 127.016 168.641 122.409C165.033 117.746 161.231 113.223 157.401 108.755L157.373 108.699Z" fill="#466E28"/>
</g>
</svg>
