<svg width="123" height="159" viewBox="0 0 123 159" fill="none" xmlns="http://www.w3.org/2000/svg">
<g opacity="0.5">
<path d="M-2.59238 71.5645C-2.59238 71.5645 -0.96258 76.7736 -6.10771 80.5605C-11.2528 84.3315 -5.24484 89.8281 -7.03445 94.7975C-8.80808 99.7669 -11.5884 104.88 -8.44058 111.048C-5.29278 117.2 -7.00251 129.903 -7.00251 129.903C-7.00251 129.903 -2.40065 116.353 0.795085 111.144C3.97484 105.935 0.555378 99.1757 4.26243 96.7469C11.5807 91.9533 11.1333 86.6324 12.1239 80.8961C13.1146 75.1597 17.8763 73.8015 20.9761 68.944C24.076 64.1025 33.5513 54.4194 29.3969 44.3688C27.1279 38.8562 14.0414 30.4514 5.50876 32.257C-3.02384 34.0626 -12.0837 37.2743 -9.5751 43.6658C-7.06645 50.0573 -3.35935 53.0612 -5.48452 58.7177C-7.60968 64.3741 -0.690923 67.0585 -2.59238 71.5645Z" fill="#466E28"/>
<path d="M90.0674 82.0944C87.7505 82.5418 85.2738 83.6923 83.1966 85.1623C82.6374 85.4819 82.158 85.9133 81.6467 86.3128C81.1513 86.7282 80.624 87.0957 80.1766 87.5591L78.8184 88.9333C78.355 89.3807 77.9236 89.844 77.5242 90.3713C75.8464 92.3367 74.4563 94.5417 73.194 96.8107L71.4523 100.31L70.0462 103.985C69.5348 105.184 69.1993 106.462 68.8478 107.724L67.7932 111.511C67.3138 114.116 66.7066 116.672 66.3551 119.309C66.0675 121.961 65.652 124.566 65.4762 127.218L65.0608 135.175L57.1514 134.664L58.3018 126.339C58.7333 123.575 59.4044 120.827 59.9476 118.078C60.5708 115.33 61.4496 112.646 62.2006 109.929L63.6866 105.951C64.182 104.624 64.6613 103.298 65.3324 102.036L67.202 98.2009L69.439 94.5418C71.0368 92.1769 72.7785 89.892 74.8238 87.8627C75.3031 87.3194 75.8304 86.84 76.3897 86.3767L78.0355 84.9865C78.5947 84.5231 79.2179 84.1556 79.8091 83.7402C80.4003 83.3407 80.9916 82.9253 81.6467 82.6057C84.1713 81.1676 86.8238 80.113 89.9236 79.7935L90.0994 82.0784L90.0674 82.0944Z" fill="#466E28"/>
<path d="M43.8574 64.8217L58.8614 131.564" stroke="#466E28" stroke-width="2.5" stroke-miterlimit="10"/>
<path d="M98.9839 118.813H24.7471V163.809H98.9839V118.813Z" fill="#D6CABA"/>
<path d="M37.8658 22.8296C37.8658 22.8296 39.3678 5.58862 32.2413 2.58464C25.1148 -0.419353 24.7473 8.57663 16.1188 8.57663C7.49037 8.57663 20.2413 18.3236 11.9963 19.8256C3.75134 21.3276 1.86586 26.2011 6.00433 32.9441C10.1268 39.6871 1.13086 44.9441 1.13086 49.4341C1.13086 53.9241 16.1348 54.7709 15.7513 60.9067C15.3838 67.0425 8.25733 74.5525 15.0003 82.414C21.7433 90.2915 36.252 110.904 38.0096 119.9C39.7513 128.896 45.7592 136.39 45.7592 136.39C45.7592 136.39 42.7553 121.018 47.6288 117.263C52.5023 113.508 47.2613 104.513 49.8818 97.7695C52.5023 91.0265 57.0082 88.7735 55.1228 74.9041C53.2533 61.0346 64.1187 62.1531 64.5022 56.1611C64.8857 50.1691 56.2573 46.7816 59.6288 40.0386C63.0003 33.2956 70.8777 26.5366 61.8817 19.0426C52.8857 11.5487 61.1307 5.0773 56.2572 1.9295C51.3837 -1.20231 43.8898 -0.45131 42.3878 3.67118C40.8858 7.79368 37.8818 22.7976 37.8818 22.7976L37.8658 22.8296Z" fill="#64822D"/>
<path d="M80.6081 62.5842C80.6081 62.5842 70.8612 53.9558 68.2407 58.0783C65.6202 62.2008 69.7427 64.0702 71.2447 70.4457C72.7466 76.8212 79.8731 77.5722 80.6241 80.9437C81.3751 84.3152 81.9344 95.3724 98.9996 102.691C107.516 106.334 104.624 113.94 112.118 119.564C119.612 125.189 122.984 131.564 122.984 131.564C122.984 131.564 119.612 118.813 120.731 112.438C121.849 106.062 115.106 106.446 115.106 98.9357C115.106 91.4257 115.474 88.4377 107.229 82.4457C98.9836 76.4537 110.904 63.9584 96.1714 63.7027C85.4817 63.511 89.9876 54.7068 80.6081 62.5842Z" fill="#64822D"/>
<path d="M61.8496 19.0904C59.8203 17.3966 58.6858 15.7508 58.0626 14.1849C52.8856 15.1596 46.7338 18.5311 42.2597 22.0784C34.1106 28.5498 26.2331 27.4153 18.6433 17.86C17.2372 16.0864 15.7512 15.0478 14.2651 14.5045C15.1759 16.8534 15.6712 19.1543 11.9961 19.8254C5.09336 21.0717 2.6806 24.6989 4.47021 29.7961C7.36235 31.33 11.5328 33.5351 17.5248 36.6989C37.2105 47.101 41.4289 38.105 51.3676 29.6683C57.2957 24.635 61.8336 28.1024 64.55 31.7135C66.5952 27.6549 67.1705 23.5005 61.8656 19.0744L61.8496 19.0904Z" fill="#82962D"/>
<path d="M97.5935 72.2358C100.134 70.0787 102.323 70.0307 104.129 70.8936C104.225 67.0108 103.506 63.847 96.1714 63.7192C95.8039 63.7192 95.5003 63.6712 95.1648 63.6553C93.5988 64.5501 92.1128 65.5567 90.8186 66.5793C84.7307 71.4049 85.7693 87.3356 73.1781 63.4316C71.788 60.7951 69.2953 60.4595 67.3938 60.6353C67.3619 63.3037 70.0782 65.5407 71.2287 70.4622C72.6828 76.6299 79.3619 77.5407 80.4804 80.6406C88.5815 82.3024 91.7933 77.1572 97.5775 72.2518L97.5935 72.2358Z" fill="#82962D"/>
<path d="M114.803 92.161C114.212 88.8535 112.454 86.2649 107.229 82.462C106.19 81.711 105.471 80.8482 104.992 79.9374C95.3407 81.1038 94.5258 87.4314 90.9146 94.6537C90.4353 95.6284 89.876 96.3475 89.3008 96.9227C91.2182 98.5365 93.615 100.102 96.5551 101.572C97.6257 100.15 98.2009 90.4673 98.9838 89.0292C102.355 82.7816 107.836 89.1411 114.819 92.177L114.803 92.161Z" fill="#82962D"/>
<path d="M40.8051 92.1769C35.0369 96.7468 29.4123 97.5137 23.9316 94.1902C27.7665 99.6549 31.6813 105.775 34.4456 111.064C40.15 109.673 43.905 105.008 49.2259 100.342C49.3377 99.4791 49.5454 98.6323 49.865 97.8173C51.7185 93.0557 54.4988 90.5151 55.3137 84.5551C50.4403 85.8014 44.9276 88.9172 40.8051 92.1769Z" fill="#82962D"/>
<path d="M64.4858 56.2092C64.6456 53.5727 63.0637 51.4315 61.5457 49.2904C56.065 49.9296 48.5391 54.2438 43.8733 57.5034C37.0345 62.2811 32.4326 63.1279 22.3181 53.8603C17.2529 49.2265 13.1144 51.6712 10.2383 55.2984C12.2356 56.2092 14.0252 57.2318 14.9999 58.558C18.1157 58.3343 21.6151 59.7245 24.7629 64.8376C33.0878 78.3236 38.6323 79.1705 47.6283 69.6153C51.2235 65.7964 54.2115 65.0454 56.5125 65.5087C59.1649 61.0986 64.2461 60.2837 64.5018 56.2251L64.4858 56.2092Z" fill="#82962D"/>
<path d="M37.866 22.8297C36.0284 24.4435 35.2935 26.8563 34.6064 29.0933C33.9672 31.3783 33.6157 33.7591 33.3441 36.1239C33.1683 38.5207 32.9126 40.8856 32.9765 43.2824L32.9127 46.8616L33.0565 50.4568C33.4559 60.044 34.5105 69.6152 35.9486 79.1545L36.9552 86.3129L38.1856 93.4554L39.352 100.614L40.6623 107.756C42.2921 117.296 44.2735 126.787 45.7275 136.422C42.6596 127.186 39.8314 117.871 37.6104 108.395C37.0192 106.031 36.4279 103.682 35.9166 101.301L34.4626 94.1424C33.9832 91.7457 33.5358 89.3648 33.1044 86.968L31.9859 79.7297C31.2349 74.9201 30.8194 70.0306 30.3401 65.1731C30.1323 62.7444 30.1004 60.2837 29.9725 57.8389C29.9406 56.6086 29.8447 55.3942 29.8447 54.1638L29.9246 50.4728L30.0045 46.7977L30.3401 43.1226C30.4998 40.6779 30.9632 38.2331 31.3947 35.8044C31.9539 33.3916 32.5451 30.9948 33.5358 28.7098C34.5265 26.4888 35.7089 24.108 37.8341 22.8137L37.866 22.8297Z" fill="#466E28"/>
<path d="M80.6084 62.5844C83.149 64.8533 85.4819 67.346 87.8308 69.8227C90.1157 72.3633 92.3208 74.9678 94.4779 77.6043C98.7921 82.8932 102.691 88.5177 106.318 94.318C108.156 97.1941 109.801 100.198 111.479 103.17L113.812 107.74L114.963 110.025L116.001 112.374C118.909 118.558 121.13 125.045 123 131.58C121.594 128.464 120.507 125.253 118.989 122.217L116.896 117.583L114.611 113.045C111.527 107.021 108.251 101.093 104.624 95.3885C101.077 89.6362 97.2582 84.0277 93.2635 78.563C91.2662 75.8307 89.2049 73.1303 87.0957 70.4778C85.0185 67.7934 82.8294 65.1889 80.6244 62.6163L80.6084 62.5844Z" fill="#466E28"/>
</g>
</svg>
