<svg width="124" height="197" viewBox="0 0 124 197" fill="none" xmlns="http://www.w3.org/2000/svg">
<g opacity="0.5">
<path d="M102.182 119.548C102.182 119.548 70.4007 96.7428 65.2174 68.0643C60.0341 39.3857 74.2031 19.0024 74.2031 0C74.2031 0 125.686 8.9857 124.296 48.7119C122.906 88.4382 142.258 78.4215 102.182 119.538V119.548Z" fill="#466E28"/>
<path d="M86.0264 15.8148C93.092 31.2702 97.9632 47.6999 101.122 64.4133L102.201 70.7032C102.522 72.8031 102.749 74.9218 103.033 77.0405L103.44 80.2091L103.695 83.3967L104.196 89.7718L104.357 96.1659L104.442 99.3629L104.348 102.56L104.14 108.963C103.998 111.092 103.752 113.22 103.553 115.348C103.213 119.623 102.551 123.804 101.993 128.023L100.262 140.65L96.7903 165.895L89.8477 216.385L86.2061 215.855L94.0567 165.498L97.9821 140.319L99.9495 127.729C100.583 123.53 101.33 119.33 101.737 115.149C101.964 113.049 102.248 110.959 102.428 108.859L102.749 102.532L102.901 99.3629L102.882 96.1942L102.834 89.8475L102.456 83.5102L102.257 80.3416L101.917 77.1824C101.68 75.0826 101.491 72.9638 101.207 70.8735L100.243 64.593C97.3956 47.8985 92.8366 31.4121 86.0547 15.8337L86.0264 15.8148Z" fill="#64822D"/>
<path d="M73.541 42.8474C74.5625 42.4123 75.83 42.4029 76.9272 43.0082C78.0339 43.5946 78.7906 44.6824 79.2257 45.7512C79.4905 46.2903 79.604 46.839 79.7743 47.397C79.8688 47.9456 79.9823 48.5037 80.0391 49.0617C80.0769 49.6009 80.1431 50.1778 80.1621 50.7075L80.2188 52.2209C80.285 53.2141 80.3512 54.2072 80.4837 55.1247C80.6255 56.0422 80.8147 56.9124 81.1552 57.4894C81.4768 58.0758 81.9403 58.4731 82.6875 58.9271C83.4347 59.3527 84.3428 59.7689 85.2697 60.1851C87.152 61.0174 89.0815 61.9349 90.9354 63.0038C92.7704 64.0726 94.6243 65.34 95.8823 67.1845C96.5255 68.083 96.9228 69.1519 97.2443 70.1734C97.5092 71.0909 97.9916 71.9327 98.6064 72.6705C99.8076 74.146 101.51 75.3189 103.147 76.0756L102.447 75.9242C102.447 75.9242 102.664 75.8391 102.778 75.7823C102.91 75.7161 103.052 75.6499 103.184 75.5648C103.44 75.3946 103.686 75.2148 103.884 74.9689C104.3 74.5149 104.622 73.9474 104.84 73.2853C105.303 71.9895 105.303 70.3531 105.18 68.7451C105.114 67.9411 104.991 67.1845 104.802 66.371C104.707 65.9549 104.603 65.5197 104.509 64.9901C104.405 64.4698 104.357 63.7888 104.452 63.07C104.565 62.3606 104.821 61.6606 105.142 61.1498C105.454 60.6012 105.785 60.1851 106.117 59.7784C106.779 58.9838 107.497 58.3501 108.131 57.7447C110.704 55.295 113.57 53.2046 114.497 50.4521C114.62 50.1022 114.705 49.7428 114.79 49.3644L114.875 48.7874L114.951 48.097C115.055 47.1511 115.263 46.2336 115.509 45.335C116.029 43.5474 116.748 41.8543 117.741 40.322L118.072 40.4733C117.656 42.1948 117.372 43.9352 117.268 45.6377C117.212 46.489 117.23 47.3403 117.268 48.1632L117.306 48.8064L117.334 49.563C117.316 50.0738 117.297 50.5846 117.193 51.1048C116.814 53.1857 115.698 55.0301 114.506 56.4773C113.315 57.9623 112.047 59.2392 110.817 60.5067C110.184 61.1404 109.607 61.7363 109.134 62.3038C108.651 62.8808 108.377 63.3821 108.33 63.6564C108.264 63.9401 108.368 64.6874 108.547 65.6238C108.708 66.5507 108.812 67.5534 108.841 68.5276C108.869 69.5208 108.812 70.4477 108.689 71.4597C108.651 71.9516 108.5 72.4718 108.406 72.9637C108.245 73.4745 108.122 73.9758 107.876 74.4676C107.034 76.4539 105.218 78.3267 102.617 78.497L102.182 78.5253L101.907 78.3456C100.905 77.6646 100.11 76.9647 99.3252 76.1607C98.5496 75.3662 97.8781 74.4771 97.3011 73.5312C96.7336 72.5759 96.2796 71.5449 96.0431 70.4477C95.8445 69.464 95.485 68.5843 94.9648 67.7709C93.9054 66.144 92.1083 65.1319 90.245 64.4415C88.3627 63.7226 86.3669 63.3254 84.3522 62.7957C83.3402 62.5308 82.2903 62.2565 81.2025 61.7268C80.1242 61.2445 78.9041 60.2891 78.2514 59.0311C77.5988 57.7826 77.4191 56.5813 77.315 55.4558C77.2015 54.3207 77.2393 53.2424 77.2866 52.1736L77.4853 49.1279C77.5042 48.6456 77.4853 48.1821 77.4758 47.7091C77.4001 47.2646 77.4191 46.7727 77.2961 46.3471C77.1164 45.4674 76.7948 44.6445 76.18 44.0676C75.5935 43.4717 74.6382 43.1312 73.6545 43.1501L73.5505 42.8001L73.541 42.8474Z" fill="#64822D"/>
<path d="M82.3184 36.5576C82.6116 37.7115 82.9805 38.8182 83.5007 39.7641C84.0209 40.7099 84.6641 41.5044 85.4303 42.0341C85.7992 42.3179 86.2059 42.526 86.641 42.6962C86.8396 42.8003 87.0761 42.857 87.3031 42.9138C87.5301 42.98 87.7287 43.0462 88.0692 43.1219C89.2705 43.4245 90.5096 43.7556 91.777 44.5312C92.3918 44.9285 93.0539 45.4676 93.5079 46.1959C93.962 46.9337 94.1795 47.7093 94.2552 48.3714C94.4349 49.6862 94.3308 50.9063 94.6146 51.8238C95.2578 53.848 97.3954 55.3802 99.4574 56.118L98.7291 56.2221C99.6466 55.2478 100.451 54.075 101.056 52.9116C101.661 51.7387 102.077 50.528 102.134 49.5159C102.163 49.2605 102.106 49.0335 102.106 48.8065C102.03 48.5795 102.04 48.4471 101.907 48.0876C101.709 47.4634 101.463 46.8864 101.188 46.2621C101.046 45.9311 100.905 45.6095 100.744 45.1366C100.592 44.7015 100.441 44.0394 100.498 43.3867C100.507 43.0462 100.583 42.7719 100.649 42.4787C100.734 42.2328 100.81 41.949 100.905 41.7504C101.094 41.3058 101.283 40.9369 101.491 40.587C101.898 39.8965 102.333 39.2722 102.692 38.7425C103.061 38.1845 103.439 37.6264 103.78 37.0589C104.499 35.9333 105.114 34.751 105.691 33.5497C106.807 31.1283 107.611 28.5745 107.611 25.6991L107.97 25.614C109.342 28.3002 109.285 31.6107 108.566 34.5334C108.226 36.0184 107.668 37.4372 107.043 38.8182C106.428 40.1613 105.539 41.5517 104.906 42.5827C104.593 43.103 104.357 43.6326 104.357 43.7178C104.272 43.7178 104.395 44.238 104.641 44.9474C104.877 45.6473 105.095 46.4135 105.256 47.1702C105.35 47.4918 105.407 48.0782 105.454 48.5417C105.445 49.0146 105.454 49.5159 105.341 49.951C104.991 51.7671 104.035 53.148 103.004 54.2831C101.964 55.437 100.838 56.3734 99.6277 57.2909L99.2399 57.5841L98.8994 57.4044C97.7643 56.7896 96.7806 56.0802 95.7969 55.3141C94.8511 54.5101 93.9052 53.6493 93.2053 52.4765C92.8269 51.9184 92.6094 51.1712 92.4107 50.6509C92.2027 50.0834 92.004 49.5159 91.7959 49.0335C91.3419 48.0214 90.9447 47.785 90.1312 47.3499C89.3178 46.9526 88.2679 46.5554 87.1896 46.2054C86.9531 46.1297 86.5937 45.9878 86.2532 45.8649C85.9127 45.7419 85.5911 45.5906 85.2789 45.3919C84.6357 45.0514 84.0588 44.5785 83.5575 44.0488C82.5643 42.9705 81.959 41.6463 81.732 40.341C81.5049 39.0263 81.5617 37.7305 81.9495 36.5197L82.3184 36.5481V36.5576Z" fill="#64822D"/>
<path d="M95.0117 14.1785C95.7589 14.9635 96.298 15.8905 96.7142 16.8742C97.1399 17.8579 97.4236 18.9267 97.5371 20.0334C97.5939 20.5914 97.5939 21.1495 97.575 21.717L97.4804 22.5683C97.4425 22.8331 97.4047 23.079 97.3574 23.3344C97.1966 24.337 96.9034 25.368 96.648 26.1625C96.4021 26.9287 96.2508 27.7327 96.194 28.7164C96.1278 29.6906 96.194 30.6648 96.2318 31.7431C96.2602 32.793 96.2318 33.843 96.0521 34.9118C95.9575 35.4415 95.8157 35.9711 95.617 36.5008C95.513 36.7657 95.3995 37.0305 95.2576 37.2859C95.0968 37.5507 94.9928 37.7777 94.6995 38.0899L94.0942 38.7331L93.3186 37.8629C92.647 37.1156 91.8998 36.3873 91.1904 35.6779C90.4715 34.9685 89.8 34.2402 89.1 33.5781C88.3906 32.9065 87.7191 32.3674 87.0002 31.9607C86.2057 31.5256 85.2788 31.0148 84.3991 30.4757C82.6303 29.369 80.871 28.0921 79.3198 26.5031C78.5442 25.7085 77.8159 24.8383 77.2673 23.8073C76.7187 22.8142 76.312 21.6129 76.5011 20.4779L76.87 20.4306C77.324 21.367 78.024 22.0102 78.7523 22.6061C79.1117 22.9088 79.5279 23.1642 79.9063 23.4479C80.3319 23.7033 80.7197 23.9681 81.1453 24.2141C82.829 25.1978 84.6072 26.0869 86.3949 27.0706C87.284 27.5908 88.1731 28.0826 89.1095 28.7731C89.5824 29.1042 90.1027 29.5677 90.5094 29.9649C90.9161 30.3906 91.285 30.8162 91.635 31.2513C93.0443 32.9728 94.0185 34.8739 94.8887 36.8413L93.5078 36.6238C93.5834 36.6049 93.7915 36.4441 93.9239 36.3117C94.0658 36.1603 94.1982 35.9995 94.3307 35.8198C94.586 35.4698 94.7658 35.0442 94.9076 34.6091C95.163 33.7389 95.2009 32.7741 95.0117 31.8472C94.813 30.9486 94.4158 29.9838 94.0847 28.9812C93.9145 28.4799 93.7631 27.9597 93.6591 27.3827C93.574 26.8152 93.5267 26.1815 93.5834 25.6045C93.801 23.3628 94.5577 21.7359 94.6995 20.0144C94.9076 18.2457 94.832 16.3445 94.6806 14.3014L95.0117 14.1406V14.1785Z" fill="#64822D"/>
<path d="M73.569 70.0507C74.7135 69.7953 75.8958 69.7764 77.0876 69.9656C78.27 70.1737 79.4901 70.5993 80.5117 71.4128C81.5521 72.2073 82.3466 73.3234 82.829 74.5341L83.1506 75.4516C83.2547 75.7637 83.283 76.0759 83.3587 76.388C83.51 77.0312 83.5384 77.6271 83.5763 78.223C83.6519 79.4242 83.6141 80.6255 83.51 81.7984C83.3965 82.9712 83.2074 84.1062 83.1033 85.1183C83.0466 85.6196 83.0466 86.0736 83.0749 86.4236C83.0844 86.6033 83.1412 86.7074 83.1601 86.8398C83.2452 86.906 83.2074 87.0384 83.3209 87.1046C83.5573 87.4451 84.4086 87.8708 85.345 88.164C85.8463 88.287 86.3193 88.4383 86.8584 88.5613L88.4853 88.9301L91.7769 89.7058C92.8836 89.9895 94.0091 90.2544 95.1252 90.6611C96.2319 91.0584 97.4237 91.6259 98.2277 92.6474C99.0411 93.65 99.3722 94.8891 99.6181 95.9768C99.8735 97.074 100.082 98.1807 100.365 99.259C100.63 100.347 100.914 101.416 101.264 102.465C101.604 103.506 102.011 104.537 102.512 105.388C102.749 105.823 103.07 106.164 103.298 106.325C103.354 106.334 103.392 106.353 103.43 106.381C103.458 106.362 103.468 106.344 103.477 106.362C103.506 106.353 103.543 106.325 103.572 106.325C103.61 106.325 103.676 106.258 103.733 106.239C103.979 106.098 104.31 105.842 104.612 105.483C104.924 105.161 105.218 104.754 105.492 104.348C106.57 102.692 107.412 100.706 107.724 98.8333C107.809 98.3509 107.828 97.9442 107.828 97.4524C107.828 96.97 107.79 96.4403 107.743 95.9201C107.658 94.8607 107.525 93.7635 107.384 92.6663C107.242 91.5597 107.109 90.4341 107.005 89.2801C106.911 88.1167 106.826 86.9628 106.93 85.6102C106.958 85.2697 107.005 84.9102 107.109 84.494C107.232 84.0684 107.327 83.5955 107.847 82.9239C108.017 82.7442 108.14 82.6023 108.377 82.4415C108.594 82.2902 108.906 82.1388 108.963 82.1294C109.181 82.0537 109.474 81.9591 109.644 81.9308L110.193 81.8362L110.666 81.7889C111.886 81.6754 112.917 81.6376 113.92 81.5051C114.903 81.3727 115.821 81.1457 116.54 80.7579C117.268 80.3796 117.798 79.8688 118.148 79.1216C118.327 78.781 118.45 78.2797 118.592 77.7879C118.706 77.296 118.8 76.8042 118.857 76.2934C118.961 75.2719 118.97 74.2031 118.923 73.1059C118.866 72.0087 118.781 70.8736 118.791 69.7008C118.81 68.5374 118.98 67.2983 119.538 66.2578L119.878 66.3902C119.453 68.5563 120.304 70.5993 120.786 72.841C121.042 73.9572 121.25 75.1395 121.297 76.3596C121.316 76.9745 121.297 77.5893 121.25 78.2041C121.184 78.8189 121.099 79.4242 120.862 80.1242C120.446 81.4862 119.453 82.7631 118.252 83.5387C117.05 84.3238 115.773 84.7211 114.563 84.9954C113.361 85.2791 112.141 85.3926 111.139 85.544L110.779 85.6007L110.496 85.6669C110.401 85.6859 110.42 85.7048 110.373 85.7048C110.297 85.7237 110.496 85.6669 110.59 85.5818C110.704 85.4872 110.751 85.4683 110.808 85.3832C110.978 85.1562 110.902 85.2318 110.893 85.3453C110.864 85.4778 110.845 85.6764 110.836 85.8939C110.779 86.783 110.855 87.8708 110.931 88.9396L111.195 92.2501C111.281 93.3757 111.366 94.5108 111.413 95.6931C111.432 96.2795 111.432 96.8849 111.404 97.5186C111.366 98.1429 111.281 98.8617 111.129 99.4765C110.524 101.993 109.417 104.168 107.838 106.107C107.431 106.589 106.996 107.053 106.476 107.479C105.974 107.904 105.369 108.311 104.574 108.566C104.357 108.623 104.168 108.689 103.922 108.708C103.666 108.708 103.42 108.727 103.175 108.689C102.91 108.623 102.645 108.538 102.408 108.434C102.21 108.301 102.021 108.169 101.85 108.018C101.254 107.422 100.942 106.807 100.706 106.23C99.8073 103.913 99.5708 101.68 99.1357 99.4671C98.956 98.351 98.729 97.2538 98.5209 96.166C98.3128 95.0783 97.9817 94.0946 97.3291 93.3757C96.6765 92.6663 95.7117 92.2974 94.6901 92.0609C93.6592 91.8434 92.562 91.7394 91.4553 91.6637L88.0975 91.4651C87.53 91.4367 86.9719 91.3799 86.4044 91.3326C85.8369 91.2759 85.2126 91.2002 84.6167 91.0962C83.9924 90.9354 83.3776 90.8314 82.7155 90.5192L82.2237 90.3111C82.0534 90.2071 81.8832 90.103 81.7129 89.9895C81.5427 89.8666 81.3819 89.7814 81.2211 89.6301C81.0603 89.4693 80.9089 89.3085 80.7576 89.1382C80.436 88.8261 80.2657 88.3721 80.0577 87.9654C79.9347 87.5681 79.8117 87.1236 79.7833 86.7452C79.7077 85.9791 79.7739 85.3075 79.8496 84.7021C80.0009 83.482 80.2563 82.4226 80.3982 81.3632C80.5779 80.3039 80.7008 79.2729 80.7198 78.2324C80.7292 77.7122 80.7387 77.1826 80.6914 76.7191C80.6725 76.4826 80.6914 76.2272 80.6346 75.9907L80.4927 75.2908C80.2374 74.3923 79.8496 73.541 79.2064 72.8316C77.92 71.4128 75.7729 70.6277 73.5974 70.3723L73.5596 70.0035L73.569 70.0507Z" fill="#64822D"/>
<path d="M111.508 147.886C111.508 147.886 94.577 136.488 101.491 129.233C108.406 121.978 131.891 119.216 150.203 129.233C150.203 129.233 128.439 136.147 111.508 147.886Z" fill="#64822D"/>
<path d="M150.203 129.224C140.991 132.932 131.929 137.008 123.237 141.709C118.914 144.064 114.648 146.647 110.799 149.569C107.062 152.587 104.244 156.644 102.418 161.109C100.564 165.573 99.5901 170.407 99.1361 175.259C98.6821 180.121 98.7105 185.049 99.0793 189.948C99.8644 199.738 101.756 209.518 104.546 218.929L102.797 219.506C101.226 214.72 100.044 209.878 99.0415 204.978C98.0389 200.078 97.3484 195.113 96.9512 190.119C96.5728 185.124 96.5066 180.083 96.9984 175.06C97.5187 170.047 98.5686 165.034 100.574 160.343C102.541 155.651 105.596 151.319 109.645 148.132C113.75 145.105 118.101 142.684 122.537 140.395C126.973 138.106 131.551 136.119 136.157 134.246C138.465 133.319 140.782 132.421 143.128 131.598C145.474 130.766 147.82 129.952 150.194 129.233L150.203 129.224Z" fill="#466E28"/>
<path d="M93.0256 124.04C93.0256 124.04 108.311 103.137 89.6583 84.2197C71.0059 65.3024 0 67.6765 0 67.6765C0 67.6765 48.6552 87.9464 61.9256 95.8065C81.6185 107.469 93.0161 124.031 93.0161 124.031L93.0256 124.04Z" fill="#466E28"/>
<path d="M0 67.686C16.0229 73.399 31.8377 79.7363 47.2269 87.0667C49.1565 87.9653 51.0482 88.9585 52.9589 89.9043C54.8506 90.888 56.7423 91.8907 58.6057 92.9216C62.3324 95.012 65.9739 97.2821 69.4736 99.7508C76.4541 104.707 83.0089 110.326 88.7219 116.767C90.1596 118.365 91.5311 120.03 92.8364 121.761C93.158 122.196 93.4796 122.631 93.8012 123.095C93.962 123.312 94.1417 123.615 94.2741 123.861L94.6714 124.589C95.1632 125.573 95.6551 126.547 96.0713 127.55C97.7833 131.532 99.1453 135.637 100.224 139.808C100.791 141.889 101.198 143.998 101.699 146.089L102.815 152.435L103.638 158.829L104.158 165.252C104.262 166.321 104.3 167.389 104.329 168.468L104.433 171.684L104.537 174.9L104.489 178.116C104.452 180.263 104.433 182.4 104.366 184.547L103.95 190.96L103.742 194.167L103.383 197.364L102.673 203.748C102.115 207.995 101.368 212.214 100.725 216.442L97.1023 215.77C100.233 199.18 101.851 182.258 101.122 165.422L100.706 159.113L100.006 152.842L99.0129 146.609C98.5589 144.556 98.19 142.485 97.6698 140.451C96.6766 136.375 95.4092 132.364 93.8296 128.505C93.4418 127.531 92.9972 126.604 92.5527 125.677L92.2027 124.996C92.0892 124.778 91.9946 124.618 91.8527 124.4C91.569 123.974 91.2663 123.549 90.9636 123.133C89.734 121.449 88.4287 119.803 87.0478 118.223C81.5712 111.848 75.215 106.211 68.4143 101.226C64.9997 98.7387 61.4432 96.4592 57.8111 94.2932C55.9856 93.2243 54.1317 92.1933 52.2778 91.1718C50.3956 90.1881 48.5417 89.1571 46.6405 88.2207C39.0736 84.371 31.3459 80.8241 23.5614 77.4284C15.7581 74.0517 7.91687 70.7601 0 67.6577V67.686Z" fill="#64822D"/>
<path d="M86.4329 114.724C82.2995 113.589 79.4619 109.654 79.9538 105.398C80.1902 103.364 80.9848 102.513 80.9942 102.465C82.0536 100.886 85.0898 97.8968 82.8765 94.8133C82.5076 94.0944 80.0957 91.7014 82.9711 84.7493C80.2092 94.9552 86.2911 92.827 85.3547 98.9656C84.475 104.234 82.4887 106.674 86.9342 114.875L86.4329 114.733V114.724Z" fill="#64822D"/>
<path d="M78.2517 106.703C77.3909 105.861 67.2607 100.706 66.627 99.8075C61.6518 92.5811 67.1378 92.1933 68.2539 86.2722C68.6039 84.2386 68.1498 82.6212 66.4946 81.3821C71.7914 84.04 67.9418 92.1271 67.8472 93.527C67.3269 95.5133 69.3227 98.0292 71.1766 99.5426C71.8482 100.091 72.5008 100.659 73.0967 101.283L78.2611 106.712L78.2517 106.703Z" fill="#64822D"/>
<path d="M51.4741 79.0458C51.37 80.2282 51.9848 81.297 52.6186 82.2145C52.9591 82.6685 53.3185 83.113 53.7252 83.5198C54.1225 83.9454 54.5292 84.2765 54.9832 84.7589C55.8629 85.6574 56.6006 86.906 56.7141 88.3531C56.7709 89.0625 56.6952 89.7908 56.4966 90.4718C56.3925 90.8124 56.2696 91.1529 56.1182 91.4745C55.9574 91.815 55.8156 92.0798 55.5224 92.4582L53.6495 90.7556C53.7441 90.6894 53.9333 90.4718 54.0563 90.2921C54.1981 90.103 54.3116 89.9043 54.4251 89.6962C54.6332 89.2801 54.7657 88.8355 54.8224 88.372C54.9265 87.4451 54.6143 86.4519 54.009 85.5534C53.7347 85.1183 53.309 84.617 52.9969 84.1156C52.6564 83.6143 52.3537 83.0847 52.0889 82.5361C51.597 81.4483 51.1619 80.2092 51.4835 79.0458H51.4741Z" fill="#64822D"/>
<path d="M41.2022 77.239C41.1738 78.0903 41.5237 78.8659 42.0061 79.4807C42.498 80.1239 43.1033 80.5495 43.8222 81.013C44.2195 81.2873 44.6073 81.6278 44.9005 82.1102C45.1937 82.5831 45.3829 83.179 45.3734 83.7655C45.3734 84.3519 45.2221 84.91 45.014 85.4018C44.787 85.9126 44.5694 86.3193 44.1532 86.8017L42.4034 84.9194C42.5831 84.8154 42.8669 84.5411 43.0466 84.3235C43.2358 84.0871 43.3776 83.8411 43.4628 83.5952C43.6236 83.1223 43.4722 82.5359 42.9898 81.9778C42.4318 81.3724 41.798 80.6252 41.4575 79.8023C41.0981 78.9889 40.9562 78.0525 41.2022 77.239Z" fill="#64822D"/>
<path d="M199 155.226C196.796 153.655 194.27 152.615 191.726 151.754C189.172 150.912 186.543 150.279 183.885 149.872C178.578 148.973 173.178 148.794 167.815 149.04C165.128 149.257 162.433 149.267 159.86 149.825C157.268 150.345 154.733 151.177 152.302 152.227C149.862 153.277 147.516 154.545 145.265 155.963C144.14 156.673 143.042 157.42 141.974 158.205C141.434 158.593 140.914 159 140.403 159.406C140.158 159.605 139.864 159.832 139.694 160.012L138.985 160.702C131.456 168.307 124.958 176.99 119.689 186.269C114.487 195.576 110.628 205.725 109.512 216.262L106.769 215.978C107.951 204.95 111.99 194.46 117.447 184.992C120.162 180.234 123.264 175.722 126.622 171.419C129.999 167.125 133.603 163.029 137.537 159.217L138.294 158.508C138.616 158.205 138.862 158.035 139.145 157.808C139.694 157.382 140.252 156.975 140.81 156.578C141.936 155.784 143.09 155.036 144.272 154.327C146.637 152.918 149.096 151.679 151.65 150.648C154.204 149.617 156.861 148.822 159.586 148.349C162.329 147.838 165.072 147.886 167.777 147.753C173.215 147.687 178.683 148.065 184.017 149.163C186.685 149.673 189.305 150.458 191.849 151.414C194.374 152.397 196.862 153.561 199 155.235V155.226Z" fill="#64822D"/>
<path d="M90.7749 150.648C90.7749 150.648 96.4312 135.448 83.4067 125.771C70.3821 116.095 41.1455 120.938 41.1455 120.938C41.1455 120.938 47.3693 137.651 64.0638 141.908C80.7488 146.164 90.7749 150.657 90.7749 150.657V150.648Z" fill="#64822D"/>
<path d="M41.7128 120.2C45.7233 123.095 50.2161 125.535 54.7468 127.692C59.3342 129.791 64.0635 131.579 68.8874 133.036C71.3088 133.783 73.7303 134.35 76.2273 135.088C78.7055 135.788 81.1364 136.753 83.4632 137.954C85.7711 139.174 87.956 140.801 89.6302 142.958C91.2382 145.152 92.2975 147.914 91.6544 150.903L91.6922 150.742L88.3438 184.292L86.7359 201.072L85.2225 217.861L81.5904 217.463L83.7564 200.741L85.8373 184.008L89.8572 150.534V150.458L89.8951 150.373C90.0086 149.967 90.0464 149.323 90.018 148.794C89.9896 148.236 89.8951 147.668 89.7437 147.12C89.4789 146.003 88.8641 144.982 88.2114 144.017C86.7737 142.144 84.8158 140.622 82.6497 139.458C78.3082 137.046 73.3614 136.044 68.424 134.587C63.5149 133.121 58.7194 131.305 54.0563 129.186C49.3932 127.029 44.872 124.674 40.5967 121.676L41.7033 120.21L41.7128 120.2Z" fill="#466E28"/>
<path d="M110.165 249.377H90.4815C82.0066 249.377 74.9694 242.831 74.364 234.375L70.8359 185.115H129.801L126.273 234.375C125.668 242.831 118.63 249.377 110.155 249.377H110.165Z" fill="#BCAD9B"/>
<path d="M132.175 185.115H68.4805V206.539H132.175V185.115Z" fill="#D6CABA"/>
</g>
</svg>
