<svg width="329" height="271" viewBox="0 0 329 271" fill="none" xmlns="http://www.w3.org/2000/svg">
<g opacity="0.5">
<path d="M168.934 197.644C168.934 197.644 116.391 159.942 107.822 112.528C99.2523 65.1151 122.677 31.416 122.677 0C122.677 0 207.793 14.8557 205.494 80.5338C203.196 146.212 235.19 129.652 168.934 197.628V197.644Z" fill="#466E28"/>
<path d="M142.225 26.1461C153.906 51.698 161.959 78.8606 167.182 106.492L168.965 116.891C169.497 120.363 169.872 123.866 170.341 127.368L171.013 132.607L171.436 137.877L172.264 148.417L172.53 158.988L172.671 164.273L172.515 169.559L172.171 180.145C171.936 183.664 171.53 187.182 171.201 190.701C170.638 197.769 169.544 204.681 168.621 211.655L165.759 232.532L160.02 274.268L148.542 357.742L142.522 356.866L155.501 273.612L161.991 231.984L165.243 211.171C166.291 204.227 167.526 197.284 168.199 190.372C168.574 186.901 169.043 183.445 169.34 179.973L169.872 169.512L170.122 164.273L170.091 159.035L170.013 148.542L169.387 138.065L169.059 132.826L168.496 127.603C168.105 124.132 167.792 120.629 167.323 117.173L165.728 106.789C161.021 79.189 153.484 51.9326 142.272 26.1774L142.225 26.1461Z" fill="#64822D"/>
<path d="M121.582 70.8382C123.271 70.1189 125.366 70.1032 127.18 71.104C129.01 72.0736 130.261 73.8719 130.98 75.6389C131.418 76.5303 131.606 77.4373 131.887 78.3599C132.044 79.2669 132.231 80.1895 132.325 81.1121C132.388 82.0035 132.497 82.9574 132.528 83.8331L132.622 86.3351C132.732 87.9771 132.841 89.619 133.06 91.1358C133.295 92.6527 133.607 94.0914 134.17 95.0452C134.702 96.0148 135.468 96.6715 136.704 97.4222C137.939 98.1258 139.44 98.8139 140.973 99.502C144.085 100.878 147.275 102.395 150.34 104.162C153.373 105.929 156.438 108.024 158.518 111.074C159.581 112.559 160.238 114.326 160.77 116.015C161.208 117.532 162.005 118.924 163.022 120.144C165.008 122.583 167.823 124.522 170.528 125.773L169.371 125.523C169.371 125.523 169.73 125.382 169.918 125.288C170.137 125.179 170.371 125.07 170.59 124.929C171.013 124.647 171.419 124.35 171.748 123.944C172.436 123.193 172.967 122.255 173.327 121.16C174.093 119.018 174.093 116.312 173.89 113.654C173.78 112.325 173.577 111.074 173.264 109.729C173.108 109.041 172.936 108.322 172.78 107.446C172.608 106.586 172.529 105.46 172.686 104.271C172.873 103.099 173.296 101.941 173.827 101.097C174.343 100.19 174.891 99.502 175.438 98.8296C176.533 97.516 177.721 96.4683 178.769 95.4674C183.022 91.4173 187.76 87.9614 189.293 83.4109C189.496 82.8323 189.637 82.238 189.778 81.6125L189.918 80.6586L190.044 79.5171C190.216 77.9533 190.56 76.4365 190.966 74.9509C191.826 71.9954 193.015 69.1963 194.657 66.663L195.204 66.9132C194.516 69.7592 194.047 72.6365 193.875 75.4513C193.781 76.8587 193.812 78.2661 193.875 79.6265L193.937 80.6899L193.984 81.9409C193.953 82.7853 193.922 83.6298 193.75 84.4899C193.124 87.9301 191.279 90.9795 189.309 93.372C187.338 95.8271 185.243 97.9382 183.21 100.034C182.162 101.081 181.208 102.067 180.426 103.005C179.629 103.959 179.175 104.787 179.097 105.241C178.988 105.71 179.16 106.945 179.457 108.494C179.723 110.026 179.895 111.684 179.942 113.294C179.989 114.936 179.895 116.469 179.691 118.142C179.629 118.955 179.379 119.815 179.222 120.628C178.956 121.473 178.753 122.302 178.347 123.115C176.955 126.399 173.952 129.495 169.652 129.776L168.933 129.823L168.479 129.526C166.822 128.4 165.508 127.243 164.21 125.914C162.928 124.6 161.818 123.13 160.864 121.567C159.925 119.987 159.175 118.283 158.784 116.469C158.456 114.843 157.861 113.388 157.001 112.043C155.25 109.354 152.279 107.68 149.198 106.539C146.086 105.35 142.787 104.694 139.456 103.818C137.783 103.38 136.047 102.927 134.249 102.051C132.466 101.253 130.449 99.674 129.37 97.5942C128.291 95.53 127.993 93.544 127.821 91.6832C127.634 89.8067 127.696 88.024 127.775 86.2569L128.103 81.2216C128.134 80.4241 128.103 79.6578 128.087 78.8759C127.962 78.141 127.993 77.3278 127.79 76.6241C127.493 75.1698 126.961 73.8093 125.945 72.8555C124.975 71.8703 123.396 71.3073 121.77 71.3386L121.598 70.76L121.582 70.8382Z" fill="#64822D"/>
<path d="M136.094 60.4394C136.579 62.3472 137.189 64.1768 138.049 65.7406C138.909 67.3043 139.972 68.6179 141.239 69.4936C141.849 69.9627 142.521 70.3068 143.241 70.5882C143.569 70.7602 143.96 70.8541 144.335 70.9479C144.711 71.0574 145.039 71.1668 145.602 71.2919C147.588 71.7923 149.636 72.3397 151.732 73.6219C152.748 74.2787 153.843 75.1701 154.594 76.3742C155.344 77.5939 155.704 78.8762 155.829 79.9708C156.126 82.1444 155.954 84.1617 156.423 85.6786C157.487 89.025 161.021 91.5583 164.43 92.778L163.226 92.95C164.742 91.3394 166.072 89.4003 167.072 87.4769C168.073 85.5378 168.761 83.5362 168.855 81.863C168.902 81.4408 168.808 81.0655 168.808 80.6902C168.683 80.3148 168.699 80.0959 168.48 79.5017C168.151 78.4696 167.745 77.5157 167.291 76.4836C167.057 75.9363 166.822 75.4046 166.556 74.6227C166.306 73.9034 166.056 72.8088 166.15 71.7298C166.165 71.1668 166.291 70.7133 166.4 70.2286C166.541 69.822 166.666 69.3529 166.822 69.0245C167.135 68.2895 167.448 67.6796 167.792 67.101C168.464 65.9595 169.183 64.9274 169.778 64.0517C170.388 63.1291 171.013 62.2065 171.576 61.2682C172.764 59.4073 173.781 57.4526 174.735 55.4666C176.58 51.4634 177.909 47.2413 177.909 42.4874L178.503 42.3467C180.771 46.7878 180.677 52.2609 179.489 57.093C178.926 59.5481 178.003 61.8937 176.971 64.1768C175.955 66.3974 174.485 68.6961 173.437 70.4006C172.921 71.2607 172.53 72.1364 172.53 72.2771C172.389 72.2771 172.592 73.1372 172.999 74.31C173.39 75.4672 173.75 76.7338 174.015 77.9848C174.172 78.5165 174.266 79.4861 174.344 80.2523C174.328 81.0342 174.344 81.863 174.156 82.5823C173.578 85.5847 171.998 87.8678 170.294 89.7443C168.574 91.6521 166.713 93.2003 164.711 94.7171L164.07 95.2019L163.507 94.9048C161.63 93.8883 160.004 92.7155 158.378 91.4488C156.814 90.1197 155.25 88.6966 154.093 86.7575C153.468 85.8349 153.108 84.5996 152.78 83.7395C152.436 82.8012 152.107 81.863 151.763 81.0654C151.013 79.3922 150.356 79.0013 149.011 78.2819C147.666 77.6252 145.93 76.9684 144.148 76.3898C143.757 76.2647 143.162 76.0301 142.599 75.8269C142.037 75.6236 141.505 75.3734 140.989 75.045C139.925 74.482 138.972 73.7001 138.143 72.8244C136.501 71.0417 135.5 68.8524 135.125 66.6945C134.749 64.5208 134.843 62.3785 135.484 60.3769L136.094 60.4238V60.4394Z" fill="#64822D"/>
<path d="M157.08 23.4407C158.315 24.7387 159.207 26.2711 159.895 27.8974C160.598 29.5238 161.068 31.2908 161.255 33.1204C161.349 34.0431 161.349 34.9657 161.318 35.9039L161.161 37.3113C161.099 37.7492 161.036 38.1557 160.958 38.578C160.692 40.2355 160.208 41.9401 159.785 43.2536C159.379 44.5203 159.129 45.8495 159.035 47.4758C158.925 49.0864 159.035 50.6971 159.097 52.4798C159.144 54.2156 159.097 55.9514 158.8 57.7184C158.644 58.5941 158.409 59.4698 158.081 60.3455C157.909 60.7834 157.721 61.2212 157.487 61.6435C157.221 62.0813 157.049 62.4566 156.564 62.9727L155.563 64.036L154.281 62.5974C153.171 61.362 151.935 60.1579 150.762 58.9851C149.574 57.8122 148.464 56.6081 147.307 55.5135C146.134 54.4032 145.023 53.5119 143.835 52.8395C142.521 52.1202 140.989 51.2757 139.535 50.3844C136.61 48.5548 133.702 46.4437 131.137 43.8166C129.855 42.503 128.651 41.0643 127.744 39.3598C126.837 37.7179 126.164 35.7319 126.477 33.8554L127.087 33.7772C127.838 35.3253 128.995 36.3887 130.199 37.3738C130.793 37.8743 131.481 38.2965 132.107 38.7656C132.81 39.1878 133.452 39.6257 134.155 40.0323C136.939 41.6586 139.879 43.1285 142.834 44.7548C144.304 45.6149 145.774 46.428 147.322 47.5696C148.104 48.1169 148.964 48.8832 149.637 49.5399C150.309 50.2436 150.919 50.9473 151.497 51.6667C153.827 54.5127 155.438 57.6559 156.877 60.9085L154.594 60.5488C154.719 60.5175 155.063 60.2517 155.282 60.0328C155.516 59.7826 155.735 59.5167 155.954 59.2196C156.376 58.641 156.673 57.9373 156.908 57.218C157.33 55.7793 157.393 54.1843 157.08 52.6518C156.752 51.1662 156.095 49.5712 155.548 47.9136C155.266 47.0848 155.016 46.2248 154.844 45.2709C154.703 44.3326 154.625 43.2849 154.719 42.331C155.078 38.6249 156.329 35.9352 156.564 33.0892C156.908 30.1649 156.783 27.0217 156.533 23.644L157.08 23.3782V23.4407Z" fill="#64822D"/>
<path d="M121.63 115.812C123.522 115.39 125.477 115.359 127.447 115.672C129.402 116.016 131.419 116.719 133.108 118.064C134.828 119.378 136.142 121.223 136.939 123.225L137.471 124.742C137.643 125.258 137.69 125.774 137.815 126.29C138.065 127.353 138.112 128.338 138.174 129.323C138.3 131.309 138.237 133.295 138.065 135.234C137.877 137.173 137.565 139.05 137.393 140.723C137.299 141.552 137.299 142.303 137.346 142.881C137.361 143.178 137.455 143.35 137.486 143.569C137.627 143.679 137.565 143.898 137.752 144.007C138.143 144.57 139.551 145.274 141.099 145.759C141.928 145.962 142.709 146.212 143.601 146.415L146.29 147.025L151.732 148.307C153.562 148.777 155.423 149.214 157.268 149.887C159.098 150.544 161.068 151.482 162.397 153.171C163.742 154.828 164.289 156.877 164.696 158.675C165.118 160.489 165.462 162.319 165.931 164.101C166.369 165.9 166.838 167.667 167.417 169.403C167.98 171.123 168.652 172.827 169.481 174.235C169.872 174.954 170.404 175.517 170.779 175.783C170.873 175.798 170.935 175.83 170.998 175.877C171.045 175.845 171.06 175.814 171.076 175.845C171.123 175.83 171.186 175.783 171.232 175.783C171.295 175.783 171.404 175.673 171.498 175.642C171.905 175.407 172.452 174.985 172.953 174.391C173.469 173.859 173.953 173.187 174.407 172.515C176.19 169.778 177.581 166.494 178.097 163.398C178.238 162.6 178.269 161.928 178.269 161.115C178.269 160.317 178.207 159.441 178.129 158.581C177.988 156.83 177.769 155.016 177.534 153.202C177.3 151.372 177.081 149.512 176.909 147.604C176.753 145.68 176.612 143.773 176.784 141.536C176.831 140.973 176.909 140.379 177.081 139.691C177.284 138.987 177.441 138.206 178.301 137.095C178.582 136.798 178.785 136.564 179.176 136.298C179.536 136.048 180.052 135.797 180.146 135.782C180.506 135.657 180.99 135.5 181.272 135.453L182.179 135.297L182.961 135.219C184.978 135.031 186.682 134.969 188.34 134.75C189.966 134.531 191.483 134.155 192.672 133.514C193.876 132.889 194.751 132.044 195.33 130.809C195.627 130.246 195.83 129.417 196.065 128.604C196.253 127.791 196.409 126.978 196.503 126.133C196.675 124.444 196.691 122.677 196.612 120.863C196.519 119.049 196.378 117.173 196.393 115.234C196.425 113.31 196.706 111.262 197.629 109.542L198.192 109.761C197.488 113.342 198.895 116.719 199.693 120.426C200.115 122.271 200.459 124.226 200.537 126.243C200.569 127.259 200.537 128.276 200.459 129.292C200.35 130.309 200.209 131.309 199.818 132.467C199.13 134.718 197.488 136.829 195.502 138.112C193.516 139.41 191.405 140.066 189.403 140.52C187.417 140.989 185.4 141.177 183.743 141.427L183.148 141.521L182.679 141.63C182.523 141.661 182.554 141.693 182.476 141.693C182.351 141.724 182.679 141.63 182.836 141.489C183.023 141.333 183.101 141.302 183.195 141.161C183.477 140.786 183.352 140.911 183.336 141.099C183.289 141.317 183.258 141.646 183.242 142.005C183.148 143.475 183.273 145.274 183.399 147.041L183.836 152.514C183.977 154.375 184.118 156.251 184.196 158.206C184.227 159.176 184.227 160.176 184.18 161.224C184.118 162.256 183.977 163.445 183.727 164.461C182.726 168.621 180.897 172.217 178.285 175.423C177.613 176.221 176.893 176.987 176.033 177.691C175.204 178.394 174.204 179.067 172.89 179.489C172.53 179.583 172.218 179.692 171.811 179.723C171.389 179.723 170.982 179.755 170.576 179.692C170.138 179.583 169.7 179.442 169.309 179.27C168.981 179.051 168.668 178.832 168.386 178.582C167.401 177.597 166.885 176.58 166.494 175.626C165.009 171.795 164.618 168.105 163.898 164.445C163.601 162.6 163.226 160.786 162.882 158.988C162.538 157.19 161.991 155.563 160.912 154.375C159.833 153.202 158.238 152.592 156.549 152.201C154.844 151.842 153.03 151.67 151.201 151.544L145.649 151.216C144.711 151.169 143.788 151.075 142.85 150.997C141.912 150.903 140.88 150.778 139.895 150.606C138.863 150.34 137.846 150.168 136.751 149.652L135.938 149.308C135.657 149.136 135.375 148.964 135.094 148.777C134.812 148.573 134.547 148.433 134.281 148.182C134.015 147.917 133.765 147.651 133.514 147.369C132.983 146.853 132.701 146.103 132.357 145.43C132.154 144.773 131.951 144.038 131.904 143.413C131.779 142.146 131.888 141.036 132.013 140.035C132.263 138.018 132.686 136.266 132.92 134.515C133.217 132.764 133.421 131.059 133.452 129.339C133.468 128.479 133.483 127.603 133.405 126.837C133.374 126.446 133.405 126.024 133.311 125.633L133.077 124.476C132.654 122.99 132.013 121.583 130.95 120.41C128.823 118.064 125.273 116.766 121.677 116.344L121.614 115.734L121.63 115.812Z" fill="#64822D"/>
<path d="M270.171 212.5C259.819 205.541 225.072 205.072 225.072 205.072L248.325 213.641C248.325 213.641 266.465 217.926 278.021 227.356C278.021 227.356 278.881 218.364 270.171 212.5Z" fill="#466E28"/>
<path d="M184.352 244.494C184.352 244.494 156.361 225.651 167.792 213.657C179.223 201.663 218.051 197.097 248.326 213.657C248.326 213.657 212.344 225.088 184.352 244.494Z" fill="#64822D"/>
<path d="M248.325 213.641C233.094 219.771 218.114 226.511 203.743 234.283C196.596 238.177 189.544 242.446 183.179 247.278C177.002 252.266 172.342 258.975 169.324 266.356C166.259 273.737 164.649 281.728 163.898 289.75C163.147 297.788 163.194 305.935 163.804 314.035C165.102 330.22 168.23 346.389 172.843 361.949L169.95 362.903C167.354 354.99 165.399 346.984 163.742 338.883C162.084 330.783 160.942 322.573 160.286 314.317C159.66 306.06 159.551 297.725 160.364 289.421C161.224 281.133 162.96 272.846 166.275 265.089C169.527 257.333 174.578 250.171 181.271 244.901C188.058 239.897 195.251 235.894 202.585 232.11C209.919 228.325 217.488 225.041 225.104 221.945C228.919 220.413 232.75 218.927 236.629 217.567C240.507 216.19 244.385 214.846 248.31 213.657L248.325 213.641Z" fill="#466E28"/>
<path d="M153.796 205.072C153.796 205.072 179.066 170.513 148.229 139.237C117.392 107.962 0 111.887 0 111.887C0 111.887 80.44 145.399 102.38 158.394C134.937 177.675 153.78 205.056 153.78 205.056L153.796 205.072Z" fill="#466E28"/>
<path d="M0 111.903C26.4901 121.348 52.6362 131.825 78.0787 143.944C81.2687 145.43 84.3963 147.072 87.5551 148.636C90.6826 150.262 93.8101 151.92 96.8907 153.624C103.052 157.08 109.072 160.833 114.858 164.915C126.399 173.109 137.236 182.397 146.681 193.047C149.058 195.689 151.325 198.442 153.483 201.303C154.015 202.023 154.547 202.742 155.078 203.508C155.344 203.868 155.641 204.368 155.86 204.775L156.517 205.979C157.33 207.605 158.143 209.216 158.831 210.874C161.662 217.457 163.914 224.244 165.696 231.14C166.635 234.58 167.307 238.067 168.136 241.523L169.981 252.016L171.342 262.587L172.202 273.205C172.374 274.972 172.436 276.739 172.483 278.522L172.655 283.839L172.827 289.156L172.749 294.472C172.686 298.022 172.655 301.556 172.546 305.106L171.858 315.708L171.513 321.009L170.919 326.295L169.746 336.85C168.824 343.872 167.588 350.846 166.525 357.836L160.536 356.726C165.712 329.297 168.386 301.322 167.182 273.487L166.494 263.056L165.337 252.689L163.695 242.383C162.944 238.99 162.334 235.565 161.474 232.203C159.832 225.463 157.737 218.833 155.125 212.453C154.484 210.842 153.749 209.31 153.014 207.777L152.436 206.651C152.248 206.292 152.092 206.026 151.857 205.666C151.388 204.963 150.887 204.259 150.387 203.571C148.354 200.787 146.196 198.066 143.913 195.455C134.859 184.915 124.35 175.595 113.107 167.354C107.462 163.241 101.582 159.473 95.5772 155.892C92.5591 154.125 89.4941 152.42 86.4292 150.731C83.3173 149.105 80.2523 147.4 77.1091 145.852C64.599 139.488 51.8231 133.624 38.9533 128.01C26.0523 122.427 13.0887 116.985 0 111.856V111.903Z" fill="#64822D"/>
<path d="M142.897 189.669C136.063 187.792 131.372 181.287 132.185 174.25C132.576 170.888 133.89 169.481 133.905 169.402C135.657 166.791 140.676 161.849 137.017 156.752C136.407 155.563 132.42 151.607 137.174 140.113C132.607 156.986 142.662 153.468 141.114 163.617C139.66 172.327 136.376 176.361 143.726 189.919L142.897 189.684V189.669Z" fill="#64822D"/>
<path d="M129.37 176.408C127.947 175.016 111.199 166.494 110.151 165.008C101.926 153.061 110.996 152.42 112.841 142.631C113.42 139.269 112.669 136.595 109.932 134.546C118.689 138.94 112.325 152.311 112.169 154.625C111.308 157.909 114.608 162.068 117.673 164.57C118.783 165.477 119.862 166.416 120.847 167.448L129.386 176.424L129.37 176.408Z" fill="#64822D"/>
<path d="M85.0996 130.684C84.9276 132.639 85.9441 134.406 86.9918 135.922C87.5547 136.673 88.149 137.408 88.8214 138.08C89.4782 138.784 90.1506 139.331 90.9012 140.129C92.3555 141.615 93.5752 143.679 93.7629 146.071C93.8567 147.244 93.7316 148.448 93.4032 149.574C93.2312 150.137 93.0279 150.7 92.7777 151.232C92.5119 151.795 92.2773 152.232 91.7925 152.858L88.6963 150.043C88.8526 149.934 89.1654 149.574 89.3687 149.277C89.6033 148.964 89.7909 148.636 89.9786 148.292C90.3226 147.604 90.5415 146.869 90.6353 146.103C90.8074 144.57 90.2913 142.928 89.2905 141.443C88.837 140.723 88.1333 139.894 87.6173 139.066C87.0543 138.237 86.5539 137.361 86.1161 136.454C85.3029 134.656 84.5836 132.607 85.1153 130.684H85.0996Z" fill="#64822D"/>
<path d="M68.1175 127.697C68.0706 129.104 68.6492 130.386 69.4467 131.403C70.2599 132.466 71.2607 133.17 72.4491 133.936C73.1059 134.39 73.747 134.953 74.2318 135.75C74.7166 136.532 75.0293 137.517 75.0137 138.487C75.0137 139.456 74.7635 140.379 74.4195 141.192C74.0442 142.036 73.6845 142.709 72.9964 143.506L70.1035 140.394C70.4006 140.222 70.8697 139.769 71.1668 139.409C71.4796 139.018 71.7142 138.612 71.8549 138.205C72.1207 137.423 71.8705 136.454 71.073 135.531C70.1504 134.53 69.1027 133.295 68.5397 131.934C67.9455 130.59 67.7109 129.041 68.1175 127.697Z" fill="#64822D"/>
<path d="M230.045 263.056C230.045 263.056 225.072 236.488 242.899 223.681C258.99 212.109 266.027 227.356 266.027 227.356C266.027 227.356 326.435 212.938 329 256.629C329 256.629 276.739 226.214 230.045 263.056Z" fill="#466E28"/>
<path d="M329 256.629C325.357 254.033 321.181 252.313 316.975 250.89C312.753 249.498 308.405 248.451 304.011 247.778C295.238 246.293 286.309 245.996 277.443 246.402C273.002 246.762 268.545 246.777 264.292 247.7C260.007 248.56 255.816 249.936 251.797 251.672C247.763 253.408 243.884 255.503 240.163 257.849C238.302 259.022 236.488 260.257 234.721 261.555C233.829 262.196 232.969 262.869 232.125 263.541C231.718 263.869 231.234 264.245 230.952 264.542L229.779 265.683C217.332 278.256 206.589 292.611 197.879 307.952C189.278 323.339 182.898 340.119 181.052 357.539L176.518 357.07C178.472 338.836 185.15 321.494 194.172 305.841C198.66 297.975 203.79 290.516 209.341 283.401C214.924 276.301 220.882 269.53 227.387 263.228L228.638 262.055C229.169 261.555 229.576 261.274 230.045 260.898C230.952 260.195 231.875 259.522 232.797 258.865C234.658 257.552 236.566 256.316 238.521 255.144C242.43 252.814 246.496 250.765 250.718 249.061C254.94 247.356 259.334 246.043 263.838 245.261C268.373 244.416 272.908 244.494 277.38 244.275C286.372 244.166 295.41 244.792 304.23 246.606C308.64 247.45 312.972 248.748 317.178 250.327C321.353 251.954 325.466 253.877 329 256.645V256.629Z" fill="#64822D"/>
<path d="M150.074 249.061C150.074 249.061 159.425 223.931 137.892 207.934C116.359 191.936 68.0234 199.943 68.0234 199.943C68.0234 199.943 78.313 227.575 105.913 234.612C133.498 241.648 150.074 249.076 150.074 249.076V249.061Z" fill="#64822D"/>
<path d="M68.9615 198.723C75.5918 203.508 83.0197 207.543 90.5101 211.108C98.0944 214.58 105.913 217.535 113.888 219.943C117.892 221.179 121.895 222.117 126.023 223.337C130.12 224.494 134.139 226.089 137.986 228.075C141.802 230.092 145.414 232.782 148.182 236.347C150.84 239.975 152.591 244.541 151.528 249.483L151.591 249.217L146.055 304.684L143.397 332.425L140.895 360.182L134.89 359.525L138.471 331.877L141.911 304.214L148.557 248.873V248.748L148.62 248.607C148.807 247.935 148.87 246.871 148.823 245.996C148.776 245.073 148.62 244.135 148.369 243.228C147.931 241.383 146.915 239.694 145.836 238.099C143.459 235.002 140.222 232.485 136.641 230.561C129.463 226.574 121.285 224.916 113.122 222.508C105.006 220.084 97.0779 217.082 89.3686 213.579C81.6592 210.013 74.1844 206.12 67.1162 201.163L68.9458 198.739L68.9615 198.723Z" fill="#466E28"/>
</g>
</svg>
